<svg height="1028pt" preserveAspectRatio="xMidYMid meet" viewBox="0 0 1028 1028" width="1028pt" xmlns="http://www.w3.org/2000/svg"><g transform="matrix(.1 0 0 -.1 0 1028)"><path d="m1660 5135v-1605h150 150l2 1452 3 1452h2580c1419-1 2609-4 2644-8 193-20 392-96 567-217 162-112 341-320 417-484 22-46 53-117 65-148 20-47 61-218 71-292 9-71 7-305-4-360-26-139-62-257-106-350-166-356-481-614-859-705-125-30-190-33-680-34h-445v1222c0 1079-2 1222-15 1223-84 3-1180 3-1182-1 0-3-2-623-3-1377l-1-1373h150 151v1216c0 802 3 1218 10 1222 5 4 139 7 298 7h287l1-25c0-14 1-564 2-1223v-1198l666 3c645 4 669 4 774 26 257 54 485 162 682 323 78 63 195 183 240 244 17 22 32 42 35 45 22 22 96 143 137 225 123 245 173 469 168 745-4 189-6 215-42 365-116 494-465 915-923 1112-52 23-113 46-135 53-100 28-143 39-180 44-23 4-52 10-65 14-14 3-1282 8-2817 9l-2793 3z"/><path d="m2133 6282-23-3v-618-618l493 2c546 2 533 1 669 72 194 101 323 330 312 553-15 312-245 575-528 606-58 6-883 11-923 6zm959-331c203-98 254-371 97-521-79-75-106-80-464-80h-315v309c0 217 3 310 11 313 6 2 149 3 318 2 296-1 308-1 353-23z"/><path d="m3448 6282c-10-2 7-25 51-70 237-240 302-610 158-897-45-90-84-143-157-215s-147-119-242-157c-35-13-71-27-80-31-15-6 15-41 155-183 174-179 942-960 1095-1115l83-84 177 2 177 3v1369c0 1127-2 1369-13 1374-14 5-1377 9-1404 4zm1108-314c9-9 12-2038 3-2044-4-2-180 173-392 389-212 215-412 419-445 453l-60 61 73 76c117 123 192 246 246 407 57 173 69 391 30 568-12 50-21 93-21 94 0 7 559 2 566-4z"/><path d="m6389 6282-25-3v-1145-1145l411 1c443 1 484 5 645 60 195 68 385 205 510 371 162 215 233 422 234 679 1 173-7 236-50 373-105 330-362 611-674 735-73 29-190 58-270 67-63 7-729 13-781 7zm788-316c24-4 44-7 45-6 2 1 36-11 76-25 352-127 579-466 567-845-10-316-190-587-481-725-114-54-207-68-471-69-134-1-244 0-244 4-6 24-3 1666 3 1670 11 8 457 4 505-4z"/><path d="m2110 4210v-680h150 150l2 527 3 528h210 210l99-100c54-55 288-292 519-527l420-428h214 213l-101 103c-437 444-932 947-1069 1088l-165 169h-427-428z"/></g></svg>