<?xml version="1.0" encoding="utf-8"?><svg xmlns="http://www.w3.org/2000/svg" width="80" height="40" viewBox="37 -1 80 40" enable-background="new 37 -1 80 40"><g id="footer-logo" fill="#fff"><path d="m38.575 36.756v-35.499c0 0 9.8 0 14.5 0 4.406 0 12 3.2 12 12 0 5.431-2.419 7.165-4.01 8.899 0 0 7.5 7.6 9.5 9.363v-21.762h-5.857c0 0-.881-3-1.541-3h10.646l.009 29.499h-3.424l-15.04-14.945c0 0 6.277-1.484 6.277-8.094 0-6.61-5.838-8.461-8.627-8.461-2.424 0-10.931 0-10.931 0v32h-3.499"/><path d="m44.11 36.738v-15h8.7l14.8 14.502h-4.8l-11.3-11h-3.901v11.498z"/><path d="m61.58 1.257v3.5c0 0 31.4 0 36 0 5.949 0 14.4 4.2 14.4 14.3 0 9.398-8.113 14.215-14.432 14.199-6.312 0-9.04 0-9.04 0v-26.499h-13v29.999h3.5v-26.999h6v26.999c0 0 4.1 0 12.5 0 8.443 0 17.918-6.441 17.918-17.896s-9.896-17.603-17.753-17.603c-7.674-.018-36.06-.018-36.06 0h-.034"/><path d="m47.576 9.757v6.5c0 0 4.1 0 5.5 0 1.322 0 3.194-.975 3.194-3.25 0-2.276-1.726-3.25-3.121-3.25-1.429-.018-5.54-.018-5.54 0h-.033m5.465-3c1.983 0 6.601 1.6 6.601 6.5 0 4.919-4.626 6.462-6.609 6.499-1.958 0-8.966 0-8.966 0v-12.999c.009-.04 7.01-.04 9.01-.037h-.036v.037"/><path d="m90.57 6.757v24.499c0 0 3.102 0 6.301 0 6.242 0 13.184-3.77 13.184-12.287 0-8.812-7.197-12.212-13.07-12.212-3.959-.003-6.408-.003-6.408 0h-.005m6.451 3c7.05 0 9.602 4.7 9.602 9.1 0 6.461-5.51 8.926-9.621 8.926-1.764 0-3.01 0-3.01 0l.004-18h3.03v-.025"/></g></svg>