<?xml version="1.0" encoding="utf-8"?><svg xmlns="http://www.w3.org/2000/svg" width="15" height="17" viewBox="0 0 15 17" enable-background="new 0 0 15 17"><g fill="#fff"><path id="path3046_1_" d="m5.19 3.347c.724-.067 1.287-.691 1.287-1.421 0-.786-.641-1.426-1.426-1.426-.786 0-1.426.641-1.426 1.426 0 .24.067.485.178.691l.508 7.151 5.235.002 2.147 5.03 2.818-1.106-.436-1.039-1.577.569-2.078-4.795-4.867.033-.067-.906 3.523.001v-1.34l-3.657-.001-.162-2.869"/><path id="path3050_1_" d="m10.454 13.603c-.883 1.746-2.732 2.897-4.704 2.897-2.897 0-5.26-2.363-5.26-5.26 0-2.034 1.233-3.924 3.072-4.762l.119 1.554c-1.088.686-1.759 1.923-1.759 3.219 0 2.101 1.714 3.815 3.816 3.815 1.923 0 3.562-1.475 3.786-3.368l.93 1.905"/></g></svg>