<svg width="80" height="40" enable-background="new 0 0 80 40" viewBox="0 0 80 40" xmlns="http://www.w3.org/2000/svg"><g fill="#ffffff" transform="matrix(.1 0 0 -.1 0 1028)"><path d="m15.8 10080.1v-177.3h16.6 16.6l.2 160.4.3 160.4h285.1c156.8-.1 288.3-.4 292.1-.9 21.3-2.2 43.3-10.6 62.6-24 17.9-12.4 37.7-35.4 46.1-53.5 2.4-5.1 5.9-12.9 7.2-16.4 2.2-5.2 6.7-24.1 7.8-32.3 1-7.8.8-33.7-.4-39.8-2.9-15.4-6.9-28.4-11.7-38.7-18.3-39.3-53.1-67.8-94.9-77.9-13.8-3.3-21-3.6-75.1-3.8h-49.3v135c0 119.2-.2 135-1.7 135.1-9.3.3-130.4.3-130.6-.1 0-.3-.2-68.8-.3-152.1l-.1-151.7h16.6 16.7v134.4c0 88.6.3 134.6 1.1 135 .6.4 15.4.8 32.9.8h31.7l.1-2.8c0-1.5.1-62.3.2-135.1v-132.4l73.6.3c71.3.4 73.9.4 85.5 2.9 28.4 6 53.6 17.9 75.4 35.7 8.6 7 21.5 20.2 26.5 27 1.9 2.4 3.5 4.6 3.9 5 2.4 2.4 10.6 15.8 15.1 24.9 13.6 27.1 19.1 51.8 18.6 82.3-.4 20.9-.7 23.8-4.6 40.3-12.8 54.6-51.4 101.1-102 122.9-5.7 2.5-12.5 5.1-14.9 5.9-11 3.1-15.8 4.3-19.9 4.9-2.5.4-5.7 1.1-7.2 1.5-1.5.3-141.7.9-311.3 1l-308.6.3v-177.2z"/><path d="m68 10206.8-2.5-.3v-68.3-68.3l54.5.2c60.3.2 58.9.1 73.9 8 21.4 11.2 35.7 36.5 34.5 61.1-1.7 34.5-27.1 63.5-58.3 67-6.5.6-97.7 1.2-102.1.6zm106-36.5c22.4-10.8 28.1-41 10.7-57.6-8.7-8.3-11.7-8.8-51.3-8.8h-34.8v34.1c0 24 .3 34.3 1.2 34.6.7.2 16.5.3 35.1.2 32.8-.1 34.1-.1 39.1-2.5z"/><path d="m213.3 10206.8c-1.1-.2.8-2.8 5.6-7.7 26.2-26.5 33.4-67.4 17.5-99.1-5-9.9-9.3-15.8-17.3-23.8-8.1-8-16.2-13.1-26.7-17.3-3.9-1.4-7.8-3-8.8-3.4-1.7-.7 1.7-4.5 17.1-20.2 19.2-19.8 104.1-106.1 121-123.2l9.2-9.3 19.6.2 19.6.3v151.3c0 124.5-.2 151.3-1.4 151.8-1.8.5-152.4 1-155.4.4zm122.4-34.7c1-1 1.3-225.2.3-225.8-.4-.2-19.9 19.1-43.3 43-23.4 23.8-45.5 46.3-49.2 50.1l-6.6 6.7 8.1 8.4c12.9 13.6 21.2 27.2 27.2 45 6.3 19.1 7.6 43.2 3.3 62.8-1.3 5.5-2.3 10.3-2.3 10.4 0 .6 61.8.1 62.5-.6z"/><path d="m538.3 10206.8-2.8-.3v-126.5-126.5l45.4.1c48.9.1 53.5.6 71.3 6.6 21.5 7.5 42.5 22.7 56.4 41 17.9 23.8 25.7 46.6 25.9 75 .1 19.1-.8 26.1-5.5 41.2-11.6 36.5-40 67.5-74.5 81.2-8.1 3.2-21 6.4-29.8 7.4-7.1.8-80.7 1.5-86.4.8zm87-34.9c2.7-.4 4.9-.8 5-.7.2.1 4-1.2 8.4-2.8 38.9-14 64-51.5 62.6-93.4-1.1-34.9-21-64.9-53.1-80.1-12.6-6-22.9-7.5-52-7.6-14.8-.1-27 0-27 .4-.7 2.7-.3 184.1.3 184.5 1.3 1 50.5.6 55.8-.3z"/><path d="m65.5 9977.9v-75.1h16.5 16.6l.2 58.2.3 58.3h23.2 23.2l10.9-11c6-6.1 31.8-32.3 57.3-58.2l46.4-47.3h23.6 23.5l-11.2 11.4c-48.3 49.1-103 104.6-118.1 120.2l-18.2 18.7h-47.2-47z"/></g></svg>
