<?xml version="1.0" encoding="utf-8"?><svg xmlns="http://www.w3.org/2000/svg" width="40" height="40" viewBox="39.458 39.167 40 40" enable-background="new 39.458 39.167 40 40"><g id="header-icons"><circle id="rail-bg" fill="#454545" cx="59.46" cy="59.17" r="19.5"/><path id="rail" fill="#fff" d="m65.27 46.749h-11.63c-1.168 0-2.115.947-2.115 2.115v16.918c0 1.168.947 2.115 2.115 2.115h1.839l-3.233 3.942.909.745.467-.57h11.667l.467.57.909-.745-3.233-3.942h1.839c1.168 0 2.115-.947 2.115-2.115v-16.918c-.001-1.168-.948-2.115-2.116-2.115m-11.63 3.407c0-.584.473-1.057 1.057-1.057h9.516c.584 0 1.057.473 1.057 1.057v6.344c0 .584-.473 1.057-1.057 1.057h-9.516c-.584 0-1.057-.473-1.057-1.057v-6.344m-.153 12.01c0-.738.598-1.336 1.336-1.336.738 0 1.336.598 1.336 1.336 0 .738-.598 1.336-1.336 1.336-.738-.001-1.336-.599-1.336-1.336m9.986 7.635l.852 1.039h-9.74l.852-1.039v.011h8.04v-.011m-.954-1.164h-6.127l.607-.74h4.914l.606.74m1.569-5.136c-.738 0-1.336-.598-1.336-1.336 0-.738.598-1.336 1.336-1.336.738 0 1.336.598 1.336 1.336-.001.738-.599 1.336-1.336 1.336"/></g></svg>