<?xml version="1.0" encoding="utf-8"?><svg xmlns="http://www.w3.org/2000/svg" width="25" height="25.17" viewBox="123.416 -2.417 25 25.167" enable-background="new 123.416 -2.417 25 25.167"><g id="header-icons"><path id="header-search" fill="#454545" d="m137.87 2.167c-3.449 0-6.257 2.807-6.257 6.256 0 1.273.385 2.456 1.04 3.446l-4.585 4.282c-.244.229-.37.54-.37.852 0 .285.104.57.313.794.229.246.54.369.852.369.284 0 .57-.104.794-.312l4.62-4.315c1.019.717 2.256 1.142 3.591 1.142 3.451 0 6.258-2.807 6.258-6.257 0-3.45-2.807-6.257-6.256-6.257m0 10.04c-2.086 0-3.782-1.695-3.782-3.781 0-2.085 1.697-3.781 3.782-3.781s3.781 1.696 3.781 3.781c0 2.086-1.695 3.781-3.781 3.781"/></g></svg>