<?xml version="1.0" encoding="utf-8"?><svg xmlns="http://www.w3.org/2000/svg" width="40" height="40" viewBox="-2.5 -2.5 40 40" enable-background="new -2.5 -2.5 40 40"><g id="header-icons"><circle id="bus-bg_1_" fill="#454545" cx="17.5" cy="17.5" r="19.5"/><path id="bus_2_" fill="#fff" d="m23.311 5.312h-11.622c-1.167 0-2.113.946-2.113 2.113v16.905c0 1.167.946 2.113 2.113 2.113l-.135-.004v2.502h2.747v-2.498h6.398v2.498h2.747v-2.502l-.135.004c1.167 0 2.113-.946 2.113-2.113v-16.905c0-1.167-.946-2.113-2.113-2.113m-11.622 3.405c0-.583.473-1.057 1.057-1.057h9.509c.584 0 1.057.473 1.057 1.057v8.875h-11.623v-8.875m-.153 11.999c0-.737.597-1.335 1.335-1.335.737 0 1.335.597 1.335 1.335s-.597 1.335-1.335 1.335c-.737-.001-1.335-.598-1.335-1.335m10.593 1.334c-.737 0-1.335-.598-1.335-1.335s.597-1.335 1.335-1.335c.737 0 1.335.597 1.335 1.335s-.598 1.335-1.335 1.335"/></g></svg>