<?xml version="1.0" encoding="utf-8"?><svg xmlns="http://www.w3.org/2000/svg" width="40" height="40" viewBox="-68 -3 40 40"><path id="home-tools-rideralerts" fill="#077cc0" d="m-29.828 30.806l-16.899-29.28c-.268-.454-.756-.738-1.282-.738-.525 0-1.014.281-1.279.74l-17.02 29.466c-.261.459-.261 1.021 0 1.477.266.459.754.738 1.28.738h34.02c.007.001.016.001.021 0 .816 0 1.479-.661 1.479-1.478 0-.35-.125-.672-.328-.924v-.002m-16.937-3.388c-.35.311-.757.466-1.224.466-.474 0-.887-.153-1.241-.462-.352-.307-.532-.736-.532-1.288 0-.48.17-.89.508-1.228.339-.337.754-.506 1.242-.506.489 0 .906.169 1.252.506.344.338.519.747.519 1.228 0 .544-.175.974-.525 1.282v.002m.445-12.926l-.5 5.746c-.055.686-.172 1.21-.35 1.574-.178.363-.475.546-.885.546-.42 0-.711-.175-.874-.527-.164-.356-.279-.895-.35-1.615l-.373-5.583c-.071-1.089-.106-1.868-.106-2.342 0-.646.169-1.148.506-1.511.339-.361.784-.54 1.335-.54.667 0 1.113.23 1.339.693.227.462.338 1.128.338 1.998 0 .514-.027 1.034-.083 1.562h.003"/></svg>