<?xml version="1.0" encoding="utf-8"?><svg xmlns="http://www.w3.org/2000/svg" width="40" height="40" viewBox="-3 -3 40 40"><path id="home-tools-schedulefinder" fill="#077cc0" d="m-.922-1.5v37h35.844v-37h-35.844m3.469 4.625h28.762v16.188h-28.762v-16.188m28.906 27.518h-28.762v-3.144h28.762v3.144m0-5.636h-28.762v-3.147h28.762v3.147m-22.824-17.55c1.332.014 2.595-.443 2.829-1.608h1.289v9.707h-1.734v-6.85h-2.381v-1.249h-.003m14.15 8.098h-6.628c.014-1.594.834-2.801 2.137-3.674 1.263-.914 2.897-1.677 2.926-3.189.015-.693-.279-1.72-1.638-1.72-1.249 0-1.621 1.069-1.662 2.428h-1.583c0-2.15 1.18-3.746 3.341-3.746 2.37 0 3.122 1.734 3.122 2.983 0 1.538-1.056 2.496-2.166 3.272-1.124.777-2.302 1.375-2.578 2.232h4.729v1.414"/></svg>