<?xml version="1.0" encoding="utf-8"?><svg xmlns="http://www.w3.org/2000/svg" width="40" height="40" viewBox="127 -3 40 40"><path id="home-tools-locatestop" fill="#077cc0" d="m135.17 17.988c-1.392 0-2.847.705-2.847 2.387s1.452 2.389 2.844 2.389c1.396 0 2.845-.708 2.845-2.389s-1.451-2.387-2.845-2.387h.003m1.411 11.05c.82 0 1.268-.477 1.268-1.512v-1.797h-2.534v1.799c-.009 1.034.443 1.509 1.266 1.51m27.922-28.05h-35.01c-.551 0-.997.446-.997.998v30.02c0 .553.446.998.997.998h35.01c.551 0 .997-.445.997-.998v-30.02c0-.55-.448-.997-.997-.997m-25.881 26.845c0 1.375-.767 2.118-2.041 2.118-1.275 0-2.052-.743-2.04-2.116v-2.109h-2.825v-.92h6.906v3.03m-3.452-4.154c-1.877 0-3.617-1.11-3.617-3.308s1.74-3.307 3.617-3.307c1.876 0 3.615 1.113 3.615 3.31 0 2.195-1.74 3.308-3.618 3.308l.003-.003m-3.454-9.297v-.917h6.133v-2.302h.771v5.521h-.771v-2.301h-6.133m4.885-3.893v-.871c.983-.105 1.411-.765 1.411-1.712 0-.773-.28-1.546-1.18-1.546-.853 0-.976 1.102-1.227 2.215-.253 1.103-.641 2.205-1.993 2.205-1.473 0-2.062-1.44-2.062-2.699 0-1.547.754-2.851 2.438-2.851v.87c-1.16 0-1.664.966-1.664 2.01 0 .831.263 1.75 1.259 1.75.945 0 1.111-1.102 1.354-2.205s.563-2.213 1.828-2.213c1.401 0 2.02 1.248 2.02 2.505 0 1.413-.667 2.485-2.185 2.543v-.004m27.03 20.397h-20.929v-27.905h20.929v27.905m-7.67-23.606h3.039c1.764 0 1.764 1.763 1.764 1.763v14.12c0 1.763-1.764 1.763-1.764 1.763v1.964h-2.567v-1.964h-5.458v1.964h-2.568v-1.964c0 0-1.764 0-1.764-1.763v-14.12c0 0 0-1.763 1.764-1.763h9.424m-.132 14.326c.601 0 1.095-.489 1.095-1.093s-.492-1.091-1.095-1.091c-.604 0-1.094.487-1.094 1.091s.487 1.093 1.092 1.093m-8.303 0c.604 0 1.093-.489 1.093-1.093s-.488-1.091-1.093-1.091c-.601 0-1.09.487-1.09 1.091s.49 1.093 1.09 1.093m9.361-3.742v-6.958c0-2.133-2.128-1.864-2.128-1.864h-6.459c0 0-1.765 0-1.765 1.767v7.06h10.354-.002z"/></svg>