<?xml version="1.0" encoding="utf-8"?><svg xmlns="http://www.w3.org/2000/svg" width="40" height="40" viewBox="62 -3 40 40"><path id="home-tools-tripplanner" fill="#077cc0" d="m82-1.5c-7.968 0-14.405 6.461-14.405 14.398 0 1.109.127 2.252.383 3.33.449 1.883 2.129 4.579 3.164 6.21 1.07 1.683 8.08 13.06 11.151 13.06 2.513 0 9.676-10.672 10.753-12.503.98-1.671 2.524-4.886 2.97-6.769.257-1.078.384-2.222.384-3.33-.001-7.939-6.433-14.398-14.4-14.398m.293 23.12c-5.074 0-9.188-4.114-9.188-9.189 0-5.076 4.113-9.188 9.188-9.188s9.187 4.113 9.187 9.188c-.001 5.075-4.113 9.189-9.187 9.189m-.025-13.676c2.342 0 4.242 1.9 4.242 4.244 0 2.342-1.9 4.241-4.242 4.241-2.344 0-4.243-1.899-4.243-4.241 0-2.344 1.9-4.244 4.243-4.244"/></svg>