<svg enable-background="new 180.581 -3 40 40" viewBox="180.581 -3 40 40" xmlns="http://www.w3.org/2000/svg"><path d="m216.461 28.931s-.305 0-.406 0c-.223 0-.223-.27-.223-.27v-18.919c0-.475-.378-.865-.843-.865 0 0-4.892 0-6.521 0-.236 0-.222-.227-.222-.227v-3.647c0-.035.02-.077.136-.077.258 0 .468-.216.468-.481v-.855c0-.265-.21-.481-.468-.481h-15.145c-.258 0-.468.216-.468.481v.855c0 .265.21.481.468.481.136 0 .136.125.136.14v3.499s.023.312-.175.312c-1.761 0-7.044 0-7.044 0-.464 0-.843.39-.843.865v18.978c0 .181-.095.212-.287.212-.249 0-.323 0-.323 0-.258 0-.469.216-.469.479v.999c0 .265.211.481.469.481h31.759c.258 0 .469-.216.469-.481v-.999c.001-.264-.211-.48-.468-.48zm-24.666-2.809c0 .212-.169.384-.375.384h-2.803c-.206 0-.375-.173-.375-.384v-2.88c0-.211.169-.385.375-.385h2.803c.206 0 .375.174.375.385zm0-4.871c0 .21-.169.384-.375.384h-2.803c-.206 0-.375-.173-.375-.384v-2.879c0-.213.169-.385.375-.385h2.803c.206 0 .375.172.375.385zm0-5.051c0 .212-.169.385-.375.385h-2.803c-.206 0-.375-.173-.375-.385v-2.88c0-.21.169-.384.375-.384h2.803c.206 0 .375.174.375.384zm4.051-7.84c0-.212.169-.384.375-.384h2.804c.206 0 .375.173.375.384v2.88c0 .211-.169.385-.375.385h-2.804c-.206 0-.375-.174-.375-.385zm0 5.05c0-.211.169-.386.375-.386h2.804c.206 0 .375.174.375.386v2.878c0 .212-.169.386-.375.386h-2.804c-.206 0-.375-.174-.375-.386zm0 7.751v-2.88c0-.212.169-.385.375-.385h2.804c.206 0 .375.173.375.385v2.88c0 .211-.169.385-.375.385h-2.804c-.206 0-.375-.174-.375-.385zm7.545 7.367c0 .21-.17.383-.376.383h-4.34c-.206 0-.374-.173-.374-.383v-4.458c0-.211.168-.385.374-.385h4.34c.206 0 .376.174.376.385zm2.388-7.367c0 .211-.17.385-.376.385h-2.803c-.207 0-.375-.174-.375-.385v-2.88c0-.212.168-.385.375-.385h2.803c.206 0 .376.173.376.385zm0-4.873c0 .212-.17.386-.376.386h-2.803c-.207 0-.375-.174-.375-.386v-2.878c0-.211.168-.386.375-.386h2.803c.206 0 .376.174.376.386zm0-5.048c0 .211-.17.385-.376.385h-2.803c-.207 0-.375-.174-.375-.385v-2.88c0-.212.168-.384.375-.384h2.803c.206 0 .376.173.376.384zm7.123 14.882c0 .212-.168.384-.375.384h-2.804c-.205 0-.373-.173-.373-.384v-2.88c0-.211.168-.385.373-.385h2.804c.206 0 .375.174.375.385zm0-4.871c0 .21-.168.384-.375.384h-2.804c-.205 0-.373-.173-.373-.384v-2.879c0-.213.168-.385.373-.385h2.804c.206 0 .375.172.375.385zm0-5.051c0 .212-.168.385-.375.385h-2.804c-.205 0-.373-.173-.373-.385v-2.88c0-.21.168-.384.373-.384h2.804c.206 0 .375.174.375.384z" fill="#007fae"/></svg>