<?xml version="1.0" encoding="utf-8"?><svg xmlns="http://www.w3.org/2000/svg" width="40" height="40" viewBox="-133 -3 40 40"><path id="home-tools-transit-tracker" fill="#077cc0" d="m-113-1.5c-10.217 0-18.5 8.282-18.5 18.5s8.283 18.5 18.5 18.5 18.5-8.284 18.5-18.5c0-10.216-8.282-18.5-18.5-18.5m0 31.908c-7.417 0-13.45-6.03-13.45-13.45 0-7.416 6.03-13.45 13.45-13.45 7.416 0 13.45 6.04 13.45 13.45 0 7.416-6.03 13.45-13.45 13.45m.776-18.08c-1.447-.241-2.986.191-4.102 1.308-1.115 1.113-1.546 2.65-1.309 4.099l-3.139 7 7-3.143c1.446.241 2.986-.191 4.101-1.309 1.112-1.113 1.544-2.651 1.305-4.1l3.144-7-7 3.145m.341 5.749c-.616.613-1.619.613-2.233 0-.616-.615-.616-1.617 0-2.234.615-.617 1.618-.617 2.233 0 .614.617.616 1.619 0 2.234m-2.211 10.324h2.188l-1.094-2.434-1.094 2.434m2.188-22.893h-2.188l1.094 2.433 1.094-2.433m7.919 11.446l2.435 1.094v-2.187l-2.435 1.093m-20.459 1.091l2.433-1.091-2.436-1.095.003 2.186"/></svg>