<?xml version="1.0" encoding="utf-8"?><svg xmlns="http://www.w3.org/2000/svg" width="20" height="20" viewBox="0 0 20 20"><g id="legend-pnr-red"><path id="pnr-bdr" fill="#fff" d="M20,15.738C20,18.092,18.092,20,15.738,20H4.262C1.908,20,0,18.092,0,15.738V4.262
		C0,1.908,1.908,0,4.262,0h11.477C18.092,0,20,1.908,20,4.262V15.738z"/><path id="pnr-fill" fill="#cf0a2c" d="m13.952 10.707h-1.415v-5.635c0-1.41 1.415-1.41 1.415-1.41h5.259v7.04h-5.259zm-.62 2.985c.484 0 .873-.391.873-.873 0-.482-.389-.869-.873-.869-.481 0-.872.387-.872.869 0 .482.391.873.872.873m1.828 0c.481 0 .872-.391.872-.873 0-.482-.391-.869-.872-.869-.482 0-.871.387-.871.869 0 .482.389.873.871.873zm-1.208 4.059h-1.415v-1.41c0 0-1.402 0-1.402-1.41s0-11.269 0-11.269 0-1.41 1.402-1.41c1.415 0 5.926 0 5.926 0-1.41-1.41-2.071-1.41-3.479-1.41h-4.934v18.313h4.934c.609 0 3.137.13 4.138-2.815h-5.17v1.411m-7.218-5.636l-.88-2.82h-4.98v2.819h5.86m-.442 2.895c.481 0 .87-.387.87-.869 0-.481-.389-.873-.87-.873-.479 0-.868.391-.868.873 0 .482.388.869.868.869m-2.112 0c.481 0 .875-.387.875-.869 0-.481-.394-.873-.875-.873-.48 0-.873.391-.873.873 0 .482.392.869.873.869zm5.402-14.165h-5.177c-1.802 0-3.606 1.567-3.606 3.609l-.036 3.435h6.125l1.407 4.229v5.635h-2.815v-1.41h-4.594c.582 2.25 2.358 2.815 4.104 2.815h4.592v-18.313"/></g></svg>