<svg height="20" viewBox="0 0 35 20" width="35" xmlns="http://www.w3.org/2000/svg"><path d="m4.806 0c-2.483 0-4.508 2.02-4.508 4.501v10.997c0 2.484 2.025 4.502 4.508 4.502h25.39c2.488 0 4.507-2.018 4.507-4.501v-10.998c-.001-2.481-2.019-4.501-4.508-4.501z" fill="#ffffff"/><path d="m28.19 10.698h-1.405v-5.581c0-1.398 1.405-1.398 1.405-1.398h5.58v6.979zm-.616 2.957c.479 0 .865-.386.865-.863s-.386-.86-.865-.86c-.477 0-.866.383-.866.86s.39.863.866.863m2.186 0c.474 0 .859-.386.859-.863s-.386-.86-.859-.86c-.481 0-.867.383-.867.86s.385.863.867.863zm-1.57 4.02h-1.405v-1.398s-1.386 0-1.386-1.398c0-1.396 0-11.164 0-11.164s0-1.395 1.386-1.395h6.245c-1.398-1.397-2.05-1.397-3.446-1.397h-5.43v18.14h5.43c.602 0 3.108.129 4.101-2.79h-5.494v1.398zm-20.278-5.585-.87-2.792h-5.848v2.792zm-.436 2.868c.477 0 .861-.383.861-.86s-.385-.864-.861-.864c-.477 0-.862.387-.862.864s.384.86.862.86m-2.093 0c.477 0 .865-.383.865-.86s-.388-.864-.865-.864-.865.387-.865.864.388.86.865.86zm5.429-14.04h-6.01c-1.786 0-3.573 1.554-3.573 3.574l-.036 3.406h6.98l1.396 4.187v5.585h-2.789v-1.398h-5.467c.578 2.229 2.339 2.79 4.069 2.79h5.429v-18.14zm9.546 11.07h-1.213c-.084 0-.151.068-.151.153v.536c0 .086.067.153.151.153h1.213c.081 0 .151-.066.151-.153v-.536c.001-.085-.07-.153-.151-.153m-4.543 0h-1.208c-.084 0-.152.068-.152.153v.536c0 .086.067.153.152.153h1.208c.087 0 .153-.066.153-.153v-.536c0-.085-.066-.153-.153-.153m-1.747-5.585v4.714c0 .164.132.3.304.3h6.221c.166 0 .303-.136.303-.3v-4.714c0-.163-.137-.297-.303-.297h-6.221c-.172 0-.304.134-.304.297m4.952-5.484h-3.077l1.542 1.533zm-4.666 4.04v.442c0 .16.136.295.299.295h5.558c.163 0 .299-.135.299-.295v-.442c0-.169-.136-.3-.299-.3h-5.558c-.162 0-.299.131-.299.3m9.297-4.04h-3.682l-2.152 2.156v.543h4.336c.536 0 .942.366.942.771v7.899l-1.443 1.446h-8.31l-1.473-1.472c0-3.521 0-7.639 0-7.873 0-.405.404-.771.937-.771h4.34v-.545l-2.154-2.154h-3.63l-.003 18.14h2.567l1.835-3.041h-.23l-1.916 1.916h-1.01c-.539 0-.737-.331-.737-.666 0-.13 0-1.781 0-4.03l1.273 1.275h8.745l1.208-1.218v3.978c0 .335-.202.666-.738.666h-1.018l-1.917-1.916h-.288l1.967 3.041h2.55v-18.14m-7.488 15.1-1.844 3.041h6.379l-1.967-3.041z" fill="#cf0a2c"/></svg>