<?xml version="1.0" encoding="utf-8"?><svg xmlns="http://www.w3.org/2000/svg" width="20" height="20" viewBox="0 0 20 20"><g id="legend-flex-stop"><path id="flex-fill" fill="#8f288c" d="m10 2.302c-4.249 0-7.701 3.447-7.701 7.699 0 4.253 3.452 7.697 7.701 7.697 4.25 0 7.697-3.444 7.697-7.697 0-4.252-3.447-7.699-7.697-7.699"/><path id="flex-bdr" fill="#fff" d="m10 .5c-5.24 0-9.503 4.262-9.503 9.501 0 5.237 4.263 9.499 9.503 9.499 5.238 0 9.499-4.262 9.499-9.499 0-5.239-4.261-9.501-9.499-9.501m0 17.198c-4.249 0-7.701-3.444-7.701-7.697 0-4.252 3.452-7.699 7.701-7.699 4.25 0 7.697 3.447 7.697 7.699 0 4.253-3.447 7.697-7.697 7.697m1.394-9.653h4.701l-3.788 2.838 1.471 4.505-3.771-2.775-3.771 2.775 1.487-4.505-3.822-2.838h4.687l1.419-4.39 1.387 4.39"/></g></svg>