<svg xmlns="http://www.w3.org/2000/svg" width="20" height="20" viewBox="0 0 20 20" enable-background="new 0 0 20 20"><g id="legend-station-blue"><path id="station-bdr_1_" fill="#fff" d="M15.62,0H4.054C1.69,0,0,1.584,0,3.947v11.596C0,17.905,1.69,20,4.054,20h11.595
		C18.012,20,20,17.905,20,15.542V3.947C20,1.584,17.983,0,15.62,0z"/><path id="station-fill" fill="#0e75bb" d="m19 3.947v11.596c0 1.795-1.429 3.457-3.226 3.457h-11.594c-1.796 0-3.18-1.662-3.18-3.458v-11.595c0-1.796 1.384-2.947 3.18-2.947h11.634c1.795 0 3.186 1.151 3.186 2.947m-11.895 11.149h1.82v-2.276h2.151v2.277h1.82v-10.193h-5.791v10.192m3.301-8.991h1.338v1.338h-1.338v-1.338m0 2.151h1.338v1.338h-1.338v-1.338m0 2.15h1.338v1.338h-1.338v-1.338m-2.15-4.301h1.338v1.338h-1.338v-1.338m0 2.151h1.338v1.338h-1.338v-1.338m0 2.15h1.338v1.338h-1.338v-1.338m5.159-4.589v7.207h.86v2.073h2.027v-9.28h-2.887m1.839 6.228h-1.218v-1.218h1.218v1.218m0-1.958h-1.218v-1.219h1.218v1.219m0-1.958h-1.218v-1.219h1.218v1.219m-11.556 6.967h2.027v-2.073h.86v-7.206h-2.887v9.279m1.048-8.186h1.218v1.218h-1.218v-1.218m0 1.958h1.218v1.218h-1.218v-1.218m0 1.958h1.218v1.218h-1.218v-1.218"/></g></svg>