<?xml version="1.0" encoding="utf-8"?><svg xmlns="http://www.w3.org/2000/svg" width="35" height="20" viewBox="0 0 35 20"><g id="legend-pnr-full-blue"><path id="pnr-bdr" fill="#fff" d="M4.806,0C2.323,0,0.298,2.02,0.298,4.501v10.997C0.298,17.982,2.323,20,4.806,20h25.39
		c2.488,0,4.507-2.018,4.507-4.501V4.501C34.702,2.02,32.684,0,30.195,0H4.806z"/><path id="pnr-fill" fill="#0e75bb" d="m28.19 10.698h-1.405v-5.581c0-1.398 1.405-1.398 1.405-1.398h5.58v6.979h-5.58m-.616 2.957c.479 0 .865-.386.865-.863s-.386-.86-.865-.86c-.477 0-.866.383-.866.86s.39.863.866.863m2.186 0c.474 0 .859-.386.859-.863s-.386-.86-.859-.86c-.481 0-.867.383-.867.86s.385.863.867.863zm-1.57 4.02h-1.405v-1.398c0 0-1.386 0-1.386-1.398 0-1.396 0-11.164 0-11.164s0-1.395 1.386-1.395c1.405 0 6.245 0 6.245 0-1.398-1.397-2.05-1.397-3.446-1.397h-5.43v18.14h5.43c.602 0 3.108.129 4.101-2.79h-5.494v1.398zm-20.278-5.585l-.87-2.792h-5.848v2.792h6.718m-.436 2.868c.477 0 .861-.383.861-.86s-.385-.864-.861-.864c-.477 0-.862.387-.862.864s.384.86.862.86m-2.093 0c.477 0 .865-.383.865-.86s-.388-.864-.865-.864-.865.387-.865.864.388.86.865.86zm5.429-14.04h-6.01c-1.786 0-3.573 1.554-3.573 3.574l-.036 3.406h6.98l1.396 4.187v5.585h-2.79v-1.398h-5.466c.578 2.229 2.339 2.79 4.069 2.79h5.429v-18.14zm9.546 11.07h-1.213c-.084 0-.151.068-.151.153v.536c0 .086.067.153.151.153h1.213c.081 0 .151-.066.151-.153v-.536c.001-.085-.07-.153-.151-.153m-4.542 0h-1.209c-.084 0-.151.068-.151.153v.536c0 .086.067.153.151.153h1.209c.086 0 .152-.066.152-.153v-.536c0-.085-.066-.153-.152-.153m-1.748-5.585v4.714c0 .164.132.3.303.3h6.222c.166 0 .303-.136.303-.3v-4.714c0-.163-.137-.297-.303-.297h-6.222c-.171 0-.303.134-.303.297m4.952-5.484h-3.077l1.542 1.533 1.535-1.533m-4.666 4.04v.442c0 .16.136.295.298.295h5.558c.163 0 .299-.135.299-.295v-.442c0-.169-.136-.3-.299-.3h-5.558c-.162 0-.298.131-.298.3m9.297-4.04h-3.682l-2.152 2.156v.543h4.336c.536 0 .942.366.942.771 0 .234 0 4.375 0 7.899l-1.443 1.446h-8.309l-1.474-1.472c0-3.521 0-7.639 0-7.873 0-.405.404-.771.938-.771h4.339v-.545l-2.154-2.154h-3.63l-.002 18.14h2.566l1.835-3.041h-.23l-1.916 1.916h-1.01c-.539 0-.737-.331-.737-.666 0-.13 0-1.781 0-4.03l1.274 1.275h8.745l1.208-1.218c0 2.262 0 3.847 0 3.978 0 .335-.202.666-.738.666h-1.018l-1.917-1.916h-.288l1.967 3.041h2.55v-18.14zm-7.489 15.1l-1.843 3.041h6.379l-1.967-3.041h-2.569"/></g></svg>