<svg height="20" viewBox="0 0 20 20" width="20" xmlns="http://www.w3.org/2000/svg"><path d="m20 15.738c0 2.354-1.908 4.262-4.262 4.262h-11.476c-2.354 0-4.262-1.908-4.262-4.262v-11.476c0-2.354 1.908-4.262 4.262-4.262h11.477c2.353 0 4.261 1.908 4.261 4.262z" fill="#ffffff"/><path d="m13.952 10.707h-1.415v-5.635c0-1.41 1.415-1.41 1.415-1.41h5.259v7.04h-5.259zm-.62 2.985c.484 0 .873-.391.873-.873s-.389-.869-.873-.869c-.481 0-.872.387-.872.869s.391.873.872.873m1.828 0c.481 0 .872-.391.872-.873s-.391-.869-.872-.869c-.482 0-.871.387-.871.869s.389.873.871.873zm-1.208 4.059h-1.415v-1.41s-1.402 0-1.402-1.41 0-11.269 0-11.269 0-1.41 1.402-1.41h5.926c-1.41-1.41-2.071-1.41-3.479-1.41h-4.934v18.313h4.934c.609 0 3.137.13 4.138-2.815h-5.17zm-7.218-5.636-.88-2.82h-4.98v2.819h5.86m-.442 2.895c.481 0 .87-.387.87-.869 0-.481-.389-.873-.87-.873-.479 0-.868.391-.868.873s.388.869.868.869m-2.112 0c.481 0 .875-.387.875-.869 0-.481-.394-.873-.875-.873-.48 0-.873.391-.873.873s.392.869.873.869zm5.402-14.165h-5.177c-1.802 0-3.606 1.567-3.606 3.609l-.036 3.435h6.125l1.407 4.229v5.635h-2.815v-1.41h-4.594c.582 2.25 2.358 2.815 4.104 2.815h4.592v-18.313" fill="#0e75bb"/></svg>