<?xml version="1.0" encoding="utf-8"?><svg xmlns="http://www.w3.org/2000/svg" width="20" height="20" viewBox="0 0 20 20"><g id="legend-lr-station-red"><path id="lr-station-bdr" fill="#fff" d="m15.857 0h-11.566c-2.363 0-4.332 1.649-4.332 4.01v11.596c0 2.363 1.969 4.392 4.332 4.392h11.596c2.362 0 4.072-2.029 4.072-4.392v-11.596c0-2.363-1.738-4.01-4.102-4.01"/><path id="lr-station-fill" fill="#cf0a2c" d="m6.803 5.828h6.278c.166 0 .303.137.303.304v4.752c0 .167-.137.302-.303.302h-6.278c-.168 0-.302-.134-.302-.302v-4.752c0-.167.134-.304.302-.304m1.461 5.935h-1.223c-.083 0-.151.067-.151.152v.545c0 .084.068.151.151.151h1.223c.084 0 .152-.066.152-.151v-.545c0-.084-.068-.152-.152-.152m4.579 0h-1.225c-.083 0-.151.067-.151.152v.545c0 .084.068.151.151.151h1.225c.083 0 .151-.066.151-.151v-.545c0-.084-.068-.152-.151-.152m-1.751-10.763h-2.295l1.149 1.146 1.146-1.146m4.666 0h-3.705l-1.771 1.776v.544h4.375c.541 0 .95.373.95.781v7.962l-1.46 1.46h-8.376l-1.491-1.486v-7.935c0-.408.406-.781.948-.781h4.375v-.547l-1.772-1.774h-3.707c-1.796 0-3.124 1.216-3.124 3.01v11.596c0 1.796 1.328 3.392 3.124 3.392h2.446l-.231-.144 1.87-3.03h-.235l-1.932 1.93h-1.019c-.541 0-.744-.337-.744-.677v-4.063l1.287 1.285h8.817l1.223-1.224v4c0 .34-.205.677-.749.677h-1.025l-1.933-1.93h-.29l1.999 3.02-.22.147h2.332c1.795 0 3.28-1.596 3.28-3.392v-11.596c0-1.796-1.446-3.01-3.242-3.01m-8.97 3.675v.445c0 .166.135.302.303.302h5.6c.167 0 .304-.136.304-.302v-.445c0-.17-.137-.304-.304-.304h-5.6c-.168 0-.303.133-.303.304m1.818 11.155l-1.958 3.17h6.652l-2.099-3.17h-2.595"/></g></svg>