<svg enable-background="new 0 0 20 20" height="20" viewBox="0 0 20 20" width="20" xmlns="http://www.w3.org/2000/svg"><path d="m15.62 0h-11.566c-2.364 0-4.054 1.584-4.054 3.947v11.596c0 2.362 1.69 4.457 4.054 4.457h11.595c2.363 0 4.351-2.095 4.351-4.458v-11.595c0-2.363-2.017-3.947-4.38-3.947z" fill="#ffffff"/><path d="m19 3.947v11.596c0 1.795-1.429 3.457-3.226 3.457h-11.594c-1.796 0-3.18-1.662-3.18-3.458v-11.595c0-1.796 1.384-2.947 3.18-2.947h11.634c1.795 0 3.186 1.151 3.186 2.947m-11.895 11.149h1.82v-2.276h2.151v2.277h1.82v-10.193h-5.791zm3.301-8.991h1.338v1.338h-1.338zm0 2.151h1.338v1.338h-1.338zm0 2.15h1.338v1.338h-1.338zm-2.15-4.301h1.338v1.338h-1.338zm0 2.151h1.338v1.338h-1.338zm0 2.15h1.338v1.338h-1.338zm5.159-4.589v7.207h.86v2.073h2.027v-9.28zm1.839 6.228h-1.218v-1.218h1.218zm0-1.958h-1.218v-1.219h1.218zm0-1.958h-1.218v-1.219h1.218zm-11.556 6.967h2.027v-2.073h.86v-7.206h-2.887zm1.048-8.186h1.218v1.218h-1.218zm0 1.958h1.218v1.218h-1.218zm0 1.958h1.218v1.218h-1.218z" fill="#0e75bb"/></svg>