<?xml version="1.0" encoding="utf-8"?><svg xmlns="http://www.w3.org/2000/svg" width="20" height="20" viewBox="0 0 20 20"><g id="legend-landmark"><path id="landmark-fill" fill="#00529c" d="m10 6.476c-1.945 0-3.525 1.58-3.525 3.521 0 1.946 1.58 3.528 3.525 3.528s3.525-1.582 3.525-3.528c0-1.942-1.58-3.521-3.525-3.521"/><path id="landmark-bdr" fill="#fff" d="m10 5c-2.758 0-5 2.241-5 4.997 0 2.758 2.244 5 5 5s5-2.245 5-5c0-2.756-2.244-4.997-5-4.997m0 8.524c-1.945 0-3.525-1.582-3.525-3.528 0-1.941 1.58-3.521 3.525-3.521s3.525 1.58 3.525 3.521c0 1.946-1.58 3.528-3.525 3.528"/></g></svg>