<svg xmlns="http://www.w3.org/2000/svg" width="20.565" height="20" viewBox="0 0 20.565 20" enable-background="new 0 0 20.565 20"><g id="legend-station-red"><path id="station-bdr" fill="#fff" d="M15.851,0H4.284C1.921,0,0.231,1.584,0.231,3.947v11.596c0,2.363,1.69,4.458,4.054,4.458
		h11.595c2.363,0,4.352-2.095,4.352-4.458V3.947C20.231,1.584,18.214,0,15.851,0z"/><path id="station-fill_1_" fill="#cf0a2c" d="m19.282 3.947v11.596c0 1.796-1.429 3.458-3.226 3.458h-11.594c-1.796 0-3.18-1.662-3.18-3.458v-11.596c0-1.796 1.384-2.947 3.18-2.947h11.634c1.796 0 3.186 1.151 3.186 2.947m-11.947 11.149h1.82v-2.276h2.151v2.277h1.82v-10.193h-5.791v10.192m3.302-8.991h1.338v1.338h-1.338v-1.338m0 2.151h1.338v1.338h-1.338v-1.338m0 2.15h1.338v1.338h-1.338v-1.338m-2.151-4.301h1.338v1.338h-1.338v-1.338m0 2.151h1.338v1.338h-1.338v-1.338m0 2.15h1.338v1.338h-1.338v-1.338m5.16-4.589v7.207h.86v2.073h2.027v-9.28h-2.887m1.838 6.228h-1.218v-1.218h1.218v1.218m0-1.958h-1.218v-1.219h1.218v1.219m0-1.958h-1.218v-1.219h1.218v1.219m-11.555 6.967h2.027v-2.073h.86v-7.206h-2.887v9.279m1.048-8.186h1.218v1.218h-1.218v-1.218m0 1.958h1.218v1.218h-1.218v-1.218m0 1.958h1.218v1.218h-1.218v-1.218"/></g></svg>