<svg height="20" viewBox="0 0 20 20" width="20" xmlns="http://www.w3.org/2000/svg"><path d="m15.913 0h-11.566c-2.364 0-4.388 1.583-4.388 3.947v11.596c0 2.363 2.024 4.458 4.388 4.458h11.595c2.363 0 4.018-2.095 4.018-4.458v-11.596c-.001-2.364-1.684-3.947-4.047-3.947z" fill="#ffffff"/><path d="m14.185 12.453c0 .354-.287.639-.641.639s-.641-.285-.641-.639.286-.639.641-.639c.353 0 .641.285.641.639m-2.154-.639c-.354 0-.639.285-.639.639s.285.639.639.639.64-.285.64-.639-.286-.639-.64-.639m-4.191 0c-.353 0-.639.285-.639.639s.286.639.639.639c.354 0 .641-.285.641-.639s-.287-.639-.641-.639m-1.513 0c-.353 0-.639.285-.639.639s.286.639.639.639c.354 0 .641-.285.641-.639s-.286-.639-.641-.639m12.714-7.867v11.596c0 1.796-1.429 3.458-3.226 3.458h-11.594c-1.796 0-3.18-1.662-3.18-3.458v-11.596c0-1.796 1.384-2.947 3.18-2.947h11.634c1.795 0 3.186 1.151 3.186 2.947m-3.353.305s0-1.261-1.261-1.261h-.839-1.335-6.598c-1.262 0-1.262 1.261-1.262 1.261v10.09c0 1.261 1.262 1.261 1.262 1.261v1.403h1.836v-1.403h1.754.729 2.615v1.403h1.838v-1.403s1.261 0 1.261-1.261zm-2.956 0h-5.815s-1.262 0-1.262 1.261v5.04h1.262 7.335v-4.974c0-1.524-1.52-1.332-1.52-1.332" fill="#cf0a2c"/></svg>