<?xml version="1.0" encoding="utf-8"?><svg xmlns="http://www.w3.org/2000/svg" width="53.33" height="41.38" viewBox="0 0 53.334 41.375" enable-background="new 0 0 53.334 41.375"><path id="nav-parknride" fill="#077cc0" d="m53.25 19.11c-.279-1.67-1.312-3.07-2.74-3.863-.785-.438-1.677-.706-2.643-.706h-.143l-.097-.261-1.352-3.557-1.09-2.864-.957-2.512-.801-2.115c-.02-.049-.052-.095-.072-.148-.129-.297-.297-.583-.502-.856-.381-.52-.873-.98-1.435-1.344-.806-.52-1.731-.848-2.625-.848h-24.24c-1.72 0-3.579 1.193-4.407 2.74-.03.055-.058.11-.083.168-.048.095-.105.192-.143.288l-4.296 11.309h-.145c-3.02 0-5.472 2.445-5.472 5.466v10.938c0 1.514 1.227 2.738 2.733 2.738h1.906v4.223c0 1.904 1.542 3.445 3.444 3.445h3.303c1.902 0 3.448-1.541 3.448-3.445v-4.223h23.665v4.223c0 1.904 1.537 3.445 3.442 3.445h3.3c1.909 0 3.451-1.541 3.451-3.445v-4.223h1.902c1.313 0 2.416-.935 2.675-2.18.032-.178.057-.371.057-.561v-10.935c0-.194-.036-.381-.057-.573-.011-.11-.012-.217-.03-.324m-39.32 5.951c0 .95-.772 1.722-1.72 1.722h-4.916c-.946 0-1.723-.771-1.723-1.722v-1.898c0-.566.28-1.066.706-1.381.128-.094.27-.168.416-.227.188-.07.39-.115.601-.115h4.916c.208 0 .408.043.597.115.151.057.293.129.417.227.427.314.706.814.706 1.381v1.898m-4.04-10.52l3.243-8.532.069-.184.442-1.167c.114-.249.65-.617.912-.637h24.23c.272.022.802.388.914.625l.108.289.789 2.074.828 2.183 2.033 5.35h-33.57m37.891 10.52c0 .95-.771 1.722-1.723 1.722h-4.908c-.952 0-1.725-.771-1.725-1.722v-1.898c0-.566.279-1.066.703-1.381.128-.094.27-.17.419-.227.188-.07.392-.115.603-.115h4.908c.211 0 .41.043.598.115.154.057.297.133.423.229.427.316.702.814.702 1.38v1.897"/></svg>