<?xml version="1.0" encoding="utf-8"?><svg version="1.1" id="Layer_1" xmlns="http://www.w3.org/2000/svg" xmlns:xlink="http://www.w3.org/1999/xlink" x="0px" y="0px"
     width="28.453px" height="51.969px" viewBox="0 0 28.453 51.969" enable-background="new 0 0 28.453 51.969" xml:space="preserve">
<path id="nav-fares" fill="#077cc0" d="M12.215,39.569V27.521c-3.757-1.071-6.513-2.695-8.267-4.871
    c-1.754-2.174-2.632-4.814-2.632-7.92c0-3.144,0.992-5.783,2.976-7.921c1.985-2.138,4.625-3.37,7.922-3.694V0.269h4.17v2.847
    c3.044,0.363,5.471,1.401,7.272,3.116c1.804,1.716,2.952,4.012,3.451,6.887l-7.276,0.948c-0.441-2.262-1.59-3.795-3.447-4.599
    v11.235c4.599,1.247,7.734,2.861,9.398,4.847c1.67,1.984,2.503,4.527,2.503,7.633c0,3.469-1.051,6.395-3.15,8.768
    c-2.097,2.379-5.016,3.835-8.753,4.373V51.7h-4.168v-5.236c-3.318-0.397-6.008-1.637-8.081-3.708
    c-2.069-2.067-3.392-4.994-3.965-8.767l7.502-0.807c0.307,1.533,0.88,2.854,1.727,3.968c0.842,1.111,1.781,1.919,2.818,2.414
     M12.215,9.378c-1.134,0.383-2.03,1.035-2.703,1.956c-0.673,0.92-1.007,1.935-1.007,3.045c0,1.016,0.306,1.959,0.917,2.831
    c0.613,0.872,1.543,1.575,2.791,2.114V9.375L12.215,9.378z M16.382,39.968c1.439-0.266,2.61-0.933,3.508-1.994
    c0.901-1.066,1.354-2.319,1.354-3.758c0-1.282-0.381-2.389-1.134-3.318c-0.76-0.932-2.002-1.646-3.728-2.143v11.217"/>
</svg>
