<?xml version="1.0" encoding="utf-8"?><svg xmlns="http://www.w3.org/2000/svg" width="53.19" height="53.19" viewBox="0 0 53.188 53.188" enable-background="new 0 0 53.188 53.188"><path id="nav-parking" fill="#037fae" d="m34.56 17.643c.696.768 1.044 1.745 1.044 2.928 0 .962-.247 1.806-.745 2.53-.493.723-1.179 1.255-2.05 1.595-.876.34-2.604.51-5.191.51h-3.595v-9.227h3.173c2.367 0 3.938.074 4.724.221 1.066.192 1.945.676 2.64 1.443m18.239 8.951c0 14.475-11.73 26.2-26.2 26.2-14.474 0-26.2-11.73-26.2-26.2 0-14.474 11.731-26.2 26.2-26.2 14.475 0 26.2 11.731 26.2 26.2m-10.433-6.111c0-2.587-.627-4.698-1.884-6.332-1.257-1.636-2.816-2.696-4.68-3.184-1.215-.325-3.816-.489-7.809-.489h-10.536v32.521h6.565v-12.268h4.282c2.973 0 5.241-.154 6.808-.464 1.156-.254 2.288-.766 3.406-1.541 1.116-.778 2.038-1.845 2.763-3.207.727-1.362 1.085-3.04 1.085-5.04"/></svg>