<?xml version="1.0" encoding="utf-8"?><svg xmlns="http://www.w3.org/2000/svg" width="59.19" viewBox="0 0 59.188 51.479" enable-background="new 0 0 59.188 51.479"><path id="nav-bikenride" fill="#037fae" d="m.401 38.989c0-6.679 5.41-12.09 12.09-12.09 6.68 0 12.09 5.414 12.09 12.09 0 6.673-5.408 12.09-12.09 12.09-6.68-.001-12.09-5.416-12.09-12.09m3.181 0c.011 4.917 3.987 8.895 8.909 8.906 4.915-.012 8.897-3.989 8.906-8.906-.009-4.922-3.991-8.899-8.906-8.909-4.922.011-8.897 3.987-8.909 8.909m31.02 0c0-6.679 5.412-12.09 12.09-12.09 6.676 0 12.09 5.414 12.09 12.09 0 6.673-5.414 12.09-12.09 12.09-6.681-.001-12.09-5.418-12.09-12.09m3.183 0c.01 4.917 3.987 8.895 8.909 8.903 4.919-.009 8.893-3.986 8.903-8.903-.011-4.92-3.984-8.899-8.903-8.906-4.921.008-8.899 3.988-8.909 8.906m-11.268 2.467v-10.4l-7.63-7.556c-.577-.575-.898-1.343-.898-2.155-.007-.814.31-1.585.89-2.16l7.766-7.771c.566-.568 1.355-.887 2.155-.887.803 0 1.585.322 2.153.887l5.602 5.608h7.841c1.679 0 3.041 1.359 3.041 3.042 0 1.676-1.362 3.042-3.041 3.042h-9.104c-.805 0-1.575-.319-2.148-.894l-4.347-4.34-3.453 3.455 6.358 6.3c.58.567.905 1.348.905 2.159l.003 11.669c0 1.681-1.361 3.042-3.045 3.042-1.684.001-3.048-1.36-3.048-3.041m17.18-34.934c.057-3.382-3.446-6.122-6.58-6.122-1.854 0-3.492.896-4.527 2.274l10.776 5.743c.21-.593.323-1.227.331-1.895m-1.407 2.942l-4.514-2.42-.029 4.913c1.908-.009 3.578-1 4.543-2.493m-9.574-5.136c-.292.668-.457 1.405-.457 2.181 0 2.573 1.784 4.723 4.179 5.296l.034-5.46-3.756-2.02"/></svg>