<svg xmlns="http://www.w3.org/2000/svg" width="41.31" height="61.34" viewBox="0 0 41.31 61.34" enable-background="new 0 0 41.31 61.34"><path fill="#037fae" d="m22.524-.005h-.003v1.351 2.381 6.095 4.943 9.975h6.515 5.249 7.03v-24.745h-18.791m17.809 23.764h-6.05-5.249-5.535v-8.995-4.944-7.102-1.105-.636h16.831v22.782h.002m-15.28-13.939v1.757h9.12 4.102v-9.137h-13.222v7.38m3.91 0v-6.53h3.217c1.937 0 3.39 1.212 3.39 3.691 0 1.706-.698 3.055-2.109 3.554-.377.133-.798.22-1.281.22h-3.217v-.935m3.102-.445h-1.462v-4.705h1.171c1.63 0 2.156.963 2.156 2.467 0 1.653-.913 2.238-1.865 2.238m2.219 4.02h3.977v1.021h-3.977-8.857v-1.021h8.857m0 2.173h3.977v1.021h-3.977-5.249-3.609v-1.021h3.557 5.301m0 2.17h3.977v1.023h-3.977-5.249-3.609v-1.023h3.609 5.249m0 2.173h3.977v1.021h-3.977-5.249-3.609v-1.021h3.609 5.249m-6.891 8.06h-20.508c-1.259 0-2.279-1.02-2.279-2.279v-13.672c0-1.259 1.02-2.279 2.279-2.279h13.635v-5.063h-15.914c-2.517 0-4.557 2.04-4.557 4.557v36.46c0 2.517 2.04 4.557 4.557 4.557h3.963l-6.968 8.496 1.958 1.606 1.01-1.228h25.14l1.01 1.228 1.958-1.606-6.968-8.496h3.963c2.517 0 4.557-2.04 4.557-4.557v-18.948h-4.827c-.38.725-1.131 1.224-2.01 1.224m-15.549 22.281h10.59l1.308 1.595h-13.206l1.308-1.595m-4.689-9.474c-1.59 0-2.878-1.289-2.878-2.878 0-1.59 1.289-2.878 2.878-2.878 1.59 0 2.878 1.289 2.878 2.878 0 1.59-1.288 2.878-2.878 2.878m18.643 13.601v-.024l1.837 2.24h-20.992l1.837-2.24v.024h17.318m1.325-13.601c-1.59 0-2.878-1.289-2.878-2.878 0-1.59 1.289-2.878 2.878-2.878s2.878 1.289 2.878 2.878c0 1.59-1.289 2.878-2.878 2.878"/></svg>