<svg xmlns="http://www.w3.org/2000/svg" width="64.07" height="61.921" viewBox="0 0 64.069 61.921" enable-background="new 0 0 64.069 61.921"><path fill="#077cc0" d="m61.961 51.32c1.914 1.914 1.914 5.02 0 6.931-1.914 1.914-5.02 1.914-6.931 0l-15.693-15.694-1.253-4.718-2.601-2.601 3.465-3.465 2.601 2.601 4.718 1.253 15.694 15.693m-38.12-34.653l-3.465 3.465 8.486 8.486 3.465-3.465-8.486-8.486m-16.619 6.224l2.334-2.334c.386-.386.428-.816-.048-1.292-.196-.196-.965-.57.768-2.303 0 0 .438.438.915.915.866.866.915.915 2.647-.818l3.33 3.33 6.849-7.01-4.981-4.981c-.094-.094-.217-.151-.343-.208 1.894-1.138 5.912-2.388 13.499-.203-10.425-10.423-23.25-.674-23.59-.336l-1.732 1.733c-1.551 1.551-1.923 2.252-1.026 3.15.476.476.965.965.965.965-1.733 1.733-2.332.738-2.549.521-.476-.476-1.019-1.01-1.636-.392l-2.334 2.334c-.391.391-.391 1.024 0 1.414l5.516 5.517c.392.39 1.025.39 1.416 0m50.52-20.09l-8.691 5.17-5.17 8.691.045.045-10.02 10.02-3.465 3.465-5.687 5.687-1.755-1.755-3.443 3.488-13.746 13.745c-1.936 1.936-1.914 5.085.064 6.993.93.897 2.133 1.332 3.343 1.332 1.317 0 2.644-.515 3.638-1.51l13.631-13.631 3.485-3.445-1.752-1.752 5.687-5.687 3.465-3.465 10.02-10.02.009.009 8.691-5.17 5.17-8.691-3.519-3.519"/></svg>