<svg xmlns="http://www.w3.org/2000/svg" width="36.03" height="63.16" viewBox="0 0 36.031 63.16" enable-background="new 0 0 36.031 63.16"><path fill="#027fad" d="m31.14 2.417h-26.26c-2.637 0-4.774 2.138-4.774 4.774v38.2c0 2.637 2.138 4.774 4.774 4.774h4.152l-7.299 8.901 2.051 1.682 1.055-1.287h26.341l1.055 1.287 2.051-1.682-7.299-8.901h4.152c2.637 0 4.774-2.138 4.774-4.774v-38.2c0-2.637-2.137-4.774-4.774-4.774m-26.26 7.692c0-1.318 1.069-2.387 2.387-2.387h21.485c1.318 0 2.387 1.069 2.387 2.387v14.323c0 1.318-1.069 2.387-2.387 2.387h-21.485c-1.318 0-2.387-1.069-2.387-2.387v-14.323m-.345 27.11c0-1.665 1.35-3.02 3.02-3.02s3.02 1.35 3.02 3.02c0 1.665-1.35 3.02-3.02 3.02s-3.02-1.35-3.02-3.02m22.546 17.238l1.924 2.347h-21.991l1.924-2.347v.026h18.14v-.026zm-2.155-2.627h-13.833l1.37-1.671h11.09l1.369 1.671m3.542-11.596c-1.665 0-3.02-1.35-3.02-3.02 0-1.665 1.35-3.02 3.02-3.02 1.665 0 3.02 1.35 3.02 3.02.001 1.665-1.349 3.02-3.02 3.02"/></svg>