<?xml version="1.0" encoding="utf-8"?><svg xmlns="http://www.w3.org/2000/svg" height="50.23" viewBox="0 0 32.766 50.234" enable-background="new 0 0 32.766 50.234"><path id="nav-systemmap" fill="#077cc0" d="m16.385.364c-8.919 0-16.12 7.232-16.12 16.12 0 1.237.143 2.52.429 3.726.501 2.106 1.464 4.204 2.791 5.92 1.365 1.768 2.908 3.303 4.459 5.04 4.728 5.318 5.523 10.195 6.12 16.4.132 1.368 1.155 2.298 2.323 2.298s2.191-.93 2.322-2.298c.598-6.203 1.393-11.08 6.121-16.4 1.551-1.742 3.094-3.277 4.459-5.04 1.329-1.716 2.288-3.814 2.791-5.92.288-1.207.429-2.489.429-3.726-.002-8.889-7.199-16.12-16.12-16.12m-.027 23.12c-3.862 0-6.991-3.129-6.991-6.991 0-3.86 3.129-6.991 6.991-6.991 3.86 0 6.993 3.131 6.993 6.991 0 3.862-3.133 6.991-6.993 6.991"/></svg>