<svg xmlns="http://www.w3.org/2000/svg" width="60" height="60" viewBox="0 0 60 60" enable-background="new 0 0 60 60"><path id="nav-fastracks_1_" fill="#077cc0" d="m14.885 31.427c.357-.104.78-.134 1.01-.29.038 1.109-.222 1.586-1 1.586-.365 0-.683-.177-.683-.612.001-.425.309-.591.674-.684m17.996.691c0 .435.317.612.682.612.78 0 1.039-.476 1-1.586-.23.156-.654.186-1.01.29-.365.093-.673.258-.673.684m27.12-2.118c0 16.568-13.431 30-30 30-16.569 0-30-13.431-30-30 0-16.568 13.431-30 30-30 16.569 0 30 13.432 30 30m-47.776-.76h-2.828v-1.513h3.272v-1.545h-5.06v7.402h1.789v-2.851h2.828v-1.493zm5.441 4.416c-.193-.425-.193-.923-.193-1.379v-2.353c0-1.523-1.143-1.803-2.328-1.803-.566 0-1.144.104-1.587.373-.442.279-.75.736-.778 1.441h1.529c.077-.456.366-.674.818-.674.337 0 .788.156.788.559 0 .332-.153.437-.431.498-1.137.25-2.906.114-2.906 1.866 0 1.109.75 1.627 1.703 1.627.596 0 1.222-.186 1.645-.663.02.176.04.342.096.508h1.644m5.242-1.781c0-.446-.26-1.234-1.269-1.451-.751-.176-1.848-.269-1.848-.778 0-.372.433-.404.703-.404.202 0 .384.041.521.134.135.094.211.239.211.467h1.51c-.059-1.4-1.202-1.741-2.299-1.741-.981 0-2.28.352-2.28 1.648 0 1.451 1.289 1.483 2.318 1.761.289.073.799.156.799.571 0 .424-.451.57-.769.57-.231 0-.452-.062-.607-.187-.162-.134-.268-.331-.268-.601h-1.559c.048 1.503 1.26 1.928 2.443 1.928 1.125.001 2.394-.476 2.394-1.917m2.889-3.982h2.05v-1.658h-5.888v1.658h2.049v5.743h1.789v-5.743m5.171.246c-.125-.031-.259-.041-.385-.041-.702 0-1.26.363-1.5 1.047h-.02v-.943h-1.587v5.379h1.635v-2.664c0-.674.423-1.275 1.232-1.275.222 0 .413.042.625.105v-1.608m5.369 5.523c-.194-.425-.194-.922-.194-1.379v-2.353c0-1.523-1.145-1.803-2.328-1.803-.568 0-1.145.104-1.589.373-.441.28-.749.737-.778 1.441h1.529c.078-.456.367-.674.819-.674.337 0 .788.155.788.56 0 .331-.153.435-.432.498-1.135.248-2.907.114-2.907 1.865 0 1.109.75 1.628 1.703 1.628.597 0 1.221-.186 1.644-.664.021.177.039.342.097.508h1.648m5.489-2.159h-1.587c-.078.569-.366.922-.932.922-.694 0-.973-.715-.973-1.41 0-.746.144-1.586 1.059-1.586.413 0 .788.322.798.778h1.587c-.115-1.421-1.222-2.125-2.462-2.125-1.608 0-2.617 1.223-2.617 2.933 0 1.649 1.116 2.757 2.617 2.757 1.327.001 2.365-.829 2.51-2.269m5.844 2.096l-2.057-3.347 1.827-2.033h-1.896l-1.491 1.794v-3.815h-1.636v7.401h1.636v-1.72l.423-.446 1.223 2.167h1.971m4.724-1.726c0-.446-.26-1.234-1.271-1.45-.75-.177-1.847-.271-1.847-.778 0-.373.434-.404.703-.404.202 0 .384.041.519.134.135.094.212.239.212.467h1.511c-.058-1.4-1.203-1.742-2.3-1.742-.981 0-2.28.353-2.28 1.649 0 1.451 1.289 1.482 2.319 1.762.288.073.798.155.798.57 0 .425-.451.57-.77.57-.23 0-.451-.062-.605-.186-.164-.135-.269-.332-.269-.601h-1.559c.047 1.502 1.259 1.927 2.443 1.927 1.124 0 2.396-.477 2.396-1.918"/></svg>