<?xml version="1.0" encoding="utf-8"?><svg xmlns="http://www.w3.org/2000/svg" width="48" height="55" viewBox="0 0 48 55" enable-background="new 0 0 48 55"><path id="nav-accessibility" fill="#037fae" d="m17.15 20.22l11.658.005v4.271l-11.229-.004.211 2.886 15.514-.103 6.621 15.285 5.03-1.814 1.391 3.312-8.983 3.524-6.842-16.03-16.685-.006-1.62-22.793c-.355-.658-.568-1.439-.568-2.203-.001-2.504 2.042-4.546 4.546-4.546 2.503 0 4.545 2.042 4.545 4.546 0 2.326-1.794 4.316-4.103 4.529l.516 9.145m13.298 17.473c-.714 6.03-5.938 10.737-12.07 10.737-6.698 0-12.163-5.464-12.163-12.161 0-4.134 2.137-8.08 5.607-10.262l-.38-4.952c-5.863 2.672-9.793 8.697-9.793 15.179 0 9.234 7.532 16.766 16.766 16.766 6.285 0 12.181-3.668 14.996-9.234l-2.966-6.073"/></svg>