<?xml version="1.0" encoding="utf-8"?><svg xmlns="http://www.w3.org/2000/svg" width="33.05" viewBox="0 0 33.047 53.75" enable-background="new 0 0 33.047 53.75"><path id="nav-howtoride" fill="#037fae" d="m2.85 38.32c1.063 4.738 5.133 7.804 9.212 7.804h8.394c2.978 0 2.992-4.491-.041-4.491h-7.691c-2.784 0-5.081-1.655-5.773-4.755l-2.479-12.159c-.613-2.953-4.766-1.99-4.237.893l2.615 12.708m7.919-38.01c3.995 0 7.236 3.238 7.236 7.235 0 3.998-3.241 7.238-7.236 7.238-3.998 0-7.238-3.24-7.238-7.238 0-3.997 3.24-7.235 7.238-7.235m-5.501 23.275l2.358 11.812c.571 2.847 2.85 5.344 6.489 5.344h11.07c0 0 0 3.528 0 8.59 0 5.46 7.67 5.482 7.67.098v-13.509c0-2.639-1.854-5.49-5.417-5.49l-7.692-.024-1.834-9.162c-1.939-8.515-13.947-5.987-12.648 2.341"/></svg>