<?xml version="1.0" encoding="utf-8"?><svg xmlns="http://www.w3.org/2000/svg" width="68.16" viewBox="0 0 68.164 60.91" enable-background="new 0 0 68.164 60.91"><path id="nav-discounts" fill="#037fae" d="m39.24 18.771c1.189-1.757 3.137-4.609 4.987-7.194l4.708 5.151c-2.01.302-3.864.778-5.456 1.663l-2.878 1.6c-.339-.517-.811-.929-1.361-1.22m1.781 2.135c.113.353.188.719.188 1.109 0 2.035-1.648 3.686-3.684 3.686-2.037 0-3.687-1.65-3.687-3.686 0-2.035 1.649-3.686 3.687-3.686.258 0 .506.027.748.076 1.201-1.775 3.295-4.844 5.259-7.586l-1.678-1.835-10.532-.38-30.751 31.664c-.776.794-.762 2.067.031 2.842l15.749 17.228c.791.777 2.063.761 2.84-.032l31.779-32.719-.394-9.07-.82-.895c-2.167.282-4.153.739-5.788 1.646l-2.947 1.635"/></svg>