<?xml version="1.0" encoding="utf-8"?><svg version="1.1" id="Layer_1" xmlns="http://www.w3.org/2000/svg" xmlns:xlink="http://www.w3.org/1999/xlink" x="0px" y="0px"
     width="35.396px" height="49.141px" viewBox="0 0 35.396 49.141" enable-background="new 0 0 35.396 49.141" xml:space="preserve">
<path id="nav-bus" fill="#077cc0" d="M23.352,0.018h7.613c4.415,0,4.415,4.418,4.415,4.418v35.352c0,4.415-4.415,4.415-4.415,4.415
    v4.916h-6.434v-4.916h-4.969h-2.558h-6.142v4.916h-6.43v-4.916c0,0-4.42,0-4.42-4.415V4.436c0,0,0-4.418,4.42-4.418h23.595
     M27.708,35.892c1.511,0,2.736-1.222,2.736-2.732c0-1.514-1.227-2.729-2.736-2.729c-1.515,0-2.734,1.216-2.734,2.729
    C24.972,34.67,26.193,35.892,27.708,35.892 M6.917,35.892c1.515,0,2.736-1.222,2.736-2.732c0-1.514-1.223-2.729-2.736-2.729
    c-1.508,0-2.729,1.216-2.729,2.729C4.187,34.67,5.409,35.892,6.917,35.892 M30.354,26.526V9.101c0-5.341-5.324-4.665-5.324-4.665
    H8.852c0,0-4.418,0-4.418,4.418v17.673h4.418L30.354,26.526L30.354,26.526z"/>
</svg>
