<?xml version="1.0" encoding="utf-8"?><svg xmlns="http://www.w3.org/2000/svg" height="57.56" viewBox="0 0 47 57.562" enable-background="new 0 0 47 57.562"><path id="nav-schedule-skyride" fill="#077cc0" d="m26.19 37.519v11.163l4.813 3.764v4.366l-7.421-2.308-7.423 2.308v-4.366l4.763-3.764v-11.163l-20.81 6.854v-5.518l20.608-12.569v-15.04c.009-3.378 4.832-3.542 5.32-.42v15.659h.384l20.576 12.367v5.518l-20.81-6.854m20.789-12.753h-18.809v-24.766h18.809v24.766m-.984-23.783h-16.845v22.802h16.845v-22.802m-11.181 4.483l-.896 2.527h1.784l-.868-2.527h-.02m9.124 6.127h-13.232v-9.145h13.231v9.145zm-5.746-.937l-2.577-6.889h-1.554l-2.604 6.889h1.524l.542-1.534h2.574l.521 1.534h1.574m4.814-6.888h-5.644v1.274h2.063v5.615h1.516v-5.615h2.064v-1.274m-11.925 10.661h12.844v-1.023h-12.844v1.023m0 2.175h12.844v-1.021h-12.844v1.021m0 2.175h12.844v-1.021h-12.844v1.021m0 2.172h12.844v-1.023h-12.844v1.023"/></svg>