<?xml version="1.0" encoding="utf-8"?><svg xmlns="http://www.w3.org/2000/svg" height="59.13" viewBox="0 0 40.271 59.125" enable-background="new 0 0 40.271 59.125"><path id="nav-schedule-bus" fill="#077cc0" d="m30.359 36.521h-21.511-4.418v-17.678c0-4.42 4.418-4.42 4.418-4.42h10.469v-4.418h-14.887c-4.423 0-4.423 4.418-4.423 4.418v35.36c0 4.415 4.423 4.415 4.423 4.415v4.92h6.432v-4.92h6.143 2.559 4.97v4.92h6.437v-4.92c0 0 4.416 0 4.416-4.415v-22.842h-5.03v9.576m-23.447 9.372c-1.508 0-2.729-1.224-2.729-2.734 0-1.515 1.222-2.729 2.729-2.729 1.515 0 2.737 1.215 2.737 2.729 0 1.51-1.222 2.734-2.737 2.734m20.8 0c-1.516 0-2.737-1.224-2.737-2.734 0-1.515 1.222-2.729 2.737-2.729 1.51 0 2.736 1.215 2.736 2.729 0 1.51-1.227 2.734-2.736 2.734m-6.265-45.893v10.01 4.418 10.36h8.911 5.03 4.885v-24.783h-18.823m17.84 23.802h-3.901-5.03-7.926v-9.379-4.418-9.02h16.854v22.821m-2.058-12.201v-9.153h-13.24v7.557 1.596h10.464 2.776m-9.174-1.375v-.221-4.412c-.448.42-.979.73-1.589.933v-1.117c.32-.104.67-.303 1.044-.596.377-.293.637-.635.776-1.025h.997v6.217.221h-1.228m2.059 0c.009-.076.036-.148.048-.221.067-.351.178-.688.372-1.01.232-.386.694-.898 1.381-1.538.555-.515.894-.866 1.021-1.051.171-.251.254-.504.254-.751 0-.272-.072-.485-.222-.63-.148-.15-.354-.221-.609-.221-.254 0-.457.076-.612.231-.152.155-.24.411-.261.769l-1.227-.12c.072-.677.303-1.164.686-1.458.386-.295.869-.441 1.444-.441.634 0 1.132.17 1.493.51.361.342.541.767.541 1.273 0 .289-.054.563-.155.825-.102.258-.267.536-.489.819-.149.189-.42.462-.808.82-.389.356-.634.591-.737.707-.104.118-.189.231-.249.342h2.438v1.143h-1.908-2.401zm5.142 3.192h1.96v1.021h-1.83-9.05-1.979v-.016-1.01h10.895m.129 2.173h1.83v1.023h-1.83-5.554-5.472v-1.023h4.705 6.321m0 2.176h1.83v1.023h-1.83-5.05-5.979v-1.023h5.857 5.168m0 2.175h1.83v1.023h-1.83-5.03-5.998v-1.023h5.998 5.03"/></svg>