<?xml version="1.0" encoding="utf-8"?><svg version="1.1" id="Layer_1" xmlns="http://www.w3.org/2000/svg" xmlns:xlink="http://www.w3.org/1999/xlink" x="0px" y="0px"
     width="32.969px" height="48.281px" viewBox="0 0 32.969 48.281" enable-background="new 0 0 32.969 48.281" xml:space="preserve">
<path id="nav-mobile" fill="#077cc0" d="M27.91,0.655c-7.592-0.828-15.249-0.828-22.84,0c-2.785,0.32-5.05,2.979-5.05,5.744
    c0,11.825,0,23.648,0,35.471c0,2.771,2.265,5.428,5.05,5.745c7.591,0.826,15.249,0.826,22.84,0c2.785-0.317,5.049-2.975,5.049-5.745
    c0-11.822,0-23.646,0-35.471C32.959,3.634,30.695,0.973,27.91,0.655z M19.277,44.455c0,0.559-0.457,1.013-1.014,1.013h-3.548
    c-0.558,0-1.013-0.454-1.013-1.013v-3.548c0-0.558,0.455-1.013,1.013-1.013h3.548c0.557,0,1.014,0.455,1.014,1.013V44.455z
     M28.758,36.361c0,0.559-0.455,1.017-1.016,1.017H5.238c-0.56,0-1.016-0.458-1.016-1.017V5.893c0-0.559,0.456-1.013,1.016-1.013
    h22.504c0.561,0,1.016,0.454,1.016,1.013V36.361z"/>
</svg>
