<?xml version="1.0" encoding="utf-8"?><svg xmlns="http://www.w3.org/2000/svg" width="54.13" height="54.13" viewBox="0 0 54.125 54.125" enable-background="new 0 0 54.125 54.125"><path id="nav-smartcard" fill="#077cc0" d="m41.893 34.648c.79-.155 1.115-.145 1.118-.143l.566 1.537-1.832.646c0 0-.28.21-1.046.086-.661-.106-3.753-1.785-3.753-1.785s-1.203-.815-.104-1.664c.547-.422.614-.276.614-.276s1.652 1.324 2.402 1.559c1.104.337 1.556.135 2.035.04m-6.106-4.24c.779.641 3.959 2.991 3.959 2.991s.803.413 1.672.285c.819-.121.973-.206.973-.206s-.365-.439-.805-.836c-.445-.396-4.762-3.921-4.762-3.921s-.703-.337-.974 0c-.267.338-.397.54-.397.54s-.445.505.334 1.147m9.73-8.697c0 0-1.223-.118-2.067-.12-.842-.002-2.73.002-2.73.002l-.46 1.781 5.986 3.449-.403.835-10.539-5.836c0 0-.978-.683-1.743-.277-.702.372-.919.775-.919.775s-.517.87-.006 1.456c.384.439.223.256.941.891.48.426.646.54.646.54l8.212 6.781c0 0 1.407 1.261 2.111 3.084.7 1.822.7 1.822.7 1.822s1.058 1.863 2.651 2.387c1.59.521 2.732.703 2.741.705 1.384-2.521 2.371-5.288 2.887-8.218l-5.01-7.612c.001 0-1.513-2.385-2.999-2.445m4.5 19.349l.433-.748c-4.621 8.139-13.36 13.635-23.387 13.635-14.849 0-26.884-12.04-26.884-26.884 0-14.849 12.04-26.884 26.884-26.884 14.848 0 26.884 12.04 26.884 26.884 0 1.036-.065 2.059-.181 3.063-.193-.295-3.921-5.962-4.36-6.594-.453-.651-.821-.962-1.68-1.88-1.06-1.135-3.112-1.09-3.112-1.09l-3.678-.048.114-.622c.362-1.737-1.384-2.02-1.384-2.02l-8.344-1.453c-1.5-.263-1.996 1.159-1.996 1.159l-1.531 6.936c-.865 2.661 1.605 2.793 1.605 2.793l5.443.917c0 0-.218-.026-.503 1.013-.284 1.042.556 1.817.556 1.817l1.537 1.266c0 0-.65.365-.926 1.195-.536 1.599.897 2.346.897 2.346s2.77 1.71 4.01 1.929c1.068.185 1.476-.073 1.476-.073l2.226-.759c.829 2.361 3.963 3.503 3.963 3.503l1.941.6m-43.18-18.965l-.235-.355c-.935-1.367-2.157-.674-2.157-.674-.294.061-1.132.788-.432 2 .854 1.489 1.157 1.496 1.193 3.587.021 1.208-.496 2.403-.496 2.403s-.655 1.21-.685 1.25c-.031.04-.744 1.103.401 1.84 1.321.853 2.224-.577 2.224-.577.628-.996 1.161-2.487 1.323-4.575.197-2.575-.746-4.269-1.136-4.9m6.967 4.163c0-4.301-2.09-7.03-2.09-7.03l-.248-.357c-.833-1.021-1.985-.437-1.985-.437-.26.049-1.038.975-.532 1.933.742 1.402 1.744 2.732 1.878 6.104.16 4.02-1.68 6.195-1.68 6.195s0 0-.246.426c-.019.034-.678 1.065.508 1.677 1.535.797 2.111-.347 2.111-.347 1.725-2.987 2.284-4.853 2.284-8.167m3.265 10.487c1.953-4.094 2.709-6.082 2.709-10.519 0-5.763-2.508-9.411-2.508-9.411l-.204-.389c-.935-1.367-2.157-.674-2.157-.674-.294.063-1.149.826-.58 2.106.834 1.88 2.339 3.47 2.38 8.29.048 5.38-2.237 9.258-2.237 9.258s0 0-.031.04c-.029.039-.918 1.292.388 2.18 1.302.883 2.24-.881 2.24-.881m8.649-10.342c0-7.274-3.35-12.552-3.35-12.552l-.034-.073c-.736-1.533-2.156-.808-2.156-.808-.296.08-1.185.762-.724 1.787 1.012 2.26 3.158 5.463 3.197 11.55.05 6.794-2.914 11.688-2.914 11.688s0 0-.03.049c-.029.051-.754 1.557.391 2.282 1.401.894 2.237-.643 2.237-.643 2.266-4.685 3.383-7.676 3.383-13.28m13.814-7.424c-.1-.036-.214-.063-.353-.078-1.517-.16-7.654-1.4-7.654-1.4s-1.021-.227-1.216.485c-.353 1.317-1.555 6.946-1.555 6.946s-.325.844.401 1.195c.104.048.226.088.37.113 1.407.244 5.47.951 5.47.951l-3.065-2.741c0 0-1.262-1.414.065-2.942.681-.641.956-.765.956-.765s.949-.506 2.056-.168c.159.046.321.114.485.199.987.523 3.711 2.04 3.835 2.109l.644-2.932c.001 0 .255-.71-.439-.972"/></svg>