<svg xmlns="http://www.w3.org/2000/svg" width="33" height="48.3" viewBox="0 0 33 48.3" enable-background="new 0 0 33 48.3"><path id="icon-mobile-ticketing" fill="#007fae" d="m18.1 22.5c.2.3.3.6.3.9 0 .4-.1.8-.4 1-.3.3-.6.5-1 .6v-3.1c.5.1.9.3 1.1.6m-2.2-6v2.8c-.3-.2-.6-.3-.8-.6-.2-.2-.3-.5-.3-.8 0-.3.1-.6.3-.9.2-.2.5-.4.8-.5m6.8-6.8h-12.6c-.6 0-1.1.5-1.1 1.1v20.7c0 .6.5 1.1 1.1 1.1h12.6c.6 0 1.1-.5 1.1-1.1v-20.7c0-.6-.5-1.1-1.1-1.1m-3.2 15.9c-.6.7-1.4 1.1-2.4 1.2v1.5h-1.2v-1.5c-.9-.1-1.7-.5-2.3-1-.6-.6-.9-1.4-1.1-2.4l2.1-.2c.1.4.2.8.5 1.1.2.3.5.5.8.7v-3.4c-1-.3-1.8-.8-2.3-1.4-.5-.6-.7-1.3-.7-2.2 0-.9.3-1.6.8-2.2.6-.6 1.3-.9 2.2-1v-.8h1.1v.8c.9.1 1.5.4 2 .9.5.5.8 1.1 1 1.9l-2 .3c-.1-.6-.4-1.1-1-1.3v3.1c1.3.3 2.2.8 2.6 1.4.5.6.7 1.3.7 2.1.1.9-.2 1.7-.8 2.4m8.4-24.9c-7.6-.8-15.2-.8-22.8 0-2.8.3-5.1 2.9-5.1 5.7 0 11.8 0 23.6 0 35.5 0 2.8 2.3 5.4 5 5.7 7.6.8 15.2.8 22.8 0 2.8-.3 5-3 5-5.7 0-11.8 0-23.6 0-35.5.2-2.8-2.1-5.4-4.9-5.7m-8.6 43.8c0 .6-.5 1-1 1h-3.5c-.6 0-1-.5-1-1v-3.5c0-.6.5-1 1-1h3.5c.6 0 1 .5 1 1v3.5m9.5-8.2c0 .6-.5 1.1-1.1 1.1h-22.4c-.6 0-1.1-.5-1.1-1.1v-30.3c0-.6.5-1.1 1.1-1.1h22.4c.6 0 1.1.5 1.1 1.1v30.3"/></svg>