<?xml version="1.0" encoding="utf-8"?><svg xmlns="http://www.w3.org/2000/svg" height="56.1" viewBox="0 0 34.998 56.102" enable-background="new 0 0 34.998 56.102"><path id="nav-schedule" fill="#077cc0" d="m.137.188v55.727h34.725v-55.727h-34.725m32.512 53.52h-30.3v-51.31h30.3v51.31m-3.496-48.01h-23.305v20.571h23.306v-20.571zm-14.289 17.484h-2.765v-10.413c-1.01.942-2.199 1.641-3.57 2.094v-2.508c.723-.237 1.506-.683 2.351-1.343.845-.66 1.428-1.428 1.742-2.306h2.242v14.476m11.55-2.566v2.566h-9.687c.105-.97.418-1.89.945-2.758.522-.869 1.558-2.02 3.109-3.457 1.244-1.16 2.01-1.947 2.289-2.361.384-.57.571-1.134.571-1.692 0-.616-.166-1.09-.498-1.42-.33-.332-.787-.497-1.371-.497-.578 0-1.036.173-1.375.52-.344.349-.539.925-.592 1.732l-2.756-.275c.166-1.522.68-2.614 1.546-3.277.865-.661 1.95-.993 3.247-.993 1.419 0 2.543.384 3.353 1.151.814.768 1.219 1.721 1.219 2.862 0 .649-.112 1.267-.348 1.854-.231.587-.602 1.202-1.106 1.843-.335.426-.937 1.039-1.806 1.838-.876.802-1.43 1.332-1.66 1.595-.235.262-.421.518-.565.766h5.485zm-19.992 9.785h22.15v2.21h-22.15v-2.21m0 4.891h22.15v2.208h-22.15v-2.208m0 4.894h22.15v2.208h-22.15v-2.208m0 4.89h22.15v2.21h-22.15v-2.21"/></svg>