<?xml version="1.0" encoding="utf-8"?><svg xmlns="http://www.w3.org/2000/svg" width="16" height="16" viewBox="0 0 16 16"><path id="schedule-print" fill="#077cc0" d="m6 10.501h4v.498h-4v-.498m0 1.498h2.499v-.498h-2.499v.498m8-5.998v5.5c0 .275-.225.498-.499.498h-1.501v2h-8v-2h-1.5c-.274 0-.499-.223-.499-.498v-5.5c0-.277.225-.5.499-.5h1.5v-3.501h8v3.501h1.501c.274 0 .499.223.499.5m-9-.5h6v-2.5h-6v2.5m6 7.498v-3.499h-6v3.499h6m2-6c0-.275-.225-.5-.5-.5s-.499.225-.499.5c0 .277.224.501.499.501s.5-.224.5-.501"/></svg>