<?xml version="1.0" encoding="utf-8"?><svg xmlns="http://www.w3.org/2000/svg" width="16" height="16" viewBox="0 0 16 16"><path id="schedule-settings" fill="#077cc0" d="m13.999 7.248c0-.314-.256-.57-.57-.57h-.906c-.096-.326-.227-.641-.391-.939l.643-.643c.105-.106.165-.252.165-.405s-.059-.295-.166-.402l-1.062-1.062c-.207-.209-.6-.209-.807 0l-.643.643c-.298-.167-.615-.298-.941-.391v-.909c0-.314-.256-.57-.57-.57h-1.502c-.314 0-.57.256-.57.57v.908c-.326.094-.643.225-.942.391l-.642-.642c-.215-.215-.59-.215-.807 0l-1.062 1.062c-.223.223-.223.584 0 .807l.643.641c-.165.298-.296.615-.391.941h-.909c-.312 0-.57.256-.57.57v1.504c0 .312.258.57.57.57h.908c.096.326.227.641.391.939l-.643.643c-.105.106-.165.254-.165.403 0 .154.059.297.166.404l1.062 1.062c.207.207.6.209.807 0l.643-.641c.299.164.615.295.941.389v.908c0 .314.256.57.57.57h1.502c.314 0 .57-.256.57-.57v-.908c.326-.094.643-.225.941-.389l.643.641c.215.217.59.217.807 0l1.062-1.062c.221-.221.221-.584 0-.807l-.643-.643c.164-.299.295-.613.391-.939h.906c.314 0 .57-.258.57-.57v-1.504m-3.919.752c0 1.146-.934 2.078-2.078 2.078-1.148 0-2.08-.932-2.08-2.078s.932-2.078 2.08-2.078c1.145 0 2.078.932 2.078 2.078"/></svg>