<?xml version="1.0" encoding="utf-8"?><svg xmlns="http://www.w3.org/2000/svg" width="16" height="16" viewBox="0 0 16 16"><path id="schedule-eye" fill="#999" d="m15.441 8.231c.078-.145.078-.318 0-.463-1.433-2.637-4.228-4.428-7.441-4.428-3.214 0-6.01 1.791-7.441 4.429-.078.145-.078.318 0 .463 1.432 2.637 4.227 4.428 7.441 4.428 3.213 0 6.01-1.791 7.441-4.429m-7.441 3.344c-1.975 0-3.575-1.601-3.575-3.575s1.6-3.575 3.575-3.575c1.974 0 3.574 1.601 3.574 3.575s-1.6 3.575-3.574 3.575m0-5.397c-.15 0-.297.019-.437.053.143.166.229.382.229.618 0 .521-.423.945-.945.945-.235 0-.451-.087-.617-.23-.034.139-.052.286-.052.436 0 1.01.815 1.822 1.822 1.822 1.01 0 1.821-.816 1.821-1.822s-.815-1.822-1.821-1.822"/></svg>