<svg xmlns="http://www.w3.org/2000/svg" width="16" height="16" viewBox="0 0 16 16" enable-background="new 0 0 16 16"><path id="schedule-next-ride" fill="#077cc0" d="m8 .5c-4.142 0-7.5 3.357-7.5 7.5 0 4.142 3.358 7.5 7.5 7.5s7.5-3.358 7.5-7.5c0-4.142-3.358-7.5-7.5-7.5m0 12.935c-3.01 0-5.453-2.446-5.453-5.453 0-3.01 2.447-5.452 5.453-5.452 3.01 0 5.453 2.447 5.453 5.453 0 3.01-2.447 5.452-5.453 5.452m.315-7.33c-.587-.098-1.211.077-1.663.53-.452.451-.627 1.074-.531 1.662l-1.272 2.838 2.838-1.274c.586.098 1.21-.078 1.662-.531.451-.451.626-1.075.529-1.662l1.274-2.838-2.837 1.275m.138 2.331c-.25.249-.656.249-.905 0-.25-.249-.25-.656 0-.906.249-.25.656-.25.905 0 .249.25.25.656 0 .906m-.897 4.185h.887l-.443-.987-.444.987m.888-9.281h-.888l.444.986.444-.986m3.21 4.64l.987.444v-.887l-.987.443m-8.294.442l.986-.442-.988-.444.002.886"/></svg>