<?xml version="1.0" encoding="utf-8"?><svg xmlns="http://www.w3.org/2000/svg" width="16" height="16" viewBox="0 0 16 16"><path id="schedule-highlight" fill="#999" d="m4.122 13.834h-2.875-.747v1.144h15v-1.144h-11.378m.463-.831c.185.185.475.21.688.061l3.351-2.335c.032-.022.062-.048.088-.076l6.04-6.544c.195-.212.189-.541-.016-.745l-2.182-2.184c-.204-.204-.533-.211-.745-.015l-6.544 6.04c-.029.027-.055.056-.077.088l-2.335 3.351c-.149.214-.123.504.061.688l1.675 1.675m6.455-9.168l1.038 1.038-4.562 4.563-1.038-1.039 4.562-4.562m-6.904 9.403c.032-.117 0-.243-.087-.329l-1.045-1.046c-.132-.132-.346-.132-.478 0l-1.318 1.318c-.07.07-.103.163-.099.255h2.875c.074-.043.128-.114.152-.198"/></svg>