<?xml version="1.0" encoding="utf-8"?><svg xmlns="http://www.w3.org/2000/svg" width="16" height="16" viewBox="0 0 16 16"><path id="schedule-x" fill="#999" d="m12.838 11.02l-3.02-3.02 3.02-3.02c.214-.216.214-.564 0-.779l-1.039-1.04c-.216-.215-.565-.215-.78 0l-3.02 3.02-3.02-3.02c-.215-.215-.564-.215-.779 0l-1.039 1.04c-.214.215-.214.563 0 .779l3.02 3.02-3.02 3.02c-.214.216-.214.564 0 .779l1.039 1.04c.216.214.564.214.78 0l3.02-3.02 3.02 3.02c.215.214.564.214.779 0l1.04-1.04c.215-.215.215-.564-.001-.779"/></svg>