<?xml version="1.0" encoding="utf-8"?><svg xmlns="http://www.w3.org/2000/svg" width="16" height="16" viewBox="0 0 16 16"><g id="schedule-question"><circle id="question-fill" fill="#007fae" cx="8" cy="8" r="7.5"/><path id="question" fill="#fff" d="m8.736 11.02c.226.225.34.501.34.821s-.114.596-.34.82c-.225.226-.501.34-.819.34-.32 0-.596-.114-.822-.34-.225-.225-.338-.5-.338-.82s.113-.597.338-.821c.448-.449 1.192-.45 1.641 0m1.424-7.297c-.55-.479-1.268-.722-2.139-.722s-1.617.277-2.223.826c-.275.252-.479.533-.606.833-.129.298-.195.582-.195.844 0 .265.039.48.116.655.205.483.593.738 1.118.738.38 0 .674-.114.872-.341.19-.22.289-.484.289-.791 0-.297-.074-.55-.224-.752-.1-.135-.224-.241-.367-.318.095-.138.227-.246.398-.329.372-.18.82-.264 1.277-.115.468.155.687.497.687 1.076 0 .777-.293 1.47-.894 2.12-.167.179-.326.369-.471.567-.352.477-.53 1.01-.53 1.577v.481h1.127l.014-.186c.019-.228.108-.474.27-.729.169-.27.511-.646 1.015-1.116.869-.813 1.311-1.622 1.311-2.403-.002-.783-.286-1.428-.845-1.915"/></g></svg>