<?xml version="1.0" encoding="utf-8"?><svg xmlns="http://www.w3.org/2000/svg" width="18" height="18" viewBox="0 0 18 18"><g id="schedule"><path id="schedule-reset-fill" fill="#999" d="m11.536.972h-5.072c-3.03 0-5.491 2.458-5.491 5.492v5.072c0 3.03 2.458 5.492 5.491 5.492h5.072c3.034 0 5.491-2.458 5.491-5.492v-5.072c0-3.03-2.457-5.492-5.491-5.492m1.523 8.789c0 .14-.114.254-.253.254h-2.79v2.79c0 .14-.114.253-.254.253h-1.523c-.141 0-.254-.114-.254-.253v-2.79h-2.791c-.14 0-.253-.114-.253-.254v-1.522c0-.14.113-.254.253-.254h2.791v-2.79c0-.14.113-.253.254-.253h1.522c.14 0 .254.114.254.253v2.79h2.79c.139 0 .253.114.253.254v1.522"/><path id="schedule-reset-stroke" fill="#737474" d="m11.536 17.5h-5.072c-3.288 0-5.964-2.676-5.964-5.964v-5.072c0-3.288 2.676-5.964 5.964-5.964h5.072c3.288 0 5.964 2.676 5.964 5.964v5.072c0 3.288-2.676 5.964-5.964 5.964m-5.072-16.06c-2.769 0-5.02 2.252-5.02 5.02v5.072c0 2.768 2.251 5.02 5.02 5.02h5.072c2.769 0 5.02-2.252 5.02-5.02v-5.072c0-2.768-2.251-5.02-5.02-5.02h-5.072"/></g></svg>