<?xml version="1.0" encoding="utf-8"?><svg xmlns="http://www.w3.org/2000/svg" width="16" height="16" viewBox="0 0 16 16"><path id="schedule-eye-closed" fill="#999" d="m15.441 7.769c-.576-1.059-1.378-1.972-2.331-2.696l.696-.696c.257-.259.257-.677 0-.935l-1.247-1.248c-.259-.258-.678-.258-.936 0l-1.439 1.439c-.698-.187-1.428-.293-2.184-.293-3.214 0-6.01 1.791-7.441 4.429-.078.145-.078.318 0 .463.575 1.059 1.377 1.972 2.331 2.696l-.696.696c-.256.259-.256.677 0 .935l1.247 1.248c.259.257.677.257.936 0l1.439-1.439c.697.185 1.428.292 2.184.292 3.213 0 6.01-1.791 7.441-4.429.079-.144.079-.318 0-.462m-11.02.231c0-1.975 1.601-3.575 3.575-3.575.415 0 .807.085 1.177.215l-1.179 1.178-3.359 3.36c-.13-.37-.214-.763-.214-1.178m3.575 3.575c-.415 0-.808-.085-1.178-.215l1.178-1.177 2.182-2.183 1.178-1.178c.13.37.215.763.215 1.178-.001 1.975-1.601 3.575-3.575 3.575"/></svg>