<?xml version="1.0" encoding="utf-8"?><svg xmlns="http://www.w3.org/2000/svg" width="18" height="18" viewBox="0 0 18 18"><g id="schedule"><path id="schedule-end-fill" fill="#089fd6" d="m6.464 17.03h5.072c3.03 0 5.491-2.458 5.491-5.492v-5.072c0-3.03-2.458-5.492-5.491-5.492h-5.072c-3.03 0-5.492 2.458-5.492 5.492v5.072c0 3.03 2.459 5.492 5.492 5.492m2.537-11.256l3.183 5.387h-6.367l3.184-5.387"/><path id="schedule-end-stroke" fill="#016f98" d="m11.536 17.5h-5.072c-3.288 0-5.964-2.676-5.964-5.964v-5.072c0-3.288 2.676-5.964 5.964-5.964h5.072c3.288 0 5.964 2.676 5.964 5.964v5.072c0 3.288-2.676 5.964-5.964 5.964m-5.072-16.06c-2.768 0-5.02 2.252-5.02 5.02v5.072c0 2.768 2.252 5.02 5.02 5.02h5.072c2.769 0 5.02-2.252 5.02-5.02v-5.072c0-2.768-2.251-5.02-5.02-5.02h-5.072"/></g></svg>