<?xml version="1.0" encoding="utf-8"?><svg xmlns="http://www.w3.org/2000/svg" width="16" height="16" viewBox="0 0 16 16"><path id="schedule-info" fill="#007fae" d="m8.96 2c.803 0 1.204.548 1.204 1.175 0 .782-.698 1.506-1.606 1.506-.762 0-1.206-.45-1.185-1.193 0-.628.529-1.488 1.587-1.488m-2.476 12c-.634 0-1.1-.392-.655-2.114l.729-3.055c.127-.489.147-.686 0-.686-.19 0-1.014.338-1.501.672l-.317-.529c1.543-1.311 3.318-2.08 4.08-2.08.634 0 .739.764.423 1.938l-.834 3.212c-.148.567-.084.764.063.764.19 0 .814-.236 1.428-.726l.359.489c-1.501 1.527-3.14 2.115-3.775 2.115"/></svg>