<?xml version="1.0" encoding="utf-8"?><svg xmlns="http://www.w3.org/2000/svg" width="16" height="16" viewBox="0 0 16 16"><path id="schedule-check" fill="#999" d="m12.966 8.581c-.033-.017-.067-.025-.101-.025-.073 0-.138.028-.193.083l-.54.541c-.05.049-.075.111-.075.184v2.139c0 .371-.132.688-.396.951s-.581.396-.951.396h-7c-.37 0-.688-.132-.952-.396-.263-.264-.396-.58-.396-.951v-7c0-.37.133-.687.396-.951.265-.264.582-.397.952-.397h7c.123 0 .25.018.379.051.033.011.059.017.075.017.073 0 .138-.027.194-.084l.412-.413c.067-.066.093-.148.075-.243-.017-.09-.067-.155-.151-.194-.303-.139-.631-.21-.985-.21h-7c-.668 0-1.239.237-1.714.712-.473.473-.711 1.045-.711 1.712v7c0 .668.237 1.238.711 1.714.475.474 1.046.711 1.714.711h7c.668 0 1.239-.237 1.713-.711.475-.476.712-1.046.712-1.714v-2.677c0-.117-.057-.2-.169-.244m2.113-4.832l-.926-.926c-.136-.135-.295-.201-.479-.201-.186 0-.346.066-.48.201l-5.448 5.447-2.214-2.215c-.135-.135-.294-.202-.479-.202-.185 0-.346.067-.48.202l-.927.926c-.134.135-.201.294-.201.48 0 .185.067.344.201.479l3.62 3.62c.135.134.295.202.479.202.187 0 .346-.067.48-.202l6.853-6.853c.135-.135.202-.294.202-.479s-.066-.345-.201-.479"/></svg>