<?xml version="1.0" encoding="utf-8"?><svg xmlns="http://www.w3.org/2000/svg" width="16" height="16" viewBox="0 0 16 16"><path id="schedule-map" fill="#077cc0" d="m13.154 8.772l2.311 4.745c.094.193-.004.35-.22.35h-14.49c-.214 0-.313-.156-.219-.35l2.309-4.745c.037-.074.136-.137.22-.137h1.981c.061 0 .143.037.183.084.134.155.271.307.408.458.129.143.26.287.389.436h-1.79c-.083 0-.182.062-.219.137l-1.08 2.563h10.238l-1.081-2.563c-.036-.075-.135-.137-.219-.137h-1.905c.13-.148.259-.293.39-.436.136-.15.273-.303.408-.457.041-.047.123-.084.184-.084h1.984c.084 0 .182.062.218.136m-1.758-3.242c0 2.592-2.158 3.079-3.173 5.57-.083.203-.368.201-.45 0-.917-2.246-2.761-2.863-3.114-4.864-.348-1.971 1.017-3.9 3.01-4.088 2.025-.19 3.729 1.398 3.729 3.382m-1.604 0c0-.991-.804-1.795-1.794-1.795-.992 0-1.795.804-1.795 1.795s.803 1.794 1.795 1.794c.99 0 1.794-.803 1.794-1.794"/></svg>