<?xml version="1.0" encoding="utf-8"?><svg xmlns="http://www.w3.org/2000/svg" width="60" height="60" viewBox="272 -13 60 60"><path id="service-sports" fill="#077cc0" d="m306.42 11.04l-2.557 2.039.87 3.153-2.73-1.802-2.73 1.802.87-3.153-2.557-2.039 3.267-.147 1.15-3.062 1.149 3.062 3.268.147m-14.04 3.475v-6.967h-3.28c.365 3.566 1.915 5.727 3.28 6.967m39.12 2.484c0 16.294-13.206 29.5-29.5 29.5-16.292 0-29.5-13.206-29.5-29.5 0-16.292 13.208-29.5 29.5-29.5 16.294 0 29.5 13.209 29.5 29.5m-13.315-12.657h-6.566v-2.055h-19.239v2.055h-6.566v1.603c0 5.278 2.056 8.53 3.78 10.327 1.513 1.576 3.02 2.335 3.659 2.61 1.225 2.556 3.627 4.44 6.504 4.95v5.872h-4.086v4.01h12.656v-4.01h-4.087v-5.872c2.878-.51 5.28-2.394 6.505-4.95.638-.274 2.146-1.034 3.658-2.609 1.725-1.797 3.781-5.05 3.781-10.327v-1.604m-6.565 10.178c1.368-1.239 2.918-3.399 3.281-6.972h-3.281v6.972"/></svg>