<?xml version="1.0" encoding="utf-8"?><svg xmlns="http://www.w3.org/2000/svg" width="40" height="40" viewBox="62 -3 40 40" enable-background="new 62 -3 40 40"><path id="service-bus-alt-sm" fill="#077cc0" d="m90.16 17.2v1.053c0 .073-.028.138-.65.138h-14.765c-.492 0-.815-.064-.815-.138v-1.053c0-.073.076-.132.647-.132h14.933c.622 0 .65.059.65.132m-15.533-.664h14.868c.627 0 .65-.346.65-.749v-5.723c0-.414-.023-.753-.65-.753h-15.04c-.572 0-.65.339-.65.753v5.723c0 .402.327.749.819.749m1.264-8.259h11.961c.503 0 .524-.057.524-.136v-1.052c0-.077-.021-.138-.524-.138h-12.1c-.461 0-.523.061-.523.138v1.051c0 .08.262.137.662.137m25.612 8.723c0 10.771-8.729 19.5-19.5 19.5-10.77 0-19.5-8.729-19.5-19.5 0-10.769 8.73-19.5 19.5-19.5 10.771 0 19.5 8.731 19.5 19.5m-10.48-8.906c0-1.115-.904-2.02-2.023-2.02h-13.997c-1.112 0-2.02.906-2.02 2.02v14.81.707 1.631c0 .308.172.498.389.574v2c0 .143.112.257.253.257h1.979c.142 0 .254-.114.254-.257v-1.965h12.319v1.965c0 .143.113.257.253.257h1.98c.142 0 .256-.114.256-.257v-2.02c.199-.084.355-.267.355-.557v-1.631-.707-14.809zm-1.015 11.679c.666 0 .694.105.694.242v1.844c0 .134-.028.241-.694.241h-15.797c-.525 0-.875-.107-.875-.241v-1.844c0-.137.085-.242.695-.242h15.977m-14.349 1.177c0-.463-.376-.838-.839-.838-.462 0-.839.375-.839.838 0 .465.377.838.839.838.463 0 .839-.373.839-.838m2.123 0c0-.463-.375-.838-.838-.838-.464 0-.838.375-.838.838 0 .465.374.838.838.838.463 0 .838-.373.838-.838m5.694-.693c0-.133-.102-.231-.229-.231h-2.464c-.125 0-.229.099-.229.231v1.366c0 .125.104.227.229.227h2.464c.127 0 .229-.102.229-.227v-1.366m4.319.693c0-.463-.375-.838-.837-.838-.464 0-.842.375-.842.838 0 .465.378.838.842.838.462 0 .837-.373.837-.838m2.126 0c0-.463-.377-.838-.838-.838-.466 0-.841.375-.841.838 0 .465.375.838.841.838.461 0 .838-.373.838-.838"/></svg>