<?xml version="1.0" encoding="utf-8"?><svg xmlns="http://www.w3.org/2000/svg" width="40" height="40" viewBox="233.888 -3 40 40" enable-background="new 233.888 -3 40 40"><path id="service-rail" fill="#077cc0" d="m249.26 20.834c-.738 0-1.336-.598-1.336-1.336 0-.738.598-1.336 1.336-1.336.738 0 1.336.598 1.336 1.336-.001.738-.599 1.336-1.336 1.336m-.126-5.943h9.516c.584 0 1.057-.473 1.057-1.057v-6.344c0-.584-.473-1.057-1.057-1.057h-9.516c-.584 0-1.057.473-1.057 1.057v6.344c0 .584.473 1.057 1.057 1.057m1.694 11.08h6.127l-.607-.74h-4.914l-.606.74m-.954 1.163l-.852 1.039h9.74l-.852-1.039v.011h-8.04v-.011m23.518-10.133c0 10.769-8.73 19.5-19.5 19.5-10.77 0-19.5-8.73-19.5-19.5 0-10.77 8.73-19.5 19.5-19.5 10.77 0 19.5 8.731 19.5 19.5m-11.57-10.803c0-1.168-.947-2.115-2.115-2.115h-11.631c-1.168 0-2.115.947-2.115 2.115v16.918c0 1.168.947 2.115 2.115 2.115h1.839l-3.233 3.942.909.745.467-.57h11.667l.467.57.909-.745-3.233-3.942h1.839c1.168 0 2.115-.947 2.115-2.115v-16.918m-3.297 11.965c-.738 0-1.336.598-1.336 1.336 0 .738.598 1.336 1.336 1.336.738 0 1.336-.598 1.336-1.336-.001-.738-.599-1.336-1.336-1.336"/></svg>