<?xml version="1.0" encoding="utf-8"?><svg xmlns="http://www.w3.org/2000/svg" width="60" height="60" viewBox="335.5 -13 60 60" enable-background="new 335.5 -13 60 60"><path id="service-pass" fill="#077cc0" d="m350.43 26h30v-18h-30v18m24.792-5.02c0 .115-.042.214-.126.298-.084.084-.183.126-.298.126h-7.209c-.115 0-.214-.042-.298-.126-.084-.084-.126-.183-.126-.298v-2.544c0-.115.042-.214.126-.298.084-.084.183-.126.298-.126h7.209c.115 0 .214.042.298.126.084.084.126.184.126.298v2.544m-9.218-7.633c0-.115.042-.214.126-.298.084-.084.183-.126.298-.126h9.53c.115 0 .214.042.298.126.084.084.126.183.126.298v2.545c0 .115-.042.214-.126.298-.084.084-.183.126-.298.126h-9.53c-.115 0-.214-.042-.298-.126-.084-.084-.126-.183-.126-.298v-2.545m-11.576 5.995c0-1.477.911-2.753 2.241-3.357-.63-.47-1.051-1.208-1.051-2.01 0-1.477 1.261-2.619 2.732-2.619 1.541 0 2.732 1.209 2.732 2.619 0 .873-.42 1.611-1.051 2.081 1.331.604 2.171 1.88 2.031 3.29v2.524c0 .537-.35 1.01-.911 1.01h-5.673c-.56 0-1.051-.47-1.051-1.01v-2.524m11.07-31.844c-16.292 0-29.5 13.207-29.5 29.5 0 16.292 13.208 29.5 29.5 29.5 16.292 0 29.5-13.208 29.5-29.5 0-16.293-13.208-29.5-29.5-29.5m16.932 38c0 1.378-1.117 2.495-2.495 2.495h-29.01c-1.378 0-2.495-1.117-2.495-2.495v-17.01c0-1.378 1.117-2.495 2.495-2.495h29.01c1.378 0 2.495 1.117 2.495 2.495v17.01"/></svg>