<?xml version="1.0" encoding="utf-8"?><svg xmlns="http://www.w3.org/2000/svg" width="60" height="60" viewBox="209 -13 60 60" enable-background="new 209 -13 60 60"><path id="service-train" fill="#077cc0" d="m234.14 31.792h9.523v1.798h-9.523v-1.798m1.037-10.568c0-1.169-.948-2.115-2.115-2.115-1.168 0-2.115.946-2.115 2.115 0 1.167.947 2.114 2.115 2.114 1.166 0 2.115-.947 2.115-2.114m1.59-17.916h2.335.006.005 2.335c.443 0 .792-.364.792-.786v-1.369c0-.423-.369-.778-.792-.778h-2.335-.005-.006-2.335c-.422 0-.791.355-.791.778v1.369c0 .422.347.786.791.786m-2.627 26.624h9.523v-2.075h-9.523v2.075m34.36-12.932c0 16.294-13.206 29.5-29.5 29.5-16.292 0-29.5-13.206-29.5-29.5 0-16.292 13.208-29.5 29.5-29.5 16.294 0 29.5 13.208 29.5 29.5m-28.952-19.459c0 .738.6 1.337 1.337 1.337s1.337-.599 1.337-1.337c0-.738-.6-1.336-1.337-1.336s-1.337.597-1.337 1.336m-3.549 0c0 .738.597 1.337 1.336 1.337.738 0 1.335-.599 1.335-1.337 0-.738-.597-1.336-1.335-1.336-.739-.001-1.336.597-1.336 1.336m13.881 6.501c0-2.432-2.046-4.662-4.826-4.662l-5.921-.005-5.969.005c-2.778 0-4.824 2.23-4.824 4.662v17.222c0 2.346 1.835 4.274 3.685 4.58v.151 1.86 2.075h-1.862v1.86h1.862v1.798h-1.862v1.86h1.862v1.813l2.118.532v-2.343h9.523v2.332l2.117-.577v-1.755h1.879v-1.86h-1.879v-1.798h1.879v-1.86h-1.879v-4.083h.4c1.851-.299 3.696-2.23 3.696-4.584v-17.223zm-4.773 15.07c-1.17 0-2.118.946-2.118 2.115 0 1.167.948 2.114 2.118 2.114 1.168 0 2.115-.947 2.115-2.114.001-1.168-.947-2.115-2.115-2.115m-.212-14.872h-5.779-.011-5.779c-1.569 0-2.404 1.125-2.404 2.414v3.1c-.013 1.492 1.075 2.402 2.404 2.402h5.779.006.005 5.779c1.326 0 2.415-.911 2.402-2.402v-3.1c0-1.29-.832-2.414-2.402-2.414"/></svg>