<?xml version="1.0" encoding="utf-8"?><svg xmlns="http://www.w3.org/2000/svg" width="60" height="60" viewBox="20 -13 60 60" enable-background="new 20 -13 60 60"><path id="service-metroride" fill="#077cc0" d="m61.41 7.104h-23.18v-1.789c0-1.038.843-1.879 1.883-1.879h19.415c1.04 0 1.88.841 1.88 1.879v1.789m-3.867 17.263c-.534.23-.937.459-1.263.879-.322.42-.571.993-.571 1.108s-.037.284.478.305c.517.021 3.246-.133 4.258-.477 1.01-.346 1.087-.706 1.239-1.165.154-.457.133-1.7.133-1.7s.032-.355-.15-.361c-.087-.002-.448.113-.927.27-1.104.363-2.825.983-3.197 1.141m-17.428-5.134h19.351c1.037 0 1.88-.84 1.88-1.879v-9.479h-23.11v9.479c0 1.04.843 1.879 1.883 1.879m39.3-2.316c0 16.293-13.206 29.5-29.5 29.5-16.292 0-29.5-13.206-29.5-29.5 0-16.292 13.208-29.5 29.5-29.5 16.294 0 29.5 13.208 29.5 29.5m-16.411-13.1c.053-1.72-1.496-2.244-2.282-2.244h-.845c-.128-.35-.495-1.152-1.237-1.235-1.273-.144-1.608.618-1.608.618h-.892v-.573h-12.352v.605h-.987c0 0-.319-.772-1.582-.707-.829.043-1.327.921-1.501 1.292h-.443c-.783 0-2.509.65-2.444 2.406v25.28c0 .783.635 1.418 1.416 1.42-.041.131-.065.268-.065.411v.993c0 .813.73 1.477 1.633 1.477.9 0 1.631-.663 1.631-1.477v-.993c0-.144-.023-.28-.067-.411h17.08c-.041.131-.064.265-.064.405v.993c0 .817.729 1.48 1.632 1.48.9 0 1.631-.663 1.631-1.48v-.993c0-.141-.023-.274-.064-.405.784-.002 1.417-.637 1.417-1.42v-25.442zm-1.561 23.844h-22.856c-.549 0-.994.479-.994 1.07 0 .589.445 1.067.994 1.067h22.856c.546 0 .991-.479.991-1.067.001-.591-.445-1.07-.991-1.07m-23.356-2.64c.154.459.23.819 1.242 1.165 1.01.344 3.741.498 4.259.477.514-.021.476-.189.476-.305s-.248-.688-.573-1.108c-.326-.42-.725-.648-1.261-.879-.37-.158-2.094-.778-3.194-1.142-.48-.156-.844-.271-.928-.27-.182.006-.151.361-.151.361s-.021 1.244.13 1.701"/></svg>