<?xml version="1.0" encoding="utf-8"?><svg xmlns="http://www.w3.org/2000/svg" width="40" height="40" viewBox="19 -3 40 40" enable-background="new 19 -3 40 40"><path id="service-metroride-sm" fill="#077cc0" d="m46.517 10.43h-15.322v-1.182c0-.686.558-1.242 1.245-1.242h12.833c.688 0 1.243.556 1.243 1.242v1.182zm-2.557 11.412c-.353.152-.619.303-.835.581-.213.277-.377.656-.377.732s-.024.188.315.201c.342.015 2.146-.088 2.814-.315.668-.229.719-.466.819-.77.102-.302.088-1.124.088-1.124s.021-.235-.1-.239c-.058-.001-.296.075-.612.179-.728.24-1.866.65-2.112.755m-11.52-3.394h12.791c.686 0 1.242-.556 1.242-1.242v-6.266h-15.278v6.266c0 .687.558 1.242 1.245 1.242m25.976-1.531c0 10.77-8.729 19.5-19.5 19.5-10.77 0-19.5-8.729-19.5-19.5 0-10.77 8.73-19.5 19.5-19.5 10.771 0 19.5 8.73 19.5 19.5m-10.848-8.661c.034-1.137-.989-1.483-1.509-1.483h-.559c-.085-.231-.327-.762-.817-.816-.842-.095-1.063.409-1.063.409h-.59v-.38h-8.164v.4h-.653c0 0-.211-.51-1.045-.467-.549.029-.878.609-.992.854h-.293c-.519 0-1.659.43-1.616 1.59v16.71c0 .518.42.938.937.938-.027.087-.044.178-.044.272v.656c0 .538.483.976 1.079.976s1.078-.438 1.078-.976v-.656c0-.095-.016-.186-.044-.272h11.287c-.026.087-.042.176-.042.269v.656c0 .54.481.979 1.078.979.596 0 1.078-.438 1.078-.979v-.656c0-.093-.016-.182-.043-.269.519-.001.938-.421.938-.938v-16.817zm-1.032 15.761h-15.11c-.362 0-.657.316-.657.708 0 .389.295.705.657.705h15.11c.361 0 .655-.316.655-.705 0-.392-.294-.708-.655-.708m-15.438-1.746c.102.304.152.541.821.77.668.228 2.473.33 2.814.315.34-.014.314-.125.314-.201s-.164-.455-.379-.732c-.216-.278-.479-.429-.833-.581-.245-.104-1.384-.515-2.111-.755-.318-.104-.559-.18-.613-.179-.12.004-.101.239-.101.239s-.013.823.088 1.124"/></svg>