<?xml version="1.0" encoding="utf-8"?><svg xmlns="http://www.w3.org/2000/svg" width="40" height="40" viewBox="-153 -3 40 40" enable-background="new -153 -3 40 40"><path id="service-bus-sm" fill="#077cc0" d="m-127.33 17.876h-9.634-1.981v-7.917c0-1.979 1.981-1.979 1.981-1.979h7.249c0 0 2.385-.302 2.385 2.089v7.807m-1.185 1.751c-.676 0-1.225.545-1.225 1.223s.548 1.225 1.225 1.225c.678 0 1.225-.547 1.225-1.225s-.547-1.223-1.225-1.223m-9.315 0c-.676 0-1.223.545-1.223 1.221 0 .678.546 1.227 1.223 1.227.679 0 1.226-.547 1.226-1.225s-.547-1.223-1.226-1.223m24.331-2.627c0 10.77-8.731 19.5-19.5 19.5-10.77 0-19.5-8.73-19.5-19.5 0-10.769 8.73-19.5 19.5-19.5 10.769 0 19.5 8.731 19.5 19.5m-11.576-9.02c0 0 0-1.979-1.98-1.979h-1.313-2.099-8.476c-1.979 0-1.979 1.979-1.979 1.979v15.838c0 1.979 1.979 1.979 1.979 1.979v2.203h2.884v-2.202h2.75 1.147 2.226v2.202h2.882v-2.202c0 0 1.98 0 1.98-1.979v-15.839"/></svg>