<svg enable-background="new 653.729 -13 60 60" viewBox="653.729 -13 60 60" xmlns="http://www.w3.org/2000/svg"><path d="m683.729-12.5c-16.292 0-29.5 13.208-29.5 29.5s13.208 29.5 29.5 29.5 29.5-13.208 29.5-29.5c0-16.292-13.208-29.5-29.5-29.5zm17 38.005c0 1.378-1.117 2.495-2.495 2.495h-29.01c-1.378 0-2.495-1.117-2.495-2.495v-17.01c0-1.378 1.117-2.495 2.495-2.495h29.01c1.378 0 2.495 1.117 2.495 2.495zm-28.718-10.217c0-.283-.225-.391-.732-.391-.191 0-.499 0-.59.008v-1.397c.083.009.424.009.557.009.458 0 .69-.125.69-.357 0-.274-.267-.399-.674-.399-.382 0-.815.142-1.098.449l-.848-.923c.465-.582 1.172-.915 2.079-.915 1.297 0 2.079.557 2.079 1.53 0 .582-.474 1.131-1.106 1.239.632.091 1.189.599 1.189 1.306 0 .997-.882 1.654-2.163 1.654-.981 0-1.738-.365-2.154-.873l.89-1.015c.324.324.79.499 1.197.499.484-.001.684-.209.684-.424zm3.975.282h-1.78v-1.172h1.78zm2.428 1.43h-1.572v-5.547h1.572v2.004h1.397v-2.004h1.572v5.547h-1.572v-2.17h-1.397zm6.254.1c1.547 0 2.528-1.181 2.528-2.869 0-1.696-.981-2.869-2.528-2.869s-2.528 1.173-2.528 2.869c.001 1.688.982 2.869 2.528 2.869zm0-4.349c.599 0 .932.615.932 1.479 0 .856-.333 1.48-.932 1.48s-.923-.624-.923-1.48c.001-.863.325-1.479.923-1.479zm3.286 2.22v-3.518h1.588v3.526c0 .457.25.74.715.74s.715-.283.715-.74v-3.526h1.588v3.51c0 1.347-.907 2.137-2.304 2.137-1.387 0-2.302-.79-2.302-2.129zm7.185.234h.399l.624 1.795h1.738l-.856-2.087c.366-.208.832-.683.832-1.613 0-1.023-.715-1.847-1.863-1.847h-2.445v5.547h1.571zm0-2.379h.624c.283 0 .516.166.516.499s-.233.508-.516.508h-.624zm3.191 8.74v2.269c0 .102-.068.191-.204.266s-.297.112-.484.112h-27.826c-.187 0-.348-.038-.484-.112-.136-.075-.204-.164-.204-.266v-2.269c0-.103.068-.191.204-.266s.297-.112.484-.112h27.826c.187 0 .348.037.484.112s.204.163.204.266z" fill="#077cc0"/></svg>