<?xml version="1.0" encoding="utf-8"?><svg xmlns="http://www.w3.org/2000/svg" width="40" height="40" viewBox="105 -3 40 40" enable-background="new 105 -3 40 40"><path id="service-rail-alt-sm" fill="#077cc0" d="m122.92 20.03v.768c0 .12-.096.213-.215.213h-1.723c-.115 0-.213-.093-.213-.213v-.768c0-.118.098-.213.213-.213h1.723c.119 0 .215.095.215.213m6.237-.213h-1.726c-.117 0-.213.095-.213.213v.768c0 .12.096.213.213.213h1.726c.117 0 .213-.093.213-.213v-.768c0-.118-.096-.213-.213-.213m-8.103-8.934h7.889c.234 0 .428-.192.428-.426v-.627c0-.24-.193-.429-.428-.429h-7.889c-.237 0-.427.188-.427.429v.626c0 .234.189.427.427.427m8.438.572h-8.845c-.236 0-.426.193-.426.428v6.696c0 .236.189.425.426.425h8.845c.235 0 .427-.188.427-.425v-6.696c0-.235-.192-.428-.427-.428m15.01 5.541c0 10.771-8.729 19.5-19.5 19.5-10.77 0-19.5-8.729-19.5-19.5 0-10.769 8.73-19.5 19.5-19.5 10.771 0 19.5 8.731 19.5 19.5m-11.448 4.677l-1.722 1.725h-12.423l-1.812-1.81v5.723c0 .479.285.954 1.049.954h1.434l2.722-2.719h.331l-2.634 4.264.406.253 2.789-4.517h3.656l2.993 4.522.396-.263-2.816-4.26h.408l2.724 2.719h1.444c.766 0 1.055-.476 1.055-.954v-5.637m0-12.65c0-.575-.576-1.101-1.338-1.101h-6.164v-.766l3.077-3.087h-1.353l-2.197 2.199-2.205-2.199h-1.356l3.078 3.084v.769h-6.162c-.766 0-1.337.526-1.337 1.101v11.181l2.1 2.093h11.801l2.057-2.057v-11.217z"/></svg>