<?xml version="1.0" encoding="utf-8"?><svg xmlns="http://www.w3.org/2000/svg" width="40" height="40" viewBox="191.066 -3 40 40" enable-background="new 191.066 -3 40 40"><path id="service-stations" fill="#077cc0" d="m210.23 19.573h-1.587c-.117 0-.212-.098-.212-.218v-1.63c0-.12.095-.218.212-.218h1.587c.117 0 .212.098.212.218v1.63c0 .12-.096.218-.212.218m-1.587-5.616h1.587c.117 0 .212-.098.212-.218v-1.63c0-.12-.096-.218-.212-.218h-1.587c-.117 0-.212.098-.212.218v1.63c0 .12.095.218.212.218m0 2.859h1.587c.117 0 .212-.098.212-.219v-1.629c0-.12-.096-.218-.212-.218h-1.587c-.117 0-.212.099-.212.218v1.629c0 .12.095.219.212.219m-2.718-2.116h-1.587c-.117 0-.212.098-.212.218v1.63c0 .12.095.218.212.218h1.587c.116 0 .212-.098.212-.218v-1.63c0-.12-.095-.218-.212-.218m0 5.616h-1.587c-.117 0-.212.098-.212.218v1.63c0 .12.095.218.212.218h1.587c.116 0 .212-.098.212-.218v-1.63c0-.12-.095-.218-.212-.218m0-2.758h-1.587c-.117 0-.212.098-.212.218v1.63c0 .119.095.217.212.217h1.587c.116 0 .212-.098.212-.217v-1.63c0-.12-.095-.218-.212-.218m6.564 3.226h-2.456c-.117 0-.212.098-.212.218v2.524c0 .119.095.217.212.217h2.456c.117 0 .213-.098.213-.217v-2.524c0-.12-.096-.218-.213-.218m5.384-3.226h-1.587c-.116 0-.211.098-.211.218v1.63c0 .119.095.217.211.217h1.587c.117 0 .212-.098.212-.217v-1.63c0-.12-.095-.218-.212-.218m0-2.858h-1.587c-.116 0-.211.098-.211.218v1.63c0 .12.095.218.211.218h1.587c.117 0 .212-.098.212-.218v-1.63c0-.12-.095-.218-.212-.218m12.693 2.3c0 10.769-8.73 19.5-19.5 19.5-10.77 0-19.5-8.73-19.5-19.5 0-10.77 8.73-19.5 19.5-19.5 10.769 0 19.5 8.731 19.5 19.5m-10.201 7.02c0-.149-.12-.272-.266-.272 0 0-.173 0-.23 0-.126 0-.126-.153-.126-.153v-10.708c0-.269-.214-.49-.477-.49 0 0-2.769 0-3.691 0-.133 0-.126-.128-.126-.128v-2.065c0-.02.011-.044.077-.044.146 0 .265-.122.265-.272v-.484c0-.15-.119-.272-.265-.272h-8.573c-.146 0-.265.122-.265.272v.484c0 .15.119.272.265.272.077 0 .077.071.077.079v1.981c0 0 .013.177-.099.177-.997 0-3.987 0-3.987 0-.263 0-.477.221-.477.49 0 0 0 8.06 0 10.742 0 .103-.054.12-.163.12-.141 0-.183 0-.183 0-.146 0-.265.122-.265.271v.565c0 .15.119.272.265.272h17.979c.146 0 .266-.122.266-.272v-.565m-2.493-3.709h-1.587c-.116 0-.211.098-.211.218v1.63c0 .12.095.218.211.218h1.587c.117 0 .212-.098.212-.218v-1.63c0-.12-.095-.218-.212-.218m-4.03-5.566h-1.586c-.117 0-.212.099-.212.218v1.629c0 .12.095.219.212.219h1.586c.117 0 .213-.098.213-.219v-1.629c0-.12-.096-.218-.213-.218m0 2.757h-1.586c-.117 0-.212.098-.212.218v1.63c0 .119.095.218.212.218h1.586c.117 0 .213-.098.213-.218v-1.63c0-.12-.096-.218-.213-.218m0-5.615h-1.586c-.117 0-.212.098-.212.218v1.63c0 .119.095.218.212.218h1.586c.117 0 .213-.098.213-.218v-1.63c0-.121-.096-.218-.213-.218"/></svg>