<?xml version="1.0" encoding="utf-8"?><svg xmlns="http://www.w3.org/2000/svg" width="60" height="60" viewBox="399.5 -13 60 60" enable-background="new 399.5 -13 60 60"><g id="service-icons"><path id="service-daypass" fill="#077cc0" d="m429.5-12.5c-16.292 0-29.5 13.208-29.5 29.5 0 16.292 13.208 29.5 29.5 29.5s29.5-13.208 29.5-29.5c0-16.292-13.208-29.5-29.5-29.5m16.931 38c0 1.378-1.117 2.495-2.495 2.495h-29.01c-1.378 0-2.495-1.117-2.495-2.495v-17.01c0-1.378 1.117-2.495 2.495-2.495h29.01c1.378 0 2.495 1.117 2.495 2.495v17.01m-20.931.698l18.931-.203v-18l-18.931.203v18m15.203-15.48c1.01 0 1.832.82 1.832 1.832s-.82 1.832-1.832 1.832-1.832-.82-1.832-1.832.821-1.832 1.832-1.832m0 4.649c1.01 0 1.832.82 1.832 1.832s-.82 1.832-1.832 1.832-1.832-.82-1.832-1.832.821-1.832 1.832-1.832m0 4.649c1.01 0 1.832.82 1.832 1.832s-.82 1.832-1.832 1.832-1.832-.82-1.832-1.832.821-1.832 1.832-1.832m-7.25-8.665c0-.187.038-.348.112-.484.075-.136.164-.204.266-.204h2.269c.103 0 .191.068.266.204.075.136.112.298.112.484v11.696c0 .187-.037.348-.112.484-.075.136-.163.204-.266.204h-2.269c-.102 0-.191-.068-.266-.204-.075-.136-.112-.297-.112-.484v-11.696m-5.418 0c0-.187.038-.348.112-.484.075-.136.164-.204.266-.204h2.269c.103 0 .191.068.266.204s.112.298.112.484v11.696c0 .187-.037.348-.112.484-.075.136-.163.204-.266.204h-2.269c-.102 0-.191-.068-.266-.204-.074-.136-.112-.297-.112-.484v-11.696m-8.624 8.686c-1.535 0-2.556.891-2.556 2.395v1.935h5.119v-1.942c.001-1.506-1.02-2.388-2.563-2.388m1.297 2.878h-2.586v-.483c0-.599.422-.921 1.29-.921.813 0 1.297.354 1.297.921v.483zm-3.852-4.831l5.119 1.504v-1.573l-.66-.146v-1.328l.66-.146v-1.574l-5.119 1.505v1.758m3.193-1.259v.76l-1.696-.384 1.696-.376m-.123-5.02h2.049v1.458h-2.049l-3.07 1.589v-1.589l1.75-.729-1.75-.721v-1.581l3.07 1.573"/></g></svg>