<?xml version="1.0" encoding="utf-8"?><svg xmlns="http://www.w3.org/2000/svg" width="60" height="60" viewBox="-232 -13 60 60" enable-background="new -232 -13 60 60"><path id="service-bus" fill="#077cc0" d="m-193.42 18.326h-14.575-2.997v-11.977c0-2.995 2.997-2.995 2.997-2.995h10.966c0 0 3.608-.457 3.608 3.16v11.812m-1.792 2.649c-1.023 0-1.853.824-1.853 1.849 0 1.025.829 1.853 1.853 1.853 1.025 0 1.853-.827 1.853-1.853 0-1.025-.828-1.849-1.853-1.849m-14.09 0c-1.023 0-1.85.823-1.85 1.847 0 1.025.827 1.854 1.85 1.854 1.027 0 1.855-.827 1.855-1.853 0-1.024-.827-1.848-1.855-1.848m36.809-3.975c0 16.293-13.208 29.5-29.5 29.5s-29.5-13.207-29.5-29.5c0-16.292 13.208-29.5 29.5-29.5s29.5 13.208 29.5 29.5m-17.513-13.646c0 0 0-2.994-2.996-2.994h-1.987-3.175-12.823c-2.995 0-2.995 2.994-2.995 2.994v23.961c0 2.994 2.995 2.994 2.995 2.994v3.332h4.363v-3.331h4.16 1.735 3.367v3.332h4.359v-3.332c0 0 2.996 0 2.996-2.994v-23.962z"/></svg>