<?xml version="1.0" encoding="utf-8"?><svg xmlns="http://www.w3.org/2000/svg" width="40" height="40" viewBox="-110 -3 40 40" enable-background="new -110 -3 40 40"><path id="service-lightrail-sm" fill="#077cc0" d="m-84.55 9.943v7.532c0 .268-.213.482-.479.482h-9.952c-.264 0-.478-.214-.478-.482v-7.532c0-.267.215-.481.478-.481h9.952c.268 0 .479.215.479.481m-8.356 8.983h-2.254c-.153 0-.28.122-.28.278v1.01c0 .153.126.277.28.277h2.254c.154 0 .278-.124.278-.277v-1.01c0-.156-.124-.278-.278-.278m8.04 0h-2.253c-.15 0-.275.122-.275.278v1.01c0 .153.124.277.275.277h2.253c.156 0 .285-.124.285-.277v-1.01c0-.156-.129-.278-.285-.278m14.362-1.926c0 10.77-8.73 19.5-19.5 19.5s-19.5-8.73-19.5-19.5c0-10.769 8.73-19.5 19.5-19.5s19.5 8.731 19.5 19.5m-11.638-8.724c0-.563-.563-1.081-1.317-1.081h-6.06v-.755l2.821-2.902-.923-.252-2.364 2.284-2.51-2.318-.995.236 3.03 2.951v.756h-6.06c-.755 0-1.318.517-1.318 1.081v12.366.168 5.471c0 .469.283.938 1.034.938h1.409l2.679-2.679h.419l-2.814 5.871.858.335 2.975-6.206h2.6l3.046 6.03.85-.35-2.868-5.676h.374l2.681 2.679h1.422c.75 0 1.034-.47 1.034-.938v-5.47-.084-12.45"/></svg>