<svg enable-background="new 719.123 -13 60 60" viewBox="719.123 -13 60 60" xmlns="http://www.w3.org/2000/svg"><path d="m751.013 28.005v2.286c0 .392-.327.653-.653.653h-2.286c-.392 0-.653-.327-.653-.653v-2.286c0-.392.327-.653.653-.653h2.286c.392 0 .653.327.653.653zm-3.297-15.811c0 .263.088.525.263.701.175.263.438.35.7.525v-2.452c-.263.088-.525.263-.7.438-.175.263-.263.526-.263.788zm1.927 3.503v2.715c.35-.088.613-.263.876-.525.263-.175.35-.525.35-.876 0-.263-.087-.526-.263-.788-.175-.263-.525-.438-.963-.526zm28.98 1.303c0 16.292-13.208 29.5-29.5 29.5s-29.5-13.208-29.5-29.5 13.208-29.5 29.5-29.5 29.5 13.207 29.5 29.5zm-18.792-11.593c.131-1.829-1.372-3.527-3.2-3.723-4.964-.522-9.928-.522-14.892 0-1.829.196-3.331 1.894-3.331 3.723v23.187c0 1.829 1.502 3.527 3.266 3.723 4.964.522 9.927.522 14.891 0 1.829-.196 3.266-1.959 3.266-3.723 0-7.708 0-15.415 0-23.187zm-2.613-.262v19.79c0 .392-.327.718-.719.718h-14.63c-.392 0-.719-.326-.719-.718v-19.79c0-.392.326-.718.719-.718h14.63c.393 0 .719.327.719.718zm-4.685 11.691c0-.7-.175-1.313-.613-1.839-.35-.525-1.138-.963-2.277-1.226v-2.715c.525.175.788.613.876 1.139l1.752-.263c-.176-.701-.438-1.226-.876-1.664s-.963-.701-1.751-.789v-.7h-.964v.7c-.788.088-1.401.35-1.927.876-.438.525-.701 1.139-.701 1.927 0 .789.175 1.402.613 1.927.438.526 1.138.964 2.014 1.226v2.978c-.263-.175-.525-.35-.7-.613-.263-.263-.35-.613-.438-.964l-1.839.176c.175.876.438 1.576.964 2.102.525.438 1.226.788 2.014.876v1.314h1.051v-1.314c.876-.087 1.577-.438 2.102-1.051.525-.614.788-1.315.7-2.103z" fill="#077cc0"/></svg>