<?xml version="1.0" encoding="utf-8"?><svg xmlns="http://www.w3.org/2000/svg" width="60" height="60" viewBox="589.5 -13 60 60" enable-background="new 589.5 -13 60 60"><g id="service-icons"><path id="service-rail" fill="#077cc0" d="m612.49 22.8c-1.116 0-2.02-.905-2.02-2.02 0-1.116.905-2.02 2.02-2.02s2.02.905 2.02 2.02c-.001 1.116-.905 2.02-2.02 2.02m-.19-8.99h14.396c.883 0 1.6-.716 1.6-1.6v-9.597c0-.883-.716-1.6-1.6-1.6h-14.396c-.883 0-1.6.716-1.6 1.6v9.598c0 .883.716 1.599 1.6 1.599m2.563 16.76h9.27l-.918-1.12h-7.434l-.918 1.12m-1.443 1.76l-1.289 1.572h14.735l-1.289-1.572v.017h-12.157v-.017m35.578-15.33c0 16.292-13.207 29.5-29.5 29.5-16.292 0-29.5-13.208-29.5-29.5 0-16.292 13.208-29.5 29.5-29.5 16.293 0 29.5 13.208 29.5 29.5m-17.503-16.343c0-1.767-1.432-3.199-3.199-3.199h-17.596c-1.767 0-3.199 1.432-3.199 3.199v25.594c0 1.767 1.432 3.199 3.199 3.199h2.782l-4.891 5.964 1.375 1.127.707-.862h17.65l.707.862 1.375-1.127-4.891-5.964h2.782c1.767 0 3.199-1.432 3.199-3.199v-25.594m-4.989 18.1c-1.116 0-2.02.905-2.02 2.02 0 1.116.905 2.02 2.02 2.02s2.02-.905 2.02-2.02c0-1.117-.905-2.02-2.02-2.02"/></g></svg>