<?xml version="1.0" encoding="utf-8"?><svg xmlns="http://www.w3.org/2000/svg" width="60" height="60" viewBox="-169 -13 60 60" enable-background="new -169 -13 60 60"><path id="service-lightrail" fill="#077cc0" d="m-130.75 6.325v11.394c0 .405-.322.729-.724.729h-15.06c-.399 0-.723-.324-.723-.729v-11.394c0-.403.325-.728.723-.728h15.06c.405 0 .724.324.724.728m-12.642 13.588h-3.41c-.231 0-.424.186-.424.421v1.521c0 .232.191.42.424.42h3.41c.233 0 .421-.188.421-.42v-1.521c0-.235-.186-.421-.421-.421m12.164 0h-3.409c-.228 0-.417.186-.417.421v1.521c0 .232.188.42.417.42h3.409c.236 0 .431-.188.431-.42v-1.521c0-.235-.194-.421-.431-.421m21.727-2.913c0 16.293-13.208 29.5-29.5 29.5s-29.5-13.207-29.5-29.5c0-16.292 13.208-29.5 29.5-29.5s29.5 13.208 29.5 29.5m-17.606-13.198c0-.852-.852-1.634-1.993-1.634h-9.168v-1.143l4.268-4.39-1.396-.381-3.577 3.456-3.797-3.506-1.505.356 4.583 4.464v1.144h-9.172c-1.142 0-1.993.782-1.993 1.634v18.707.254 8.276c0 .71.428 1.42 1.564 1.42h2.132l4.053-4.052h.635l-4.257 8.882 1.298.507 4.5-9.389h3.933l4.608 9.115 1.286-.529-4.339-8.586h.566l4.055 4.052h2.151c1.135 0 1.564-.71 1.564-1.42v-8.276-.126-18.835"/></svg>