<?xml version="1.0" encoding="utf-8"?><svg xmlns="http://www.w3.org/2000/svg" width="40" height="40" viewBox="-24 -3 40 40" enable-background="new -24 -3 40 40"><path id="service-mallride-sm" fill="#077cc0" d="m3.214 24.664c0 .343-.258.622-.575.622h-13.277c-.318 0-.575-.279-.575-.622 0-.341.257-.621.575-.621h13.277c.317 0 .575.28.575.621m-13.338-1.503c.603 0 1.092-.487 1.092-1.089 0-.604-.489-1.092-1.092-1.092-.603 0-1.09.488-1.09 1.092 0 .602.487 1.089 1.09 1.089m-.232-4.057h4.942c.473 0 .857-.398.857-.894v-7.61c0-.494-.384-.894-.857-.894h-4.942c-.473 0-.858.4-.858.894v7.61c0 .495.385.894.858.894m12.48 1.876c-.602 0-1.092.488-1.092 1.092 0 .602.49 1.089 1.092 1.089.603 0 1.09-.487 1.09-1.089 0-.603-.487-1.092-1.09-1.092m13.376-3.98c0 10.77-8.73 19.5-19.5 19.5s-19.5-8.73-19.5-19.5c0-10.771 8.73-19.5 19.5-19.5s19.5 8.729 19.5 19.5m-11.455-7.788c0-.482-.391-.873-.874-.873h-4.088c.004-.029.006-.058.006-.089v-1.456c0-.44-.388-.795-.868-.795h-4.443c-.479 0-.868.355-.868.795v1.456c0 .031.003.06.005.089h-4.087c-.483 0-.874.391-.874.873v16.14c0 .48.39.872.87.873-.024.081-.039.164-.039.252v.611c0 .501.448.907 1 .907.553 0 1-.406 1-.907v-.612c0-.088-.015-.171-.04-.252h10.498c-.024.08-.04.162-.04.251v.609c0 .502.45.909 1 .909.554 0 1-.407 1-.909v-.609c0-.089-.013-.171-.039-.251.481-.001.87-.393.87-.873v-16.14zm-1.69.464h-4.94c-.473 0-.858.401-.858.894v7.61c0 .495.385.894.858.894h4.94c.475 0 .859-.398.859-.894v-7.61c0-.493-.384-.894-.859-.894"/></svg>