<?xml version="1.0" encoding="utf-8"?><svg xmlns="http://www.w3.org/2000/svg" width="40" height="40" viewBox="148 -3 40 40" enable-background="new 148 -3 40 40"><path id="service-train-sm" fill="#077cc0" d="m164.79 26.777h6.295v1.188h-6.295v-1.188m.686-6.985c0-.772-.627-1.398-1.398-1.398s-1.397.626-1.397 1.398c0 .771.626 1.397 1.397 1.397s1.398-.626 1.398-1.397m1.05-11.843h1.544.004.003 1.543c.294 0 .524-.241.524-.52v-.904c0-.28-.244-.515-.524-.515h-1.543-.003-.004-1.544c-.278 0-.522.235-.522.515v.905c0 .278.229.519.522.519m-1.736 17.599h6.295v-1.371h-6.295v1.371m22.711-8.548c0 10.771-8.729 19.5-19.5 19.5-10.77 0-19.5-8.729-19.5-19.5 0-10.769 8.73-19.5 19.5-19.5 10.771 0 19.5 8.731 19.5 19.5m-19.14-12.863c0 .488.396.884.884.884s.884-.396.884-.884-.396-.883-.884-.883-.884.395-.884.883m-2.345 0c0 .488.395.884.883.884s.883-.396.883-.884-.395-.883-.883-.883-.883.395-.883.883m9.174 4.298c0-1.607-1.352-3.082-3.189-3.082l-3.914-.003-3.945.003c-1.837 0-3.189 1.474-3.189 3.082v11.384c0 1.55 1.213 2.825 2.436 3.03v.1 1.23 1.371h-1.23v1.229h1.23v1.188h-1.23v1.23h1.23v1.198l1.4.352v-1.55h6.295v1.541l1.399-.382v-1.159h1.242v-1.23h-1.242v-1.188h1.242v-1.229h-1.242v-2.699h.265c1.224-.197 2.443-1.474 2.443-3.03v-11.384zm-3.154 9.959c-.773 0-1.4.626-1.4 1.398 0 .771.627 1.397 1.4 1.397.772 0 1.398-.626 1.398-1.397.001-.772-.625-1.398-1.398-1.398m-.141-9.832h-3.82-.007-3.82c-1.037 0-1.59.744-1.59 1.596v2.049c-.008.986.711 1.588 1.59 1.588h3.82.004.003 3.82c.877 0 1.597-.602 1.588-1.588v-2.049c0-.852-.549-1.596-1.588-1.596"/></svg>