<?xml version="1.0" encoding="utf-8"?><svg xmlns="http://www.w3.org/2000/svg" width="60" height="60" viewBox="146 -13 60 60" enable-background="new 146 -13 60 60"><path id="service-rail-alt" fill="#077cc0" d="m172.86 21.591v1.161c0 .181-.146.321-.325.321h-2.605c-.176 0-.322-.141-.322-.321v-1.161c0-.18.146-.323.322-.323h2.605c.18 0 .325.143.325.323m9.436-.323h-2.61c-.178 0-.322.144-.322.323v1.161c0 .181.145.321.322.321h2.61c.177 0 .322-.141.322-.321v-1.161c0-.18-.145-.323-.322-.323m-12.26-13.517h11.936c.354 0 .646-.291.646-.644v-.947c0-.363-.292-.648-.646-.648h-11.936c-.358 0-.645.285-.645.648v.948c.001.352.287.643.645.643m12.767.867h-13.381c-.357 0-.644.292-.644.648v10.129c0 .357.286.644.644.644h13.381c.355 0 .646-.286.646-.644v-10.129c-.001-.356-.291-.648-.646-.648m22.701 8.382c0 16.294-13.206 29.5-29.5 29.5-16.292 0-29.5-13.206-29.5-29.5 0-16.292 13.208-29.5 29.5-29.5 16.294 0 29.5 13.208 29.5 29.5m-17.319 7.07l-2.604 2.608h-18.793l-2.743-2.737v8.657c0 .725.433 1.443 1.587 1.443h2.17l4.117-4.113h.501l-3.985 6.45.614.383 4.22-6.833h5.532l4.527 6.843.6-.397-4.261-6.445h.618l4.12 4.113h2.186c1.158 0 1.595-.719 1.595-1.443v-8.529m-.001-19.14c0-.869-.871-1.666-2.024-1.666h-9.324v-1.158l4.655-4.67h-2.046l-3.324 3.327-3.336-3.327h-2.053l4.656 4.666v1.163h-9.322c-1.157 0-2.02.796-2.02 1.666v16.916l3.178 3.166h17.852l3.111-3.111v-16.972"/></svg>