<?xml version="1.0" encoding="utf-8"?><svg xmlns="http://www.w3.org/2000/svg" width="60" height="60" viewBox="83 -13 60 60" enable-background="new 83 -13 60 60"><path id="service-bus-alt" fill="#077cc0" d="m125.34 17.303v1.593c0 .111-.042.209-.983.209h-22.337c-.743 0-1.233-.098-1.233-.209v-1.593c0-.111.115-.2.979-.2h22.591c.941 0 .983.089.983.2m-23.499-1.01h22.493c.948 0 .984-.523.984-1.133v-8.657c0-.626-.036-1.139-.984-1.139h-22.748c-.866 0-.983.512-.983 1.139v8.658c0 .609.494 1.132 1.238 1.132m1.912-12.493h18.09c.762 0 .793-.087.793-.206v-1.59c0-.117-.031-.209-.793-.209h-18.305c-.696 0-.791.092-.791.209v1.59c0 .119.396.206 1 .206m38.747 13.196c0 16.294-13.206 29.5-29.5 29.5-16.292 0-29.5-13.206-29.5-29.5 0-16.292 13.208-29.5 29.5-29.5 16.294 0 29.5 13.208 29.5 29.5m-15.854-13.473c0-1.686-1.369-3.057-3.062-3.057h-21.17c-1.683 0-3.056 1.371-3.056 3.057v22.405 1.07 2.467c0 .466.261.753.589.868v3.03c0 .216.169.388.383.388h2.994c.214 0 .384-.172.384-.388v-2.973h18.638v2.973c0 .216.171.388.382.388h2.997c.213 0 .387-.172.387-.388v-3.055c.302-.126.538-.402.538-.842v-2.467-1.07-22.404m-1.536 17.669c1.01 0 1.05.159 1.05.365v2.79c0 .202-.043.364-1.05.364h-23.898c-.795 0-1.323-.162-1.323-.364v-2.79c0-.206.128-.365 1.052-.365h24.17m-21.708 1.781c0-.701-.568-1.268-1.269-1.268-.699 0-1.269.566-1.269 1.268 0 .702.569 1.268 1.269 1.268.701-.001 1.269-.566 1.269-1.268m3.212 0c0-.701-.566-1.268-1.268-1.268s-1.268.566-1.268 1.268c0 .702.566 1.268 1.268 1.268s1.268-.566 1.268-1.268m8.615-1.05c0-.2-.154-.351-.346-.351h-3.729c-.188 0-.345.15-.345.351v2.067c0 .189.156.342.345.342h3.729c.191 0 .346-.152.346-.342v-2.067m6.533 1.05c0-.701-.566-1.268-1.266-1.268-.701 0-1.273.566-1.273 1.268 0 .702.572 1.268 1.273 1.268.699-.001 1.266-.566 1.266-1.268m3.217 0c0-.701-.57-1.268-1.268-1.268-.704 0-1.272.566-1.272 1.268 0 .702.568 1.268 1.272 1.268.697-.001 1.268-.566 1.268-1.268"/></svg>