<?xml version="1.0" encoding="utf-8"?><svg xmlns="http://www.w3.org/2000/svg" width="40" height="40" viewBox="-67 -3 40 40" enable-background="new -67 -3 40 40"><path id="service-skyride-sm" fill="#077cc0" d="m-47-2.5c-10.77 0-19.5 8.73-19.5 19.5 0 10.77 8.73 19.5 19.5 19.5 10.77 0 19.5-8.73 19.5-19.5 0-10.77-8.73-19.5-19.5-19.5m10.696 24.823l-9.495-3.126v5.094l2.198 1.717v1.992l-3.388-1.055-3.387 1.055v-1.99l2.175-1.719v-5.091l-9.495 3.123v-2.518l9.402-5.733v-6.86c.005-1.624 2.451-1.624 2.451.046v6.815l9.54 5.733v2.517z"/></svg>