<?xml version="1.0" encoding="utf-8"?><svg xmlns="http://www.w3.org/2000/svg" width="60" height="60" viewBox="462.5 -13 60 60" enable-background="new 462.5 -13 60 60"><g id="service-icons"><path id="service-tickets" fill="#077cc0" d="m492.43-12.847c-16.292 0-29.5 13.208-29.5 29.5 0 16.292 13.208 29.5 29.5 29.5s29.5-13.208 29.5-29.5c0-16.293-13.208-29.5-29.5-29.5m17.762 21.35l-6.629 20.528c-.315.975-1.361 1.51-2.336 1.196l-6.348-2.05c-.039.01-.074.026-.114.033l-12.442 2.276c-1.01.184-1.975-.483-2.159-1.491l-3.881-21.22c-.184-1.01.483-1.975 1.491-2.159l12.442-2.275c1.01-.184 1.975.483 2.159 1.491l.655 3.579 1.593-4.935c.315-.975 1.361-1.51 2.336-1.196l12.04 3.887c.976.315 1.511 1.361 1.196 2.336m-7.729 10.976c.132.043.236.109.314.2.077.091.103.177.076.258l-.582 1.801c-.026.081-.097.136-.213.164-.116.028-.239.021-.371-.022l-6.583-2.125.399 2.182 5.583 1.803c.132.043.236.109.314.2.077.091.103.177.076.258l-.581 1.801c-.026.082-.097.136-.213.165-.116.028-.239.021-.371-.022l-4.293-1.386.238 1.298c.063.347.02.687-.098.994l6.06 1.952 5.516-17.08-5.098-6.179-7.749 2.03-1.257 3.893.965 5.274 7.871 2.543m-4.908-8.107c1.106-1.401 3.138-1.641 4.539-.535s1.641 3.138.535 4.539c-1.106 1.401-3.138 1.641-4.539.535-1.401-1.106-1.64-3.138-.535-4.539m-2.932 12.93l-.515-2.818-.399-2.182-.313-1.711-.609-3.33-.595-3.253-.366-2-7.417-3.03-5.865 5.457 3.229 17.657 10.174-1.861 3.056-.559.051-.01-.431-2.358m-12.02-10.961c.311-1.757 1.987-2.931 3.745-2.62 1.758.31 2.931 1.987 2.62 3.744-.31 1.758-1.987 2.931-3.744 2.62-1.758-.31-2.932-1.986-2.621-3.744m-.501 8.645l-.34-1.861c-.015-.084.021-.166.11-.246.088-.079.201-.132.337-.157l7.618-1.393.938-.172c.136-.025.26-.015.371.027.111.043.174.107.189.191l.048.262.292 1.599c.016.084-.021.166-.109.246-.088.08-.201.132-.337.157l-.523.096-1.749.32-6.284 1.149c-.136.025-.26.016-.371-.027s-.174-.107-.19-.191m6.201 3.737l-4.835.885c-.136.025-.26.016-.371-.027s-.174-.107-.189-.191l-.341-1.861c-.015-.084.021-.166.11-.246.088-.079.201-.132.337-.157l5.251-.96 1.749-.32 1.556-.284c.079-.014.145.007.215.016.051.006.109-.007.156.011.111.043.174.107.189.191l.14.763.201 1.098c.015.084-.021.166-.109.246-.089.08-.201.132-.337.157l-1.317.241-2.405.438m12.59-14.06l-1.564-.516-1.169 3.548 1 .332.379-1.149.256.084.02 1.281 1.111.366-.107-1.516c.278-.056.676-.261.872-.857.214-.653-.07-1.33-.803-1.573m-.225 1.253c-.07.213-.256.276-.437.217l-.399-.132.212-.644.399.132c.181.059.295.215.225.427m-15.621 2.926l-.697-3.67 1.041-.197.524 2.762 1.134-.215.172.908-2.174.412"/></g></svg>