<?xml version="1.0" encoding="utf-8"?><svg xmlns="http://www.w3.org/2000/svg" width="60" height="60" viewBox="-43 -13 60 60" enable-background="new -43 -13 60 60"><path id="service-mallride" fill="#077cc0" d="m-2.086 28.595c0 .518-.39.94-.871.94h-20.09c-.481 0-.871-.423-.871-.94 0-.517.389-.939.871-.939h20.09c.48-.001.871.422.871.939m-20.18-2.274c.912 0 1.652-.737 1.652-1.648 0-.913-.74-1.65-1.652-1.65-.913 0-1.65.737-1.65 1.65 0 .911.738 1.648 1.65 1.648m-.352-6.138h7.478c.715 0 1.297-.604 1.297-1.352v-11.513c0-.748-.582-1.352-1.297-1.352h-7.478c-.715 0-1.298.604-1.298 1.352v11.513c0 .748.583 1.352 1.298 1.352m18.88 2.839c-.91 0-1.652.737-1.652 1.65 0 .911.742 1.648 1.652 1.648.913 0 1.65-.737 1.65-1.648 0-.912-.738-1.65-1.65-1.65m20.236-6.02c0 16.292-13.207 29.5-29.5 29.5s-29.5-13.208-29.5-29.5c0-16.294 13.207-29.5 29.5-29.5s29.5 13.206 29.5 29.5m-17.329-11.782c0-.729-.591-1.321-1.322-1.321h-6.185c.006-.043.009-.087.009-.134v-2.202c0-.666-.586-1.204-1.312-1.204h-6.723c-.724 0-1.312.538-1.312 1.204v2.202c0 .046.004.09.007.134h-6.184c-.73 0-1.322.591-1.322 1.321v24.423c0 .727.589 1.318 1.316 1.32-.037.123-.059.248-.059.382v.925c0 .758.678 1.372 1.518 1.372.836 0 1.516-.614 1.516-1.372v-.925c0-.134-.022-.259-.06-.382h15.878c-.037.121-.06.246-.06.38v.922c0 .76.681 1.375 1.517 1.375.838 0 1.518-.615 1.518-1.375v-.922c0-.134-.02-.259-.059-.38.729-.002 1.316-.594 1.316-1.32v-24.423zm-2.557.702h-7.475c-.716 0-1.298.606-1.298 1.352v11.514c0 .748.583 1.352 1.298 1.352h7.475c.719 0 1.299-.604 1.299-1.352v-11.515c.001-.745-.58-1.351-1.299-1.351"/></svg>