<?xml version="1.0" encoding="utf-8"?><svg xmlns="http://www.w3.org/2000/svg" width="60" height="60" viewBox="525.833 -13 60 60" enable-background="new 525.833 -13 60 60"><g id="service-icons"><path id="service-stations" fill="#077cc0" d="m554.57 20.893h-2.401c-.176 0-.321-.149-.321-.329v-2.466c0-.181.144-.33.321-.33h2.401c.176 0 .321.148.321.33v2.466c0 .18-.144.329-.321.329m-2.4-8.496h2.401c.176 0 .321-.149.321-.329v-2.467c0-.181-.144-.329-.321-.329h-2.401c-.176 0-.321.148-.321.329v2.466c0 .181.144.33.321.33m0 4.324h2.401c.176 0 .321-.149.321-.331v-2.465c0-.181-.144-.33-.321-.33h-2.401c-.176 0-.321.149-.321.33v2.465c0 .182.144.331.321.331m-4.111-3.201h-2.401c-.177 0-.321.149-.321.329v2.466c0 .182.144.329.321.329h2.401c.176 0 .321-.148.321-.329v-2.466c-.001-.18-.145-.329-.321-.329m0 8.496h-2.401c-.177 0-.321.149-.321.329v2.466c0 .181.144.329.321.329h2.401c.176 0 .321-.148.321-.329v-2.466c-.001-.18-.145-.329-.321-.329m0-4.171h-2.401c-.177 0-.321.148-.321.33v2.466c0 .18.144.328.321.328h2.401c.176 0 .321-.148.321-.328v-2.466c-.001-.183-.145-.33-.321-.33m9.929 4.879h-3.716c-.177 0-.32.149-.32.329v3.818c0 .18.144.328.32.328h3.716c.177 0 .322-.148.322-.328v-3.818c0-.18-.145-.329-.322-.329m8.145-4.879h-2.401c-.176 0-.32.148-.32.33v2.466c0 .18.144.328.32.328h2.401c.177 0 .321-.148.321-.328v-2.466c0-.183-.144-.33-.321-.33m0-4.325h-2.401c-.176 0-.32.149-.32.329v2.466c0 .182.144.329.32.329h2.401c.177 0 .321-.148.321-.329v-2.466c0-.18-.144-.329-.321-.329m19.2 3.48c0 16.292-13.207 29.5-29.5 29.5-16.292 0-29.5-13.208-29.5-29.5 0-16.292 13.208-29.5 29.5-29.5 16.293 0 29.5 13.208 29.5 29.5m-15.431 10.628c0-.226-.181-.411-.402-.411 0 0-.261 0-.347 0-.191 0-.191-.231-.191-.231v-16.2c0-.407-.324-.741-.721-.741 0 0-4.189 0-5.584 0-.202 0-.19-.194-.19-.194v-3.125c0-.03.017-.066.117-.066.221 0 .401-.185.401-.411v-.733c0-.227-.18-.411-.401-.411h-12.969c-.221 0-.401.185-.401.411v.732c0 .227.18.411.401.411.117 0 .117.107.117.12v2.996c0 0 .02.268-.15.268-1.508 0-6.03 0-6.03 0-.397 0-.722.334-.722.741 0 0 0 12.189 0 16.251 0 .155-.082.181-.246.181-.213 0-.276 0-.276 0-.221 0-.401.185-.401.41v.855c0 .227.181.412.401.412h27.19c.221 0 .402-.185.402-.412v-.853m-3.771-5.612h-2.401c-.176 0-.32.149-.32.329v2.466c0 .181.144.329.32.329h2.401c.177 0 .321-.148.321-.329v-2.466c0-.18-.144-.329-.321-.329m-6.1-8.42h-2.4c-.177 0-.321.149-.321.33v2.465c0 .182.144.331.321.331h2.4c.176 0 .322-.149.322-.331v-2.465c0-.181-.146-.33-.322-.33m0 4.172h-2.4c-.177 0-.321.148-.321.33v2.466c0 .18.144.329.321.329h2.4c.176 0 .322-.149.322-.329v-2.466c0-.182-.146-.33-.322-.33m0-8.496h-2.4c-.177 0-.321.148-.321.329v2.466c0 .18.144.329.321.329h2.4c.176 0 .322-.149.322-.329v-2.466c0-.181-.146-.329-.322-.329"/></g></svg>