<?xml version="1.0" encoding="utf-8"?><svg xmlns="http://www.w3.org/2000/svg" width="25" height="25" viewBox="0 0 25 25" enable-background="new 0 0 25 25"><path id="side-map" fill="#e31837" d="m20.403 13.685l3.542 7.276c.145.296-.006.536-.337.536h-22.22c-.328 0-.48-.24-.335-.536l3.54-7.276c.057-.114.208-.21.337-.21h3.037c.093 0 .22.059.28.129.207.238.416.472.626.701.198.219.398.44.597.667h-2.744c-.128 0-.279.096-.336.21l-1.656 3.932h15.698l-1.657-3.932c-.056-.114-.207-.21-.335-.21h-2.923c.198-.227.396-.448.597-.667.208-.23.42-.463.627-.701.062-.07.188-.129.28-.129h3.043c.129 0 .281.095.336.21m-2.697-4.972c0 3.976-3.309 4.722-4.864 8.542-.128.311-.564.309-.69-.001-1.405-3.444-4.233-4.39-4.774-7.458-.533-3.02 1.559-5.98 4.612-6.269 3.105-.292 5.716 2.143 5.716 5.186m-2.459 0c0-1.52-1.231-2.751-2.751-2.751-1.521 0-2.751 1.231-2.751 2.751 0 1.521 1.23 2.752 2.751 2.752 1.52 0 2.751-1.232 2.751-2.752"/></svg>