<?xml version="1.0" encoding="utf-8"?><svg xmlns="http://www.w3.org/2000/svg" width="25" height="25" viewBox="0 0 25 25" enable-background="new 0 0 25 25"><path id="side-mobile" fill="#e31837" d="m17.979 1.297c-3.629-.396-7.287-.396-10.914 0-1.33.15-2.413 1.422-2.413 2.723 0 5.638 0 11.275 0 16.949 0 1.337 1.099 2.58 2.39 2.744 3.626.382 7.262.382 10.894 0 1.331-.152 2.413-1.422 2.413-2.744 0-5.648 0-11.299 0-16.949.043-1.316-1.037-2.559-2.373-2.723h.003m-4.126 20.926c0 .268-.218.484-.482.484h-1.696c-.267 0-.482-.217-.482-.484v-1.693c0-.268.216-.484.482-.484h1.696c.265 0 .475.239.475.484v1.693h.007m4.53-3.866c0 .268-.218.485-.486.485h-10.751c-.267 0-.485-.218-.485-.485v-14.558c0-.269.219-.482.485-.482h10.751c.269 0 .479.238.479.482v14.559h.007z"/></svg>