<?xml version="1.0" encoding="utf-8"?><svg xmlns="http://www.w3.org/2000/svg" width="25" height="25" viewBox="0 0 25 25" enable-background="new 0 0 25 25"><path id="side-pdf" fill="#e31837" d="m12.395 10.543c-.283 0-.466.025-.571.051v3.657c.105.024.281.024.438.024 1.145.008 1.89-.624 1.89-1.958.008-1.16-.672-1.774-1.757-1.774m-4.884-.015c-.258 0-.433.023-.522.048v1.65c.108.025.24.034.423.034.673 0 1.088-.34 1.088-.912-.001-.515-.359-.82-.989-.82m8.364-9.528h-11.765v23h16.78v-16.178l-5.962-4.117.947-2.705m-6.641 11.641c-.431.407-1.068.59-1.813.59-.168 0-.317-.008-.433-.025v1.998h-1.252v-5.515c.391-.067.937-.115 1.707-.115.78 0 1.336.148 1.709.447.357.281.597.746.597 1.293 0 .548-.182 1.012-.515 1.327m7.09-3.03h3.417v1.037h-2.149v1.275h2.01v1.027h-2.01v2.248h-1.268v-5.587m-.828 2.661c0 1.071-.391 1.808-.93 2.264-.587.49-1.484.723-2.578.723-.656 0-1.119-.042-1.434-.084v-5.49c.463-.074 1.068-.115 1.708-.115 1.06 0 1.749.19 2.288.596.581.432.946 1.12.946 2.106m1.555-11.276l-.765 2.192 4.604 3.179-3.839-5.371"/></svg>