<?xml version="1.0" encoding="utf-8"?><svg xmlns="http://www.w3.org/2000/svg" width="25" height="25" viewBox="0 0 25 25" enable-background="new 0 0 25 25"><path id="side-calendar" fill="#e31837" d="m6.621 6.471h.328c.501 0 .906-.407.906-.906v-2.499-.933c0-.503-.405-.905-.906-.905h-.328c-.5 0-.906.402-.906.905v.934 2.498c0 .498.406.906.906.906m11.613-.024h.328c.5 0 .905-.404.905-.905v-2.713-.72c0-.5-.405-.906-.905-.906h-.328c-.5 0-.906.406-.906.906v.72 2.713c.001.501.406.905.906.905m4.294-3.381h-2.323v2.713c0 .904-.737 1.403-1.643 1.403h-.328c-.905 0-1.643-.735-1.643-1.641v-2.475h-8v2.498c0 .906-.736 1.643-1.643 1.643h-.327c-.906 0-1.642-.736-1.642-1.643v-2.498h-2.506c-.812 0-1.473.661-1.473 1.473v17.786c0 .81.661 1.472 1.473 1.472h20.06c.812 0 1.472-.662 1.472-1.472v-17.786c-.001-.812-.661-1.473-1.473-1.473m0 19.259h-20.05v-13.433h20.06v13.433h-.001m-9.268-8.927h2.643c.105 0 .191-.085.191-.189v-2.289c0-.105-.086-.189-.191-.189h-2.643c-.105 0-.189.084-.189.189v2.289c-.001.104.083.189.189.189m4.314 0h2.643c.104 0 .189-.085.189-.189v-2.289c0-.105-.086-.189-.189-.189h-2.643c-.105 0-.191.084-.191.189v2.289c0 .104.086.189.191.189m-12.941 3.747h2.644c.105 0 .19-.086.19-.189v-2.289c0-.105-.085-.189-.19-.189h-2.644c-.104 0-.189.084-.189.189v2.289c-.001.103.085.189.189.189m4.314 0h2.643c.105 0 .189-.086.189-.189v-2.289c0-.105-.084-.189-.189-.189h-2.643c-.104 0-.189.084-.189.189v2.289c0 .103.085.189.189.189m4.313 0h2.644c.104 0 .19-.086.19-.189v-2.289c0-.105-.086-.189-.19-.189h-2.644c-.105 0-.189.084-.189.189v2.289c-.001.103.083.189.189.189m4.314 0h2.643c.104 0 .189-.086.189-.189v-2.289c0-.105-.086-.189-.189-.189h-2.643c-.105 0-.191.084-.191.189v2.289c0 .103.086.189.191.189m-10.298 1.079h-2.643c-.104 0-.189.084-.189.189v2.289c0 .104.086.188.189.188h2.644c.105 0 .19-.084.19-.188v-2.289c0-.105-.085-.189-.191-.189m4.314 0h-2.643c-.104 0-.189.084-.189.189v2.289c0 .104.085.188.189.188h2.643c.105 0 .189-.084.189-.188v-2.289c0-.105-.084-.189-.189-.189m4.313 0h-2.643c-.105 0-.189.084-.189.189v2.289c0 .104.084.188.189.188h2.644c.104 0 .19-.084.19-.188v-2.289c0-.105-.086-.189-.191-.189m4.314 0h-2.643c-.105 0-.191.084-.191.189v2.289c0 .104.086.188.191.188h2.643c.104 0 .189-.084.189-.188v-2.289c0-.105-.086-.189-.189-.189"/></svg>