<?xml version="1.0" encoding="utf-8"?><svg xmlns="http://www.w3.org/2000/svg" width="25" height="25" viewBox="0 0 25 25" enable-background="new 0 0 25 25"><path id="side-settings" fill="#e31837" d="m24 11.06c0-.604-.49-1.093-1.094-1.093h-1.738c-.182-.625-.432-1.23-.748-1.803l1.23-1.231c.204-.203.319-.484.319-.774 0-.292-.112-.566-.319-.772l-2.036-2.037c-.396-.398-1.148-.398-1.546 0l-1.23 1.231c-.573-.315-1.178-.566-1.803-.748v-1.739c0-.604-.491-1.094-1.096-1.094h-2.879c-.604 0-1.093.49-1.093 1.094v1.739c-.625.182-1.232.432-1.803.748l-1.23-1.231c-.412-.412-1.133-.412-1.547 0l-2.037 2.036c-.425.427-.425 1.119 0 1.546l1.231 1.229c-.314.573-.565 1.18-.747 1.805h-1.74c-.602.001-1.094.491-1.094 1.094v2.879c0 .602.492 1.094 1.094 1.094h1.74c.182.625.433 1.229.747 1.802l-1.229 1.231c-.204.204-.322.485-.322.773 0 .293.113.568.321.774l2.035 2.037c.396.396 1.15.398 1.547 0l1.23-1.231c.573.314 1.178.565 1.804.747v1.74c0 .603.491 1.094 1.093 1.094h2.879c.604 0 1.096-.491 1.096-1.094v-1.74c.625-.182 1.229-.433 1.803-.747l1.23 1.231c.414.413 1.133.413 1.546 0l2.036-2.037c.426-.426.426-1.121 0-1.547l-1.23-1.231c.316-.573.566-1.177.748-1.802h1.738c.604 0 1.094-.492 1.094-1.094v-2.879m-7.516 1.44c0 2.198-1.786 3.984-3.982 3.984-2.199 0-3.986-1.787-3.986-3.984 0-2.197 1.787-3.984 3.986-3.984 2.196 0 3.982 1.787 3.982 3.984"/></svg>