<?xml version="1.0" encoding="utf-8"?><svg xmlns="http://www.w3.org/2000/svg" width="25" height="25" viewBox="0 0 25 25" enable-background="new 0 0 25 25"><path id="side-mail" fill="#e31837" d="m23.833 18.08c0 .504-.141.972-.369 1.383l-7.263-8.125 7.186-6.285c.278.443.446.964.446 1.527v11.5m-11.5-5.267l9.995-8.746c-.409-.225-.871-.362-1.37-.362h-17.25c-.499 0-.961.138-1.369.362l9.994 8.746m2.788-.53l-2.313 2.026c-.137.118-.307.177-.475.177s-.338-.059-.475-.177l-2.313-2.026-7.353 8.23c.44.276.957.441 1.516.441h17.25c.559 0 1.075-.165 1.516-.441l-7.353-8.23m-13.842-7.23c-.278.443-.446.964-.446 1.527v11.5c0 .504.141.972.369 1.383l7.262-8.127-7.185-6.283"/></svg>