<?xml version="1.0" encoding="utf-8"?><svg xmlns="http://www.w3.org/2000/svg" width="25" height="25" viewBox="0 0 25 25" enable-background="new 0 0 25 25"><path id="side-alert" fill="#e31837" d="m15.258 1.144c-.088-.093-.211-.144-.341-.144h-5.334c-.13 0-.253.051-.341.144-.09.091-.139.218-.137.346l.401 14.479c.006.258.219.464.475.464h4.537c.258 0 .47-.206.475-.464l.401-14.479c.002-.128-.046-.253-.136-.346m-.749 17.728h-4.518c-.263 0-.476.212-.476.474v4.18c.001.259.214.474.476.474h4.519c.262 0 .477-.215.477-.474v-4.18c-.001-.263-.216-.474-.478-.474"/></svg>