<?xml version="1.0" encoding="utf-8"?><svg xmlns="http://www.w3.org/2000/svg" width="25" height="25" viewBox="0 0 25 25" enable-background="new 0 0 25 25"><path id="side-question" fill="#e31837" d="m17.498 3.01c-1.393-1-3.143-1.508-5.25-1.508-1.603 0-2.955.354-4.055 1.06-1.744 1.108-2.67 2.988-2.782 5.64h4.04c0-.772.226-1.516.677-2.233s1.216-1.074 2.294-1.074c1.097 0 1.853.29 2.267.872.414.581.621 1.226.621 1.934 0 .614-.309 1.178-.68 1.688-.205.299-.474.572-.809.824 0 0-2.191 1.404-3.154 2.535-.558.654-.607 1.635-.656 3.042-.004.1.034.308.385.308.35 0 2.831 0 3.143 0s.377-.233.382-.334c.021-.513.079-.774.173-1.069.176-.56.656-1.047 1.195-1.467l1.113-.767c1-.783 1.805-1.426 2.158-1.927.604-.829 1.028-1.848 1.028-3.058 0-1.972-.698-3.461-2.091-4.466m-5.314 15.51c-1.393-.042-2.542.921-2.586 2.433-.044 1.51 1.049 2.507 2.442 2.548 1.454.043 2.571-.889 2.616-2.398.043-1.512-1.018-2.54-2.472-2.583"/></svg>