<?xml version="1.0" encoding="utf-8"?><svg xmlns="http://www.w3.org/2000/svg" width="25" height="25" viewBox="0 0 25 25" enable-background="new 0 0 25 25"><path id="side-phone" fill="#e31837" d="m23.738 19.15c.051.373-.063.698-.34.975l-3.238 3.213c-.146.162-.337.3-.571.413-.235.113-.468.188-.694.221-.016 0-.065.004-.146.012-.083.007-.188.013-.317.013-.309 0-.808-.052-1.498-.159-.69-.104-1.533-.365-2.532-.779-.999-.413-2.13-1.035-3.396-1.863-1.267-.826-2.613-1.964-4.04-3.408-1.137-1.119-2.077-2.191-2.824-3.213-.748-1.023-1.349-1.969-1.803-2.838s-.795-1.657-1.021-2.363c-.229-.707-.384-1.314-.464-1.827-.081-.512-.115-.913-.098-1.206.017-.291.024-.451.024-.486.032-.226.105-.458.22-.694.113-.234.25-.425.413-.572l3.239-3.239c.227-.226.486-.34.778-.34.211 0 .397.061.56.182.162.122.301.273.415.451l2.605 4.943c.147.258.187.542.122.852-.065.308-.203.568-.413.78l-1.194 1.193c-.033.03-.061.083-.085.158-.024.072-.038.132-.038.181.065.341.212.731.439 1.168.194.39.495.866.9 1.425.406.561.982 1.207 1.729 1.938.73.747 1.381 1.328 1.949 1.741.566.413 1.041.718 1.424.912.381.196.674.313.877.354l.303.06c.033 0 .086-.01.159-.036.073-.023.126-.051.157-.083l1.39-1.413c.291-.261.632-.391 1.022-.391.275 0 .494.049.658.146h.023l4.698 2.775c.343.212.547.48.61.804"/></svg>