<?xml version="1.0" encoding="utf-8"?><svg xmlns="http://www.w3.org/2000/svg" width="25" height="25" viewBox="0 0 25 25" enable-background="new 0 0 25 25"><path id="side-print" fill="#e31837" d="m8.666 17.292h7.668v.958h-7.668v-.958m0 2.875h4.791v-.958h-4.791v.958m15.334-11.5v10.542c0 .528-.43.958-.957.958h-2.877v3.833h-15.334v-3.833h-2.875c-.527 0-.957-.43-.957-.958v-10.542c0-.53.43-.958.957-.958h2.875v-6.709h15.334v6.709h2.877c.527 0 .957.429.957.958m-17.25-.958h11.5v-4.792h-11.5v4.792m11.5 14.373v-6.707h-11.5v6.707h11.5m3.834-11.499c0-.528-.43-.958-.959-.958s-.957.43-.957.958c0 .53.428.96.957.96s.959-.431.959-.96"/></svg>