<?xml version="1.0" encoding="utf-8"?><svg xmlns="http://www.w3.org/2000/svg" width="25" height="25" viewBox="0 0 25 25" enable-background="new 0 0 25 25"><path id="side-info" fill="#e31837" d="m15.298 1c1.539 0 2.309 1.051 2.309 2.252 0 1.5-1.338 2.887-3.08 2.887-1.459 0-2.311-.862-2.27-2.287 0-1.202 1.014-2.852 3.041-2.852m-4.744 23c-1.215 0-2.107-.75-1.256-4.052l1.396-5.854c.242-.938.282-1.313 0-1.313-.365 0-1.943.648-2.877 1.286l-.607-1.013c2.958-2.513 6.361-3.987 7.82-3.987 1.215 0 1.418 1.463.811 3.714l-1.598 6.155c-.285 1.088-.162 1.463.121 1.463.365 0 1.561-.452 2.736-1.391l.689.938c-2.878 2.927-6.02 4.054-7.235 4.054"/></svg>