<?xml version="1.0" encoding="utf-8"?><svg xmlns="http://www.w3.org/2000/svg" width="25" height="25" viewBox="0 0 25 25" enable-background="new 0 0 25 25"><path id="side-link" fill="#e31837" d="m21.918 14.816l-2.676-2.676c-.72-.721-1.596-1.082-2.625-1.082-1.046 0-1.938.379-2.677 1.133l-1.132-1.133c.755-.737 1.132-1.633 1.132-2.689 0-1.027-.355-1.899-1.067-2.61l-2.651-2.664c-.711-.73-1.586-1.094-2.624-1.094-1.029 0-1.9.356-2.612 1.068l-1.892 1.878c-.73.713-1.094 1.583-1.094 2.613 0 1.03.36 1.904 1.081 2.625l2.677 2.676c.72.721 1.595 1.082 2.625 1.082 1.046 0 1.938-.378 2.676-1.133l1.132 1.133c-.754.737-1.132 1.634-1.132 2.689 0 1.028.356 1.899 1.067 2.611l2.651 2.663c.712.73 1.587 1.094 2.625 1.094 1.029 0 1.9-.356 2.612-1.068l1.892-1.877c.73-.714 1.094-1.583 1.094-2.614 0-1.029-.36-1.904-1.082-2.625m-10.858-5.505c-.026-.026-.105-.107-.238-.245s-.226-.229-.276-.277c-.052-.047-.134-.112-.245-.193-.112-.082-.221-.137-.328-.166-.107-.03-.225-.045-.354-.045-.342 0-.634.12-.875.359-.239.24-.359.531-.359.876 0 .127.015.246.045.353.029.107.086.218.167.328.082.112.146.194.193.244.046.053.139.144.276.278.138.132.219.212.244.236-.258.267-.566.4-.926.4-.352 0-.645-.117-.875-.348l-2.678-2.676c-.24-.24-.36-.532-.36-.875 0-.335.119-.622.36-.862l1.891-1.878c.249-.232.541-.348.876-.348.343 0 .635.12.875.36l2.65 2.663c.24.239.36.531.36.874 0 .361-.141.675-.423.942m9.11 8.993l-1.892 1.878c-.241.225-.533.335-.876.335-.352 0-.643-.115-.875-.348l-2.649-2.663c-.241-.239-.36-.531-.36-.874 0-.361.141-.675.424-.94.026.025.105.107.238.244.133.138.225.229.276.277s.133.112.244.194c.112.081.222.137.328.165.108.031.226.046.354.046.343 0 .635-.12.875-.359.24-.241.36-.532.36-.876 0-.128-.015-.247-.045-.353-.03-.108-.086-.218-.168-.328-.081-.112-.146-.194-.192-.245-.047-.052-.14-.144-.277-.277-.137-.132-.219-.213-.244-.237.258-.275.566-.412.926-.412.344 0 .636.12.875.359l2.677 2.678c.24.239.36.532.36.874 0 .334-.12.622-.359.862"/></svg>