<?xml version="1.0" encoding="utf-8"?><svg xmlns="http://www.w3.org/2000/svg" width="25" height="25" viewBox="0 0 25 25" enable-background="new 0 0 25 25"><path id="side-avatar" fill="#e31837" d="m12.5 13.186c3.108 0 4.226-3.111 4.52-5.667.359-3.149-1.129-5.519-4.52-5.519-3.389 0-4.879 2.369-4.518 5.519.293 2.555 1.411 5.667 4.518 5.667m8.406 7.41c-.033-.993-.149-1.989-.323-2.965-.21-1.184-.477-2.917-1.509-3.688-.598-.445-1.371-.592-2.055-.86-.332-.131-.631-.26-.91-.408-.944 1.035-2.176 1.577-3.609 1.577s-2.664-.542-3.609-1.577c-.279.148-.577.277-.91.408-.684.269-1.457.415-2.055.86-1.031.771-1.299 2.505-1.508 3.688-.174.976-.29 1.972-.324 2.965-.025.768.354.875.996 1.107.805.29 1.635.505 2.472.682 1.615.342 3.28.604 4.938.615 1.658-.012 3.323-.273 4.939-.615.836-.177 1.667-.392 2.471-.682.643-.232 1.024-.34.996-1.107"/></svg>