<?xml version="1.0" encoding="utf-8"?><svg xmlns="http://www.w3.org/2000/svg" width="25" height="25" viewBox="0 0 25 25" enable-background="new 0 0 25 25"><path id="side-check" fill="#e31837" d="m19.862 13.413c-.054-.028-.105-.04-.159-.04-.114 0-.216.043-.304.133l-.847.846c-.079.078-.119.177-.119.292v3.358c0 .582-.207 1.081-.622 1.495-.414.414-.912.622-1.495.622h-11c-.583 0-1.08-.208-1.496-.622-.414-.414-.621-.913-.621-1.495v-11.01c0-.582.207-1.081.621-1.495.415-.414.913-.622 1.496-.622h11.01c.194 0 .392.027.595.079.053.019.093.027.119.027.114 0 .216-.044.305-.132l.647-.648c.106-.106.146-.233.119-.383-.026-.142-.106-.242-.238-.305-.477-.22-.992-.331-1.548-.331h-11.01c-1.049 0-1.947.372-2.692 1.118-.746.745-1.119 1.642-1.119 2.692v11.01c0 1.048.373 1.945 1.118 2.691s1.643 1.118 2.692 1.118h11.01c1.05 0 1.947-.372 2.692-1.118s1.118-1.644 1.118-2.691v-4.208c.001-.186-.088-.313-.264-.383m3.321-7.594l-1.455-1.456c-.212-.211-.463-.317-.754-.317s-.542.106-.754.317l-8.56 8.56-3.479-3.479c-.212-.212-.463-.318-.754-.318-.292 0-.542.106-.754.318l-1.456 1.454c-.211.213-.317.464-.317.754 0 .291.106.543.317.755l5.688 5.689c.212.211.463.315.754.315s.543-.104.754-.315l10.77-10.77c.212-.211.317-.462.317-.752 0-.293-.105-.544-.317-.755"/></svg>