<?xml version="1.0" encoding="utf-8"?><svg xmlns="http://www.w3.org/2000/svg" width="25" height="25" viewBox="0 0 25 25" enable-background="new 0 0 25 25"><path id="side-apple" fill-rule="evenodd" fill="#e31837" d="m21.713 8.718c-1.186-1.478-2.85-2.333-4.418-2.333-2.078 0-2.957.986-4.398.986-1.484 0-2.615-.984-4.412-.984-1.764 0-3.641 1.072-4.83 2.904-1.674 2.576-1.391 7.425 1.324 11.556.97 1.476 2.267 3.138 3.962 3.153 1.506.014 1.934-.961 3.977-.973 2.045-.011 2.432.983 3.939.97 1.693-.017 3.062-1.855 4.03-3.333.695-1.058.953-1.593 1.494-2.79-3.923-1.482-4.556-7.03-.671-9.156m-5.994-3.984c.754-.968 1.328-2.336 1.119-3.734-1.232.086-2.676.869-3.518 1.893-.764.928-1.395 2.304-1.148 3.643 1.346.04 2.738-.765 3.547-1.802"/></svg>