<?xml version="1.0" encoding="utf-8"?><svg xmlns="http://www.w3.org/2000/svg" width="25" height="25" viewBox="0 0 25 25" enable-background="new 0 0 25 25"><path id="side-send" fill="#e31837" d="m1.929 10.02c-.495.19-.845.638-.916 1.163-.07.525.154 1.047.583 1.358l4.694 3.415 16.674-13.12-14.744 14.524 6.419 4.671c.409.297.934.386 1.421.238.486-.147.87-.516 1.042-.989l6.867-18.791c.069-.189.021-.404-.124-.547-.145-.142-.357-.187-.548-.114l-21.368 8.19m3.245 7.07l.043.218.909 4.982c.068.369.315.681.661.829.342.147.739.116 1.056-.087 1.27-.817 2.927-1.903 2.88-1.967l-5.549-3.975"/></svg>