<?xml version="1.0" encoding="utf-8"?><svg xmlns="http://www.w3.org/2000/svg" width="25" height="25" viewBox="0 0 25 25" enable-background="new 0 0 25 25"><path id="side-doc" fill="#e31837" d="m17.07 1l-.765 2.192 4.601 3.179-3.836-5.371m3.997 7.887h-.2v-1.067l-5.961-4.115.946-2.705h-11.765v7.887h-.154c-.378 0-.689.31-.689.69v5.94c0 .381.309.688.689.688h.154v7.795h16.78v-7.794h.2c.381 0 .689-.308.689-.688v-5.94c.001-.382-.308-.691-.689-.691m-12.281 5.663c-.59.489-1.485.72-2.58.72-.654 0-1.121-.041-1.436-.082v-5.49c.465-.075 1.07-.116 1.71-.116 1.061 0 1.748.19 2.287.596.582.434.944 1.121.944 2.107.001 1.07-.388 1.808-.925 2.265m4.13.755c-1.659 0-2.632-1.252-2.632-2.846 0-1.674 1.071-2.926 2.723-2.926 1.716 0 2.652 1.285 2.652 2.828 0 1.832-1.11 2.944-2.743 2.944m6.432-1.055c.382 0 .806-.082 1.054-.182l.189.986c-.232.116-.752.241-1.434.241-1.935 0-2.926-1.203-2.926-2.794 0-1.908 1.359-2.969 3.049-2.969.657 0 1.154.133 1.378.249l-.257 1c-.256-.107-.612-.208-1.062-.208-1 0-1.783.604-1.783 1.85.001 1.12.666 1.824 1.792 1.824m-6.375-3.714c-.855 0-1.354.812-1.354 1.898 0 1.095.516 1.866 1.36 1.866.855 0 1.345-.814 1.345-1.898 0-1-.481-1.866-1.351-1.866m-6.362.017c-.282 0-.463.023-.571.049v3.658c.108.024.282.024.44.024 1.145.009 1.891-.622 1.891-1.956.009-1.162-.673-1.775-1.76-1.775"/></svg>