<?xml version="1.0" encoding="utf-8"?><svg xmlns="http://www.w3.org/2000/svg" width="35" height="35" viewBox="-43 -1 35 35" enable-background="new -43 -1 35 35"><path id="social-twitter" fill="#fff" d="m-25.504-.504c-9.394.008-17 7.607-17 17.01s7.601 17 17 17c9.393 0 17.01-7.614 17.01-17.01 0-9.392-7.608-16.992-17.01-17m6.799 14.815c0 4.619-3.516 9.944-9.944 9.899-1.975 0-3.812-.579-5.357-1.57.271 0 .6 0 .8.05 1.638 0 3.146-.56 4.341-1.496-1.529-.027-2.82-1.039-3.265-2.428.212 0 .399.1.7.062.318 0 .628-.041.921-.123-1.601-.32-2.806-1.732-2.806-3.428v-.043c.473.301 1 .4 1.601.438-.938-.627-1.556-1.697-1.556-2.909 0-.641.173-1.241.474-1.759 1.726 2.1 4.3 3.5 7.2 3.652-.061-.256-.09-.521-.09-.797 0-1.93 1.563-3.494 3.493-3.494 1.01 0 1.9.399 2.601 1.104.797-.156 1.545-.447 2.221-.847-.261.815-.813 1.5-1.536 1.933.706-.084 1.381-.271 2.01-.55-.469.701-1.062 1.315-1.744 1.8-.066.199-.061.399-.062.506"/></svg>