<?xml version="1.0" encoding="utf-8"?><svg xmlns="http://www.w3.org/2000/svg" width="35" height="35" viewBox="-3 -1 35 35" enable-background="new -3 -1 35 35"><path id="social-youtube" fill="#fff" d="m14.992-.504c-9.394.008-17 7.607-17 17.01s7.601 17 17 17c9.393 0 17.01-7.615 17.01-17.01s-7.607-16.992-17.01-17m8.504 20.05c0 2.933-2.932 2.933-2.932 2.933h-11.146c-2.93 0-2.93-2.933-2.93-2.933v-6.081c0-2.932 2.93-2.932 2.93-2.932h11.146c2.932 0 2.9 2.9 2.9 2.932v6.081h.032m-10.804.26l5.6-3.3-5.6-3.3v6.6"/></svg>