<?xml version="1.0" encoding="utf-8"?><svg xmlns="http://www.w3.org/2000/svg" width="35" height="35" viewBox="-83 -1 35 35" enable-background="new -83 -1 35 35"><path id="social-facebook" fill="#fff" d="m-65.5-.504c-9.394.008-17 7.608-17 17.01 0 9.4 7.601 17 17 17 9.395 0 17.01-7.613 17.01-17.01 0-9.392-7.608-16.992-17.01-17m3.754 14.13l-.193 2.544h-2.607v8.839h-3.296v-8.839h-1.76v-2.544h1.76v-1.709c0-.753.019-1.916.565-2.635.575-.762 1.367-1.28 2.728-1.28 2.219 0 3.201.3 3.201.3l-.439 2.605c0 0-.732-.212-1.418-.212-.684 0-1.295.245-1.295.929v1.986h2.754v.016"/></svg>