<svg enable-background="new 120.558 3 30 30" viewBox="120.558 3 30 30" xmlns="http://www.w3.org/2000/svg"><path d="m148.167 27.474s-.242 0-.322 0c-.177 0-.177-.215-.177-.215v-15.022c0-.377-.3-.687-.669-.687 0 0-3.884 0-5.178 0-.187 0-.176-.18-.176-.18v-2.896c0-.028.016-.061.108-.061.205 0 .371-.172.371-.382v-.679c0-.21-.167-.382-.371-.382h-12.025c-.205 0-.372.171-.372.382v.679c0 .21.167.382.372.382.108 0 .108.099.108.111v2.778s.019.248-.139.248c-1.398 0-5.593 0-5.593 0-.368 0-.669.31-.669.687v15.069c0 .144-.076.168-.228.168-.197 0-.256 0-.256 0-.205 0-.372.171-.372.381v.793c0 .21.167.382.372.382h25.218c.205 0 .373-.172.373-.382v-.793c-.003-.21-.171-.381-.375-.381zm-19.586-2.231c0 .168-.134.305-.297.305h-2.226c-.164 0-.298-.137-.298-.305v-2.287c0-.167.134-.305.298-.305h2.226c.163 0 .297.138.297.305zm0-3.868c0 .167-.134.305-.297.305h-2.226c-.164 0-.298-.138-.298-.305v-2.286c0-.169.134-.306.298-.306h2.226c.163 0 .297.137.297.306zm0-4.01c0 .168-.134.305-.297.305h-2.226c-.164 0-.298-.137-.298-.305v-2.287c0-.167.134-.305.298-.305h2.226c.163 0 .297.138.297.305zm3.217-6.226c0-.168.134-.305.297-.305h2.226c.164 0 .298.137.298.305v2.287c0 .167-.134.305-.298.305h-2.226c-.164 0-.297-.138-.297-.305zm0 4.01c0-.168.134-.306.297-.306h2.226c.164 0 .298.138.298.306v2.286c0 .168-.134.307-.298.307h-2.226c-.164 0-.297-.138-.297-.307zm0 6.155v-2.287c0-.168.134-.306.297-.306h2.226c.164 0 .298.138.298.306v2.287c0 .167-.134.305-.298.305h-2.226c-.163 0-.297-.138-.297-.305zm5.991 5.85c0 .167-.135.304-.299.304h-3.446c-.164 0-.297-.137-.297-.304v-3.54c0-.167.133-.305.297-.305h3.446c.164 0 .299.138.299.305zm1.896-5.85c0 .167-.135.305-.298.305h-2.225c-.164 0-.298-.138-.298-.305v-2.287c0-.168.134-.306.298-.306h2.225c.164 0 .298.138.298.306zm0-3.869c0 .168-.135.307-.298.307h-2.225c-.164 0-.298-.138-.298-.307v-2.286c0-.168.134-.306.298-.306h2.225c.164 0 .298.138.298.306zm0-4.009c0 .167-.135.305-.298.305h-2.225c-.164 0-.298-.138-.298-.305v-2.287c0-.168.134-.305.298-.305h2.225c.164 0 .298.137.298.305zm5.656 11.817c0 .168-.134.305-.297.305h-2.226c-.163 0-.296-.137-.296-.305v-2.287c0-.167.134-.305.296-.305h2.226c.164 0 .297.138.297.305zm0-3.868c0 .167-.134.305-.297.305h-2.226c-.163 0-.296-.138-.296-.305v-2.286c0-.169.134-.306.296-.306h2.226c.164 0 .297.137.297.306zm0-4.01c0 .168-.134.305-.297.305h-2.226c-.163 0-.296-.137-.296-.305v-2.287c0-.167.134-.305.296-.305h2.226c.164 0 .297.138.297.305z" fill="#ffffff"/></svg>