<?xml version="1.0" encoding="utf-8"?><svg xmlns="http://www.w3.org/2000/svg" width="30" height="30" viewBox="-80 3 30 30" enable-background="new -80 3 30 30"><path id="tools-transit-tracker" fill="#fff" d="m-65 4.5c-7.456 0-13.5 6.04-13.5 13.5s6.04 13.5 13.5 13.5c7.455 0 13.5-6.05 13.5-13.5 0-7.455-6.04-13.5-13.5-13.5m0 23.285c-5.412 0-9.815-4.403-9.815-9.815 0-5.411 4.404-9.815 9.815-9.815 5.412 0 9.815 4.405 9.815 9.815 0 5.412-4.403 9.815-9.815 9.815m.566-13.196c-1.056-.176-2.179.139-2.994.955-.813.812-1.128 1.934-.955 2.991l-2.291 5.108 5.108-2.293c1.055.175 2.179-.141 2.993-.955.812-.812 1.127-1.935.952-2.992l2.294-5.108-5.107 2.294m.248 4.195c-.449.448-1.18.448-1.629 0s-.449-1.179 0-1.629 1.181-.45 1.629 0c.449.45.451 1.181 0 1.629m-1.612 7.534h1.597l-.799-1.776-.798 1.776m1.597-16.705h-1.597l.798 1.775.799-1.775m5.778 8.352l1.776.799v-1.596l-1.776.797m-14.93.798l1.775-.798-1.777-.799.002 1.597"/></svg>