<?xml version="1.0" encoding="utf-8"?><svg xmlns="http://www.w3.org/2000/svg" width="30" height="30" viewBox="60 3 30 30" enable-background="new 60 3 30 30"><path id="tools-locatestop" fill="#fff" d="m66.37 18.72c-1.016 0-2.077.515-2.077 1.742 0 1.229 1.06 1.743 2.075 1.743 1.018 0 2.076-.517 2.076-1.743 0-1.226-1.06-1.742-2.076-1.742h.002m1.03 8.06c.598 0 .924-.348.924-1.104v-1.312h-1.849v1.312c-.007.755.324 1.101.925 1.101v.003m20.375-20.466h-25.544c-.402 0-.728.326-.728.728v21.909c0 .402.325.728.728.728h25.545c.402 0 .728-.325.728-.728v-21.91c-.001-.4-.328-.727-.729-.727m-18.886 19.589c0 1-.559 1.545-1.488 1.545-.932 0-1.497-.541-1.489-1.544v-1.539h-2.062v-.671h5.04v2.209m-2.519-3.03c-1.369 0-2.64-.811-2.64-2.414 0-1.603 1.271-2.413 2.64-2.413s2.639.813 2.639 2.416-1.271 2.413-2.641 2.413l.002-.002m-2.52-6.784v-.669h4.475v-1.68h.563v4.03h-.563v-1.68h-4.475m3.564-2.84v-.636c.718-.077 1.03-.558 1.03-1.25 0-.564-.205-1.129-.861-1.129-.622 0-.712.804-.895 1.617-.185.804-.468 1.608-1.455 1.608-1.075 0-1.505-1.051-1.505-1.969 0-1.129.551-2.081 1.779-2.081v.635c-.848 0-1.215.705-1.215 1.469 0 .606.191 1.277.919 1.277.689 0 .811-.804.987-1.609.179-.805.411-1.616 1.334-1.616 1.023 0 1.476.911 1.476 1.829.001 1.031-.486 1.814-1.594 1.855m19.727 14.884h-15.273v-20.363h15.272v20.363zm-5.597-17.226h2.218c1.287 0 1.287 1.287 1.287 1.287v10.304c0 1.286-1.287 1.286-1.287 1.286v1.433h-1.874v-1.433h-3.982v1.433h-1.874v-1.433c0 0-1.287 0-1.287-1.286v-10.304c0 0 0-1.287 1.287-1.287h6.877m-.096 10.454c.438 0 .799-.356.799-.798 0-.439-.358-.795-.799-.795s-.798.355-.798.795c0 .441.355.798.796.798m-6.06 0c.441 0 .798-.356.798-.798 0-.439-.356-.795-.798-.795-.438 0-.795.355-.795.795 0 .442.357.798.795.798m6.831-2.73v-5.078c0-1.556-1.553-1.36-1.553-1.36h-4.714c0 0-1.287 0-1.287 1.289v5.149h7.556-.002z"/></svg>