<?xml version="1.0" encoding="utf-8"?><svg xmlns="http://www.w3.org/2000/svg" width="20" height="20" viewBox="95 3 20 20" enable-background="new 95 3 20 20"><path id="tools-tripplanner" fill="#fff" d="m105 3.5c-4.091 0-7.396 3.318-7.396 7.394 0 .569.064 1.157.196 1.71.23.967 1.094 2.351 1.625 3.189.55.864 4.151 6.707 5.727 6.707 1.289 0 4.968-5.479 5.521-6.421.503-.858 1.297-2.509 1.524-3.476.132-.553.197-1.141.197-1.71.001-4.077-3.302-7.393-7.394-7.393m.151 11.873c-2.606 0-4.718-2.112-4.718-4.718s2.111-4.718 4.718-4.718c2.605 0 4.717 2.112 4.717 4.718s-2.111 4.718-4.717 4.718m-.013-7.02c1.203 0 2.179.976 2.179 2.179s-.976 2.178-2.179 2.178c-1.202 0-2.178-.975-2.178-2.178s.976-2.179 2.178-2.179"/></svg>