<?xml version="1.0" encoding="utf-8"?><svg xmlns="http://www.w3.org/2000/svg" width="30" height="30" viewBox="25 3 30 30" enable-background="new 25 3 30 30"><path id="tools-tripplanner" fill="#fff" d="m40 4.5c-5.814 0-10.512 4.715-10.512 10.507 0 .809.092 1.644.279 2.43.328 1.374 1.554 3.341 2.309 4.532.781 1.229 5.899 9.531 8.138 9.531 1.833 0 7.06-7.787 7.847-9.124.715-1.22 1.843-3.565 2.167-4.939.188-.786.28-1.621.28-2.43 0-5.794-4.695-10.507-10.508-10.507m.214 16.872c-3.703 0-6.704-3-6.704-6.705s3-6.705 6.704-6.705 6.704 3 6.704 6.705c0 3.704-3 6.705-6.704 6.705m-.019-9.978c1.709 0 3.096 1.386 3.096 3.096 0 1.709-1.387 3.095-3.096 3.095s-3.095-1.386-3.095-3.095c.001-1.71 1.386-3.096 3.095-3.096"/></svg>