<?xml version="1.0" encoding="utf-8"?><svg xmlns="http://www.w3.org/2000/svg" width="30" height="30" viewBox="-45 3 30 30" enable-background="new -45 3 30 30"><path id="tools-rideralerts" fill="#fff" d="m-16.739 28.07l-12.332-21.365c-.195-.332-.552-.539-.936-.539-.383 0-.739.206-.934.54l-12.417 21.502c-.19.335-.19.745 0 1.078.193.335.551.539.935.539h24.828c.005.001.012.001.016 0 .595 0 1.079-.483 1.079-1.079 0-.255-.092-.49-.24-.674l.001-.002m-12.36-2.472c-.256.227-.552.34-.894.34-.346 0-.647-.111-.905-.336-.257-.225-.388-.537-.388-.94 0-.351.124-.649.37-.896.248-.246.551-.369.907-.369s.66.123.913.369c.252.246.379.545.379.896.001.396-.126.709-.382.936m.325-9.433l-.365 4.193c-.04.5-.125.883-.255 1.148s-.347.398-.646.398c-.307 0-.52-.128-.638-.385-.12-.26-.204-.652-.256-1.179l-.271-4.074c-.053-.794-.078-1.363-.078-1.708 0-.472.124-.838.37-1.103.247-.263.572-.394.974-.394.486 0 .812.168.978.506.165.337.246.824.246 1.458 0 .375-.02.754-.061 1.14h.002"/></svg>