<?xml version="1.0" encoding="utf-8"?><svg xmlns="http://www.w3.org/2000/svg" width="30" height="30" viewBox="-10 3 30 30" enable-background="new -10 3 30 30"><path id="tools-schedulefinder" fill="#fff" d="m-8.08 4.5v27h26.16v-27h-26.16m2.531 3.375h20.988v11.812h-20.988v-11.812m21.09 20.08h-20.988v-2.294h20.988v2.294m0-4.113h-20.988v-2.295h20.988v2.295m-16.655-12.805c.972.01 1.894-.324 2.064-1.174h.94v7.084h-1.265v-4.999h-1.737v-.911h-.002m10.325 5.908h-4.836c.009-1.163.607-2.043 1.559-2.681.921-.667 2.114-1.224 2.134-2.327.012-.506-.203-1.255-1.194-1.255-.91 0-1.182.78-1.213 1.772h-1.155c0-1.569.861-2.734 2.438-2.734 1.73 0 2.278 1.266 2.278 2.177 0 1.122-.77 1.821-1.579 2.388-.821.567-1.68 1-1.882 1.628h3.45v1.032"/></svg>