<?xml version="1.0" encoding="utf-8"?><svg xmlns="http://www.w3.org/2000/svg" xmlns:xlink="http://www.w3.org/1999/xlink" version="1.1" x="0px" y="0px" width="115px" height="96px" viewBox="0 0 115 96" enable-background="new 0 0 115 96" xml:space="preserve"><g><rect x="0" y="0" width="115" height="96" fill="#f43e3e" /><path fill="#FFFFFF" d="M20.498 65.503v-35.5c0 0 9.8 0 14.5 0c4.406 0 12 3.2 12 12 c0 5.431-2.419 7.166-4.011 8.924c0 0 7.5 7.6 9.5 9.364V38.503h-5.857c0 0-0.881-3-1.542-3h10.647l0.009 29.5h-3.424 L37.278 50.058c0 0 6.278-1.484 6.278-8.094s-5.838-8.461-8.628-8.461c-2.423 0-10.93 0-10.93 0v32H20.498z"/><polygon fill="#FFFFFF" points="26,65.5 26,50.5 34.7,50.5 49.5,65 44.7,65 33.4,54 29.5,54 29.5,65.5"/><path fill="#FFFFFF" d="M43.499 30.003v3.5c0 0 31.4 0 36 0c5.949 0 14.4 4.2 14.4 14.3 c0 9.399-8.114 14.214-14.431 14.214c-6.314 0-9.039 0-9.039 0v-26.5h-13v30h3.5v-27h6v27c0 0 4.1 0 12.5 0 c8.445 0 17.918-6.441 17.918-17.896c0-11.456-9.895-17.604-17.753-17.604C71.92 30 43.5 30 43.5 30.003z"/><path fill="#FFFFFF" d="M29.499 38.503v6.5c0 0 4.1 0 5.5 0c1.322 0 3.194-0.974 3.194-3.25s-1.726-3.25-3.121-3.25 C33.643 38.5 29.5 38.5 29.5 38.503z M34.964 35.503c1.983 0 6.6 1.6 6.6 6.537c0 4.919-4.626 6.463-6.609 6.5 c-1.958 0-8.966 0-8.966 0v-13C25.998 35.5 33 35.5 35 35.503z"/><path fill="#FFFFFF" d="M72.498 35.503v24.5c0 0 3.1 0 6.3 0c6.242 0 13.183-3.769 13.183-12.287 c0-8.812-7.198-12.213-13.072-12.213C74.949 35.5 72.5 35.5 72.5 35.503z M78.949 38.503c7.051 0 9.6 4.7 9.6 9.1 c0 6.462-5.508 8.926-9.621 8.926c-1.762 0-3.01 0-3.01 0l0.005-18H78.949z"/></g></svg>