<svg enable-background="new 0 0 115 96" viewBox="0 0 115 96" xmlns="http://www.w3.org/2000/svg"><path d="m0 0h115v96h-115z" width="115" height="96" fill="#e31837"/><path d="m32.6 50.7 15.3 15.3h-4.9l-11.8-11.8h-4.9v11.8h-3.4v-15.3zm7.1-8.4c0 3.7-3 6.8-6.8 6.8h-10v-14h10.1c3.6 0 6.7 3.3 6.7 7.2zm-3.4 0c0-1.9-1.6-3.7-3.3-3.7h-6.6v7h6.6c1.8 0 3.3-1.5 3.3-3.3zm18-7.2v30.9h-4l-15.5-15.5c3.8-.9 6.6-4.2 6.6-8.3 0-2.9-1.4-5.5-3.5-7.1zm-3.4 3.5h-6.6c.4 1.2.6 2.4.6 3.7 0 3.7-1.7 7-4.3 9.2l10.3 10.3zm28.5 22.3h-7.9v-25.8h7.9c6.9 0 12.7 6 12.7 13 0 7.1-5.7 12.8-12.7 12.8zm-4.5-3.5h4.5c5.1 0 9.3-4.2 9.3-9.3 0-5.2-4.2-9.6-9.3-9.6h-4.5zm17.2-22c-3.4-3.5-7.9-5.5-12.7-5.5h-61.7v36h3.4v-32.5h58.3c3.8 0 7.5 1.6 10.2 4.4s4.2 6.5 4.2 10.4c0 8-6.5 14.4-14.4 14.4h-9.7v-27.5h-13.6v30.9h3.4v-27.4h6.8v27.4h13.1c9.8 0 17.9-8 17.9-17.9 0-4.7-1.9-9.2-5.2-12.7z" fill="#ffffff"/></svg>
